RobotoAvar2-opsz144.ufo
<glyph name="exclam" format="2">
  <advance width="498.4382978723404"/>
  <unicode hex="0021"/>
  <outline>
    <contour>
      <point x="168.39999999999998" y="61.23404255319151" type="qcurve" smooth="yes"/>
      <point x="168.39999999999998" y="93.22340425531917"/>
      <point x="209.71914893617023" y="138.79787234042556"/>
      <point x="249.2191489361702" y="138.79787234042556" type="qcurve" smooth="yes"/>
      <point x="288.7191489361702" y="138.79787234042556"/>
      <point x="330.0382978723404" y="93.22340425531917"/>
      <point x="330.0382978723404" y="61.23404255319151" type="qcurve" smooth="yes"/>
      <point x="330.0382978723404" y="29.244680851063833"/>
      <point x="288.7191489361702" y="-16.329787234042552"/>
      <point x="249.2191489361702" y="-16.329787234042552" type="qcurve" smooth="yes"/>
      <point x="209.71914893617023" y="-16.329787234042552"/>
      <point x="168.39999999999998" y="29.244680851063833"/>
    </contour>
    <contour>
      <point x="201.67659574468087" y="410.0" type="line"/>
      <point x="193.2191489361702" y="1456.0" type="line"/>
      <point x="305.6553191489362" y="1456.0" type="line"/>
      <point x="297.19787234042553" y="410.0" type="line"/>
    </contour>
  </outline>
</glyph>
<glyph name="quotedbl" format="2">
  <advance width="731.041095890411"/>
  <unicode hex="0022"/>
  <outline>
    <contour>
      <point x="137.40425531914894" y="966.0" type="line"/>
      <point x="128.94680851063828" y="1320.0" type="line"/>
      <point x="128.94680851063828" y="1456.0" type="line"/>
      <point x="233.48936170212767" y="1456.0" type="line"/>
      <point x="233.48936170212767" y="1320.0" type="line"/>
      <point x="225.03191489361706" y="966.0" type="line"/>
    </contour>
    <contour>
      <point x="506.00918099679393" y="966.0" type="line"/>
      <point x="497.55173418828326" y="1320.0" type="line"/>
      <point x="497.55173418828326" y="1456.0" type="line"/>
      <point x="602.0942873797726" y="1456.0" type="line"/>
      <point x="602.0942873797726" y="1320.0" type="line"/>
      <point x="593.636840571262" y="966.0" type="line"/>
    </contour>
  </outline>
</glyph>
<glyph name="numbersign" format="2">
  <advance width="1470.864383561644"/>
  <unicode hex="0023"/>
  <outline>
    <contour>
      <point x="229.34909565320527" y="-20.0" type="line"/>
      <point x="644.4312874340271" y="1501.0" type="line"/>
      <point x="735.0546640574039" y="1501.0" type="line"/>
      <point x="319.9724722765819" y="-20.0" type="line"/>
    </contour>
    <contour>
      <point x="717.0842554705569" y="-20.0" type="line"/>
      <point x="1132.166447251379" y="1501.0" type="line"/>
      <point x="1222.7898238747555" y="1501.0" type="line"/>
      <point x="807.7076320939335" y="-20.0" type="line"/>
    </contour>
    <contour>
      <point x="58.6" y="432.7872340425532" type="line"/>
      <point x="58.6" y="513.6489361702128" type="line"/>
      <point x="1342.4675799086758" y="513.6489361702128" type="line"/>
      <point x="1342.4675799086758" y="432.7872340425532" type="line"/>
    </contour>
    <contour>
      <point x="108.86940639269406" y="967.7872340425532" type="line"/>
      <point x="108.86940639269406" y="1048.6489361702127" type="line"/>
      <point x="1391.2255707762556" y="1048.6489361702127" type="line"/>
      <point x="1391.2255707762556" y="967.7872340425532" type="line"/>
    </contour>
  </outline>
</glyph>
<glyph name="dollar" format="2">
  <advance width="840.3708151170699"/>
  <unicode hex="0024"/>
  <outline>
    <contour>
      <point x="19.900000000000002" y="381.0" type="qcurve" smooth="yes"/>
      <point x="19.900000000000002" y="392.0" type="line"/>
      <point x="122.75106382978724" y="392.0" type="line"/>
      <point x="122.75106382978724" y="381.0" type="line" smooth="yes"/>
      <point x="122.75106382978724" y="237.23376623376626"/>
      <point x="279.8605342680248" y="87.67532467532467"/>
      <point x="418.5821140580978" y="87.67532467532467" type="qcurve" smooth="yes"/>
      <point x="556.3767532089014" y="87.67532467532467"/>
      <point x="706.9245798115223" y="240.06493506493507"/>
      <point x="706.9245798115223" y="365.0" type="qcurve" smooth="yes"/>
      <point x="706.9245798115223" y="483.7872340425532"/>
      <point x="562.4000971534052" y="638.0957446808511"/>
      <point x="390.6570193335276" y="700.0957446808511" type="qcurve" smooth="yes"/>
      <point x="215.98840959875645" y="763.2765957446809"/>
      <point x="47.02765957446808" y="947.744680851064"/>
      <point x="47.02765957446808" y="1099.0" type="qcurve" smooth="yes"/>
      <point x="47.02765957446808" y="1259.6702127659576"/>
      <point x="238.35424074613817" y="1458.0"/>
      <point x="410.9178276498592" y="1458.0" type="qcurve" smooth="yes"/>
      <point x="584.917584766346" y="1458.0"/>
      <point x="784.6980180705334" y="1241.1063829787236"/>
      <point x="784.6980180705334" y="1076.0" type="qcurve" smooth="yes"/>
      <point x="784.6980180705334" y="1065.0" type="line"/>
      <point x="681.8469542407462" y="1065.0" type="line"/>
      <point x="681.8469542407462" y="1076.0" type="line" smooth="yes"/>
      <point x="681.8469542407462" y="1206.3246753246754"/>
      <point x="543.7893132515983" y="1363.7142857142858"/>
      <point x="410.55471679782374" y="1363.7142857142858" type="qcurve" smooth="yes"/>
      <point x="278.89597002628193" y="1363.7142857142858"/>
      <point x="148.75106382978726" y="1223.6385741917657"/>
      <point x="148.75106382978726" y="1099.0" type="qcurve" smooth="yes"/>
      <point x="148.75106382978726" y="989.2127659574468"/>
      <point x="286.69544350529486" y="845.5212765957447"/>
      <point x="458.1470611094919" y="783.2127659574469" type="qcurve" smooth="yes"/>
      <point x="627.3632274361216" y="722.3404255319149"/>
      <point x="808.6479840668416" y="526.127659574468"/>
      <point x="808.6479840668416" y="365.0" type="qcurve" smooth="yes"/>
      <point x="808.6479840668416" y="199.81914893617022"/>
      <point x="599.2711745846692" y="-6.0"/>
      <point x="418.2190032060623" y="-6.0" type="qcurve" smooth="yes"/>
      <point x="236.6760614009521" y="-6.0"/>
      <point x="19.900000000000002" y="199.81914893617022"/>
    </contour>
    <contour>
      <point x="379.5716214903332" y="-170.0" type="line"/>
      <point x="379.5716214903332" y="756.1004566210047" type="line"/>
      <point x="459.3056640435247" y="756.1004566210047" type="line"/>
      <point x="459.3056640435247" y="48.44155844155844" type="line"/>
      <point x="467.1992810648013" y="42.33766233766234" type="line"/>
      <point x="467.1992810648013" y="-170.0" type="line"/>
    </contour>
    <contour>
      <point x="387.4652385116098" y="756.1004566210047" type="line"/>
      <point x="387.4652385116098" y="1412.4935064935064" type="line"/>
      <point x="379.5716214903332" y="1418.5974025974026" type="line"/>
      <point x="379.5716214903332" y="1586.0" type="line"/>
      <point x="467.1992810648013" y="1586.0" type="line"/>
      <point x="467.1992810648013" y="756.1004566210047" type="line"/>
    </contour>
  </outline>
</glyph>
<glyph name="parenleft" format="2">
  <advance width="588.0730593607307"/>
  <unicode hex="0028"/>
  <outline>
    <contour>
      <point x="554.5269406392695" y="-436.0" type="line"/>
      <point x="387.9951228990576" y="-340.0"/>
      <point x="112.60000000000001" y="131.27659574468083"/>
      <point x="112.60000000000001" y="515.0" type="qcurve" smooth="yes"/>
      <point x="112.60000000000001" y="525.0" type="line" smooth="yes"/>
      <point x="112.60000000000001" y="925.7234042553192"/>
      <point x="387.9951228990576" y="1380.0"/>
      <point x="554.5269406392695" y="1476.0" type="qcurve"/>
      <point x="554.6730593607306" y="1371.4574468085107" type="line"/>
      <point x="434.6270086466531" y="1287.6063829787236"/>
      <point x="225.60000000000002" y="893.7127659574468"/>
      <point x="225.60000000000002" y="532.0" type="qcurve" smooth="yes"/>
      <point x="225.60000000000002" y="508.0" type="line" smooth="yes"/>
      <point x="225.60000000000002" y="161.59574468085106"/>
      <point x="435.06317885941905" y="-248.0425531914894"/>
      <point x="554.6730593607306" y="-331.45744680851067" type="qcurve"/>
    </contour>
  </outline>
</glyph>
<glyph name="asterisk" format="2">
  <advance width="1048.482191780822"/>
  <unicode hex="002A"/>
  <outline>
    <contour>
      <point x="65.84893617021277" y="1103.7139317983097" type="line"/>
      <point x="101.44842125716507" y="1207.820314777033" type="line"/>
      <point x="490.79428737977264" y="1052.2955892354028" type="line"/>
      <point x="468.9325852521131" y="1476.0" type="line"/>
      <point x="579.5496065287089" y="1476.0" type="line"/>
      <point x="557.6879044010493" y="1052.2955892354028" type="line"/>
      <point x="947.0337705236568" y="1207.820314777033" type="line"/>
      <point x="982.6332556106092" y="1103.7139317983097" type="line"/>
      <point x="578.8581171670068" y="987.2211211502963" type="line"/>
      <point x="844.5809385018945" y="666.4422423005926" type="line"/>
      <point x="754.4035363839503" y="600.8180316720102" type="line"/>
      <point x="524.241095890411" y="947.8275041290199" type="line"/>
      <point x="294.0786553968717" y="600.8180316720102" type="line"/>
      <point x="203.9012532789274" y="666.4422423005926" type="line"/>
      <point x="469.62407461381525" y="987.2211211502963" type="line"/>
    </contour>
  </outline>
</glyph>
<glyph name="plus" format="2">
  <advance width="979.0931506849315"/>
  <unicode hex="002B"/>
  <outline>
    <contour>
      <point x="52.30000000000001" y="625.4574468085107" type="line"/>
      <point x="52.30000000000001" y="720.9787234042553" type="line"/>
      <point x="926.7931506849316" y="720.9787234042553" type="line"/>
      <point x="926.7931506849316" y="625.4574468085107" type="line"/>
    </contour>
    <contour>
      <point x="437.05721364033815" y="207.1415525114155" type="line"/>
      <point x="437.05721364033815" y="1140.8584474885845" type="line"/>
      <point x="541.5997668318274" y="1140.8584474885845" type="line"/>
      <point x="541.5997668318274" y="207.1415525114155" type="line"/>
    </contour>
  </outline>
</glyph>
<glyph name="comma" format="2">
  <advance width="542.0"/>
  <unicode hex="002C"/>
  <outline>
    <contour>
      <point x="110.93617021276597" y="-232.82978723404256" type="line"/>
      <point x="161.11702127659575" y="-171.01063829787233"/>
      <point x="226.63829787234044" y="-28.28723404255319"/>
      <point x="227.0744680851064" y="70.0" type="qcurve" smooth="yes"/>
      <point x="227.0744680851064" y="220.0" type="line"/>
      <point x="331.6170212765958" y="220.0" type="line"/>
      <point x="331.6170212765958" y="70.0" type="line" smooth="yes"/>
      <point x="331.6170212765958" y="-40.0"/>
      <point x="240.85106382978725" y="-211.35106382978728"/>
      <point x="172.31914893617022" y="-275.7340425531915" type="qcurve"/>
    </contour>
  </outline>
</glyph>
<glyph name="zero" format="2">
  <advance width="1017.1312542504616"/>
  <unicode hex="0030"/>
  <outline>
    <contour>
      <point x="100.0" y="453.57077625570776" type="qcurve" smooth="yes"/>
      <point x="100.0" y="1001.7716894977169" type="line" smooth="yes"/>
      <point x="100.0" y="1228.7504129019721"/>
      <point x="314.3003011755562" y="1486.0"/>
      <point x="508.1659865928301" y="1486.0" type="qcurve" smooth="yes"/>
      <point x="701.340182648402" y="1486.0"/>
      <point x="917.1312542504616" y="1228.7504129019721"/>
      <point x="917.1312542504616" y="1001.7716894977169" type="qcurve" smooth="yes"/>
      <point x="917.1312542504616" y="453.57077625570776" type="line" smooth="yes"/>
      <point x="917.1312542504616" y="227.32264645875838"/>
      <point x="701.340182648402" y="-30.0"/>
      <point x="508.1659865928301" y="-30.0" type="qcurve" smooth="yes"/>
      <point x="314.3003011755562" y="-30.0"/>
      <point x="100.0" y="227.32264645875838"/>
    </contour>
    <contour>
      <point x="212.436170212766" y="443.7168949771689" type="line" smooth="yes"/>
      <point x="212.436170212766" y="270.1480346623162"/>
      <point x="361.6627805304576" y="69.16883116883116"/>
      <point x="508.1659865928301" y="69.16883116883116" type="qcurve" smooth="yes"/>
      <point x="655.1053628679686" y="69.16883116883116"/>
      <point x="804.6950840376956" y="270.1480346623162"/>
      <point x="804.6950840376956" y="443.7168949771689" type="qcurve" smooth="yes"/>
      <point x="804.6950840376956" y="1011.7716894977169" type="line" smooth="yes"/>
      <point x="804.6950840376956" y="1186.7243057632159"/>
      <point x="655.3245409501603" y="1386.831168831169"/>
      <point x="508.1659865928301" y="1386.831168831169" type="qcurve" smooth="yes"/>
      <point x="361.44360244826584" y="1386.831168831169"/>
      <point x="212.436170212766" y="1186.7243057632159"/>
      <point x="212.436170212766" y="1011.7716894977169" type="qcurve" smooth="yes"/>
    </contour>
  </outline>
</glyph>
<glyph name="one" format="2">
  <advance width="979.5312542504615"/>
  <unicode hex="0031"/>
  <outline>
    <contour>
      <point x="508.0922374429224" y="0.0" type="line"/>
      <point x="508.0922374429224" y="1340.9334612730124" type="line"/>
      <point x="135.86917322452152" y="1192.5344421438856" type="line"/>
      <point x="135.86917322452152" y="1307.284368017099" type="line"/>
      <point x="598.2221075727925" y="1480.6753246753246" type="line"/>
      <point x="619.4007480812203" y="1480.6753246753246" type="line"/>
      <point x="619.4007480812203" y="0.0" type="line"/>
    </contour>
  </outline>
</glyph>
<glyph name="two" format="2">
  <advance width="1019.5312542504615"/>
  <unicode hex="0032"/>
  <outline>
    <contour>
      <point x="81.45730107840279" y="0.0" type="line"/>
      <point x="81.45730107840279" y="81.98936170212767" type="line"/>
      <point x="566.1752647430293" y="621.9255319148937" type="line" smooth="yes"/>
      <point x="663.9717769357817" y="728.5713591761391"/>
      <point x="796.0405129699795" y="934.6382978723404"/>
      <point x="796.0405129699795" y="1072.5916642378315" type="qcurve" smooth="yes"/>
      <point x="796.0405129699795" y="1203.9109860313592"/>
      <point x="646.4670649956281" y="1386.7581094704383"/>
      <point x="513.8487321480618" y="1386.831168831169" type="qcurve" smooth="yes"/>
      <point x="384.0644127076654" y="1386.9042281918996"/>
      <point x="207.41333916253765" y="1208.4550936773321"/>
      <point x="207.34027980180707" y="1036.4292237442924" type="qcurve" smooth="yes"/>
      <point x="207.34027980180707" y="1020.0" type="line"/>
      <point x="97.15942873797728" y="1020.0" type="line"/>
      <point x="97.15942873797728" y="1038.687506072088" type="line" smooth="yes"/>
      <point x="97.15942873797728" y="1247.2494899446226"/>
      <point x="338.0539201399009" y="1486.0"/>
      <point x="514.7254444768289" y="1486.0" type="qcurve" smooth="yes"/>
      <point x="692.9572039249975" y="1486.0"/>
      <point x="906.2213640338096" y="1249.4330127270962"/>
      <point x="906.2213640338096" y="1078.7413776352862" type="qcurve" smooth="yes"/>
      <point x="906.2213640338096" y="916.5957446808511"/>
      <point x="747.2061109491888" y="678.3454289322841"/>
      <point x="641.0953074905276" y="561.8510638297872" type="qcurve" smooth="yes"/>
      <point x="217.38254153308074" y="96.64893617021276" type="line"/>
      <point x="936.0433304187311" y="96.64893617021276" type="line"/>
      <point x="936.0433304187311" y="0.0" type="line"/>
    </contour>
  </outline>
</glyph>
<glyph name="three" format="2">
  <advance width="1019.7312542504615"/>
  <unicode hex="0033"/>
  <outline>
    <contour>
      <point x="72.12765957446808" y="371.5251141552511" type="qcurve" smooth="yes"/>
      <point x="72.12765957446808" y="390.00000000000006" type="line"/>
      <point x="180.05319148936172" y="390.00000000000006" type="line"/>
      <point x="180.05319148936172" y="371.74429223744295" type="line" smooth="yes"/>
      <point x="180.05319148936172" y="234.08698321012514"/>
      <point x="343.27528417371025" y="69.16883116883116"/>
      <point x="495.51894491401924" y="69.16883116883116" type="qcurve" smooth="yes"/>
      <point x="646.8902652287964" y="69.16883116883116"/>
      <point x="809.1308170601379" y="237.65596212783623"/>
      <point x="809.1308170601379" y="400.0" type="qcurve" smooth="yes"/>
      <point x="809.1308170601379" y="544.7978723404256"/>
      <point x="634.0881667152433" y="712.3896103896104"/>
      <point x="463.41489361702133" y="712.0" type="qcurve" smooth="yes"/>
      <point x="338.3230350723793" y="712.0" type="line"/>
      <point x="338.3230350723793" y="808.7272727272727" type="line"/>
      <point x="457.6076068592828" y="808.7272727272727" type="line" smooth="yes"/>
      <point x="610.8822204221506" y="808.7272727272727"/>
      <point x="757.698047216555" y="968.9585520862116"/>
      <point x="757.698047216555" y="1094.3617021276596" type="qcurve" smooth="yes"/>
      <point x="757.698047216555" y="1239.6106268161063"/>
      <point x="622.2863596619062" y="1386.831168831169"/>
      <point x="496.9801321286311" y="1386.831168831169" type="qcurve" smooth="yes"/>
      <point x="380.3354454735976" y="1386.831168831169"/>
      <point x="224.85106382978722" y="1238.1761763447862"/>
      <point x="224.85106382978722" y="1106.3561643835617" type="qcurve" smooth="yes"/>
      <point x="224.85106382978722" y="1090.0" type="line"/>
      <point x="116.48936170212767" y="1090.0" type="line"/>
      <point x="116.48936170212767" y="1108.255707762557" type="line" smooth="yes"/>
      <point x="116.48936170212767" y="1270.9283007869426"/>
      <point x="333.8761779850384" y="1486.0"/>
      <point x="497.5646070144759" y="1486.0" type="qcurve" smooth="yes"/>
      <point x="668.703439230545" y="1486.0"/>
      <point x="869.0065578548529" y="1279.759351015253"/>
      <point x="869.0065578548529" y="1100.0" type="qcurve" smooth="yes"/>
      <point x="869.0065578548529" y="991.4539726279745"/>
      <point x="752.9004120818461" y="802.800270263109"/>
      <point x="629.1505877781016" y="766.0" type="qcurve"/>
      <point x="629.2236471388321" y="762.0" type="line"/>
      <point x="769.4492859224715" y="736.5425531914893"/>
      <point x="921.5669872729039" y="539.5638297872341"/>
      <point x="921.5669872729039" y="400.563829787234" type="qcurve" smooth="yes"/>
      <point x="921.5669872729039" y="199.98907024191197"/>
      <point x="693.5656271252308" y="-30.0"/>
      <point x="495.738122996211" y="-30.0" type="qcurve" smooth="yes"/>
      <point x="291.149033323618" y="-30.0"/>
      <point x="72.12765957446808" y="194.81497133974545"/>
    </contour>
  </outline>
</glyph>
<glyph name="four" format="2">
  <advance width="1029.3312542504616"/>
  <unicode hex="0034"/>
  <outline>
    <contour>
      <point x="703.1526279996114" y="0.0" type="line"/>
      <point x="703.1526279996114" y="409.34042553191495" type="line"/>
      <point x="703.1526279996114" y="439.96808510638294" type="line"/>
      <point x="703.1526279996114" y="1261.1009039051885" type="line"/>
      <point x="689.2045760515596" y="1261.1009039051885" type="line"/>
      <point x="160.71325614053683" y="469.031914893617" type="line"/>
      <point x="732.7802875740795" y="469.031914893617" type="line"/>
      <point x="777.0675216166326" y="469.031914893617" type="line"/>
      <point x="1003.0807344797436" y="469.031914893617" type="line"/>
      <point x="1003.0807344797436" y="376.89361702127667" type="line"/>
      <point x="29.70363227562295" y="376.89361702127667" type="line"/>
      <point x="29.70363227562295" y="453.5501519756839" type="line"/>
      <point x="694.7789059769532" y="1456.0" type="line"/>
      <point x="807.6951811911008" y="1456.0" type="line"/>
      <point x="807.6951811911008" y="0.0" type="line"/>
    </contour>
  </outline>
</glyph>
<glyph name="five" format="2">
  <advance width="1019.1312542504616"/>
  <unicode hex="0035"/>
  <outline>
    <contour>
      <point x="87.0832118915768" y="357.1095890410959" type="qcurve" smooth="yes"/>
      <point x="87.0832118915768" y="375.00000000000006" type="line"/>
      <point x="193.73496551054112" y="375.00000000000006" type="line"/>
      <point x="193.73496551054112" y="357.69406392694066" type="line" smooth="yes"/>
      <point x="193.73496551054112" y="225.11738087036835"/>
      <point x="369.278363431963" y="69.16883116883116"/>
      <point x="502.40143787039733" y="69.16883116883116" type="qcurve" smooth="yes"/>
      <point x="636.0538021679089" y="69.16883116883116"/>
      <point x="818.6656951326145" y="268.3227108071177"/>
      <point x="818.6656951326145" y="465.0" type="qcurve" smooth="yes"/>
      <point x="818.6656951326145" y="645.3226231167065"/>
      <point x="640.1535560038913" y="828.7710964834253"/>
      <point x="502.5740561294336" y="828.8441558441558" type="qcurve" smooth="yes"/>
      <point x="418.5412340501236" y="828.9172152048864"/>
      <point x="274.8609987117711" y="759.3130427815651"/>
      <point x="211.00170018459147" y="694.1702127659574" type="qcurve"/>
      <point x="134.90236082774703" y="730.0" type="line"/>
      <point x="206.71058000582923" y="1456.0" type="line"/>
      <point x="867.2598367822792" y="1456.0" type="line"/>
      <point x="867.2598367822792" y="1349.5064935064936" type="line"/>
      <point x="296.493531097291" y="1349.5064935064936" type="line"/>
      <point x="241.6998060717093" y="822.6233766233768" type="line"/>
      <point x="297.3804741843215" y="867.7981215326013"/>
      <point x="444.46675145509306" y="928.6233766233767"/>
      <point x="524.2464750347292" y="928.6233766233767" type="qcurve" smooth="yes"/>
      <point x="696.1514123203135" y="928.6233766233767"/>
      <point x="928.8465461964441" y="685.388685539662"/>
      <point x="928.8465461964441" y="465.0" type="qcurve" smooth="yes"/>
      <point x="928.8465461964441" y="230.39043430095603"/>
      <point x="686.4906732730983" y="-30.0"/>
      <point x="502.7667346740503" y="-30.0" type="qcurve" smooth="yes"/>
      <point x="311.7358398911882" y="-30.0"/>
      <point x="87.0832118915768" y="189.59797920917129"/>
    </contour>
  </outline>
</glyph>
<glyph name="seven" format="2">
  <advance width="1020.9312542504615"/>
  <unicode hex="0037"/>
  <outline>
    <contour>
      <point x="253.4075682502672" y="0.0" type="line"/>
      <point x="821.05762168464" y="1362.1702127659573" type="line"/>
      <point x="84.5795297775187" y="1362.1702127659573" type="line"/>
      <point x="84.5795297775187" y="1456.0" type="line"/>
      <point x="936.0044301952784" y="1456.0" type="line"/>
      <point x="936.0044301952784" y="1391.6914893617022" type="line"/>
      <point x="367.4075682502671" y="0.0" type="line"/>
    </contour>
  </outline>
</glyph>
<glyph name="eight" format="2">
  <advance width="1018.3312542504616"/>
  <unicode hex="0038"/>
  <outline>
    <contour>
      <point x="93.07449723112795" y="386.0" type="qcurve" smooth="yes"/>
      <point x="93.07449723112795" y="519.023763470572"/>
      <point x="244.1621390656366" y="714.0449858118177"/>
      <point x="369.6801313715916" y="746.0" type="qcurve"/>
      <point x="369.6801313715916" y="750.0000000000001" type="line"/>
      <point x="267.0558298982665" y="787.2037287981618"/>
      <point x="136.00600408044303" y="963.0744680851064"/>
      <point x="136.00600408044303" y="1087.0" type="qcurve" smooth="yes"/>
      <point x="136.00600408044303" y="1273.6952297678033"/>
      <point x="347.5999514232974" y="1486.0"/>
      <point x="510.56526765763147" y="1486.0" type="qcurve" smooth="yes"/>
      <point x="674.8390945302633" y="1486.0"/>
      <point x="883.4080248712717" y="1275.2590595550373"/>
      <point x="883.4080248712717" y="1087.0" type="qcurve" smooth="yes"/>
      <point x="883.4080248712717" y="963.0744680851064"/>
      <point x="752.2666805457245" y="787.2037287981618"/>
      <point x="648.9870307774418" y="750.0000000000001" type="qcurve"/>
      <point x="648.9870307774418" y="746.0" type="line"/>
      <point x="774.9433792477803" y="713.8258077296259"/>
      <point x="926.1290974448655" y="519.023763470572"/>
      <point x="926.1290974448655" y="386.0" type="qcurve" smooth="yes"/>
      <point x="926.1290974448655" y="199.62391916836685"/>
      <point x="700.1396385893327" y="-30.0"/>
      <point x="510.56526765763147" y="-30.0" type="qcurve" smooth="yes"/>
      <point x="320.99089672593027" y="-30.0"/>
      <point x="93.07449723112795" y="199.62391916836685"/>
    </contour>
    <contour>
      <point x="202.12768872048963" y="391.63829787234044" type="qcurve" smooth="yes"/>
      <point x="202.12768872048963" y="251.85472979366887"/>
      <point x="365.8610858974893" y="69.16883116883116"/>
      <point x="510.56526765763147" y="69.16883116883116" type="qcurve" smooth="yes"/>
      <point x="655.659059807384" y="69.16883116883116"/>
      <point x="817.0759059555039" y="252.53657762620165"/>
      <point x="817.0759059555039" y="391.63829787234044" type="qcurve" smooth="yes"/>
      <point x="817.0759059555039" y="525.0307061538481"/>
      <point x="653.8889007912325" y="696.0"/>
      <point x="510.56526765763147" y="696.0" type="qcurve" smooth="yes"/>
      <point x="366.7589044881088" y="696.0"/>
      <point x="202.12768872048963" y="525.3229435967705"/>
    </contour>
    <contour>
      <point x="243.4614106674439" y="1081.3617021276596" type="qcurve" smooth="yes"/>
      <point x="243.4614106674439" y="951.227504255193"/>
      <point x="398.3863344272554" y="796.3376623376623"/>
      <point x="510.1269114932479" y="796.3376623376623" type="qcurve" smooth="yes"/>
      <point x="622.3036587720062" y="796.3376623376623"/>
      <point x="776.6101525308462" y="951.227504255193"/>
      <point x="776.6101525308462" y="1081.3617021276596" type="qcurve" smooth="yes"/>
      <point x="776.6101525308462" y="1225.4801497928868"/>
      <point x="631.2545874702389" y="1386.831168831169"/>
      <point x="510.1269114932479" y="1386.831168831169" type="qcurve" smooth="yes"/>
      <point x="390.1215068619324" y="1386.831168831169"/>
      <point x="243.4614106674439" y="1225.4801497928868"/>
    </contour>
  </outline>
</glyph>
<glyph name="semicolon" format="2">
  <advance width="560.0"/>
  <unicode hex="003B"/>
  <outline>
    <contour>
      <point x="128.4001262994268" y="-233.48294957738267" type="line"/>
      <point x="187.72525017001846" y="-168.68366851258136"/>
      <point x="236.51063829787233" y="-24.72481297969494"/>
      <point x="236.94680851063833" y="70.0" type="qcurve" smooth="yes"/>
      <point x="236.94680851063833" y="220.0" type="line"/>
      <point x="341.48936170212767" y="220.0" type="line"/>
      <point x="341.48936170212767" y="70.0" type="line" smooth="yes"/>
      <point x="341.48936170212767" y="-40.0"/>
      <point x="266.9544350529486" y="-210.0425531914894"/>
      <point x="191.1690469250947" y="-277.0425531914894" type="qcurve"/>
    </contour>
    <contour>
      <point x="198.18085106382978" y="990.436170212766" type="qcurve" smooth="yes"/>
      <point x="198.18085106382978" y="1022.4255319148937"/>
      <point x="239.93617021276594" y="1068.0"/>
      <point x="279.0" y="1068.0" type="qcurve" smooth="yes"/>
      <point x="318.063829787234" y="1068.0"/>
      <point x="359.8191489361702" y="1022.4255319148937"/>
      <point x="359.8191489361702" y="990.436170212766" type="qcurve" smooth="yes"/>
      <point x="359.8191489361702" y="958.4468085106382"/>
      <point x="318.063829787234" y="912.436170212766"/>
      <point x="279.0" y="912.436170212766" type="qcurve" smooth="yes"/>
      <point x="239.93617021276594" y="912.436170212766"/>
      <point x="198.18085106382978" y="958.4468085106382"/>
    </contour>
  </outline>
</glyph>
<glyph name="less" format="2">
  <advance width="969.8931506849315"/>
  <unicode hex="003C"/>
  <outline>
    <contour>
      <point x="864.2876712328766" y="249.35106382978722" type="line"/>
      <point x="91.0" y="631.404255319149" type="line"/>
      <point x="91.0" y="717.8297872340426" type="line"/>
      <point x="864.2876712328766" y="1096.8297872340427" type="line"/>
      <point x="873.4931506849315" y="988.3934227144662" type="line"/>
      <point x="213.1247449723113" y="677.436170212766" type="line"/>
      <point x="873.4931506849315" y="363.71796366462644" type="line"/>
    </contour>
  </outline>
</glyph>
<glyph name="equal" format="2">
  <advance width="979.0931506849315"/>
  <unicode hex="003D"/>
  <outline>
    <contour>
      <point x="52.30000000000001" y="416.32978723404256" type="line"/>
      <point x="52.30000000000001" y="514.6702127659574" type="line"/>
      <point x="926.7931506849316" y="514.6702127659574" type="line"/>
      <point x="926.7931506849316" y="416.32978723404256" type="line"/>
    </contour>
    <contour>
      <point x="52.30000000000001" y="811.3297872340427" type="line"/>
      <point x="52.30000000000001" y="909.6702127659574" type="line"/>
      <point x="926.7931506849316" y="909.6702127659574" type="line"/>
      <point x="926.7931506849316" y="811.3297872340427" type="line"/>
    </contour>
  </outline>
</glyph>
<glyph name="greater" format="2">
  <advance width="969.8931506849315"/>
  <unicode hex="003E"/>
  <outline>
    <contour>
      <point x="105.6054794520548" y="249.35106382978722" type="line"/>
      <point x="96.4" y="358.810259399592" type="line"/>
      <point x="756.7684057126203" y="672.5284659477315" type="line"/>
      <point x="96.4" y="983.4857184494316" type="line"/>
      <point x="105.6054794520548" y="1096.8297872340427" type="line"/>
      <point x="878.8931506849316" y="717.8297872340426" type="line"/>
      <point x="878.8931506849316" y="631.404255319149" type="line"/>
    </contour>
  </outline>
</glyph>
<glyph name="question" format="2">
  <advance width="773.7591858544642"/>
  <unicode hex="003F"/>
  <outline>
    <contour>
      <point x="266.23384824638106" y="61.23404255319151" type="qcurve" smooth="yes"/>
      <point x="266.23384824638106" y="93.22340425531917"/>
      <point x="307.9891673953172" y="138.79787234042556"/>
      <point x="347.0529971825513" y="138.79787234042556" type="qcurve" smooth="yes"/>
      <point x="386.1168269697853" y="138.79787234042556"/>
      <point x="427.8721461187214" y="93.22340425531917"/>
      <point x="427.8721461187214" y="61.23404255319151" type="qcurve" smooth="yes"/>
      <point x="427.8721461187214" y="29.244680851063833"/>
      <point x="386.1168269697853" y="-16.329787234042552"/>
      <point x="347.0529971825513" y="-16.329787234042552" type="qcurve" smooth="yes"/>
      <point x="307.9891673953172" y="-16.329787234042552"/>
      <point x="266.23384824638106" y="29.244680851063833"/>
    </contour>
    <contour>
      <point x="55.0" y="1095.0" type="line"/>
      <point x="55.0" y="1115.0" type="line" smooth="yes"/>
      <point x="55.0" y="1278.2553191489362"/>
      <point x="225.24380647041679" y="1476.0"/>
      <point x="374.2884484601185" y="1476.0" type="qcurve" smooth="yes"/>
      <point x="524.6416010881181" y="1476.0"/>
      <point x="688.1591858544642" y="1270.0"/>
      <point x="688.1591858544642" y="1100.0" type="qcurve" smooth="yes"/>
      <point x="688.1591858544642" y="966.8723404255319"/>
      <point x="580.7448751578743" y="792.0212765957448"/>
      <point x="507.01112406489847" y="720.6063829787234" type="qcurve" smooth="yes"/>
      <point x="432.05834061983876" y="647.9724570096182"/>
      <point x="393.97852909744483" y="527.0744680851064"/>
      <point x="393.97852909744483" y="446.17021276595744" type="qcurve" smooth="yes"/>
      <point x="393.97852909744483" y="410.0" type="line"/>
      <point x="286.0529971825513" y="410.0" type="line"/>
      <point x="286.0529971825513" y="446.17021276595744" type="line" smooth="yes"/>
      <point x="286.0529971825513" y="558.0851063829788"/>
      <point x="337.1052657145633" y="687.3305644612844"/>
      <point x="418.8380938501894" y="772.531914893617" type="qcurve" smooth="yes"/>
      <point x="498.27883027300106" y="854.4042553191491"/>
      <point x="580.2336539395706" y="986.4787234042553"/>
      <point x="580.2336539395706" y="1100.0" type="qcurve" smooth="yes"/>
      <point x="580.2336539395706" y="1225.9936446532192"/>
      <point x="477.7152919459827" y="1374.3896103896104"/>
      <point x="375.0146701641892" y="1374.3896103896104" type="qcurve" smooth="yes"/>
      <point x="271.07859710482853" y="1374.3896103896104"/>
      <point x="162.36170212765956" y="1233.3766233766235"/>
      <point x="162.36170212765956" y="1115.0" type="qcurve" smooth="yes"/>
      <point x="162.36170212765956" y="1095.0" type="line"/>
    </contour>
  </outline>
</glyph>
<glyph name="at" format="2">
  <advance width="2039.8849315068494"/>
  <unicode hex="0040"/>
  <outline>
    <contour>
      <point x="624.8021276595746" y="390.40425531914894" type="qcurve" smooth="yes"/>
      <point x="626.7747303993006" y="659.936170212766"/>
      <point x="909.974089186826" y="1052.0"/>
      <point x="1079.9879587817215" y="1052.0" type="qcurve" smooth="yes"/>
      <point x="1158.4367431655103" y="1052.0"/>
      <point x="1294.4467442884522" y="987.6170212765958"/>
      <point x="1341.0640046633634" y="946.0000000000001" type="qcurve"/>
      <point x="1394.4125910813175" y="946.0000000000001" type="line"/>
      <point x="1271.7955698047217" y="350.0" type="line" smooth="yes"/>
      <point x="1246.8129779285127" y="226.78516164686377"/>
      <point x="1352.0152727676482" y="85.74025974025975"/>
      <point x="1457.7940342762263" y="85.74025974025975" type="qcurve" smooth="yes"/>
      <point x="1615.5371379616206" y="85.74025974025975"/>
      <point x="1791.614718740892" y="395.8538270240398"/>
      <point x="1791.614718740892" y="650.0" type="qcurve" smooth="yes"/>
      <point x="1791.614718740892" y="952.2348715114672"/>
      <point x="1396.2822711437984" y="1388.051948051948"/>
      <point x="1061.910502283105" y="1388.051948051948" type="qcurve" smooth="yes"/>
      <point x="721.4152186393225" y="1388.051948051948"/>
      <point x="250.34468085106386" y="856.3075435203094"/>
      <point x="250.34468085106386" y="460.0" type="qcurve" smooth="yes"/>
      <point x="250.34468085106386" y="78.21608179054988"/>
      <point x="650.7583632048511" y="-348.0519480519481"/>
      <point x="967.5360730593608" y="-348.0519480519481" type="qcurve" smooth="yes"/>
      <point x="1106.0018264840182" y="-348.0519480519481"/>
      <point x="1293.4267212239815" y="-297.16883116883116"/>
      <point x="1360.303196347032" y="-258.05194805194805" type="qcurve"/>
      <point x="1360.4493150684934" y="-356.0" type="line"/>
      <point x="1291.545205479452" y="-400.0"/>
      <point x="1104.4675799086758" y="-446.0"/>
      <point x="966.6593607305936" y="-446.0" type="qcurve" smooth="yes"/>
      <point x="614.0383561643836" y="-447.31506849315065"/>
      <point x="142.41914893617022" y="39.269406392694066"/>
      <point x="142.41914893617022" y="459.8538812785388" type="qcurve" smooth="yes"/>
      <point x="142.41914893617022" y="891.7057223355679"/>
      <point x="686.3154376760906" y="1486.0"/>
      <point x="1061.4743320703392" y="1486.0" type="qcurve" smooth="yes"/>
      <point x="1432.2715243369282" y="1486.0"/>
      <point x="1896.1572719323813" y="1000.0"/>
      <point x="1896.1572719323813" y="650.0" type="qcurve" smooth="yes"/>
      <point x="1896.1572719323813" y="360.0"/>
      <point x="1660.379850383756" y="0.0"/>
      <point x="1467.9561643835618" y="0.0" type="qcurve" smooth="yes"/>
      <point x="1344.6230739337416" y="0.0"/>
      <point x="1186.7071248774544" y="132.03150041447913"/>
      <point x="1167.3991794953322" y="227.66247582205028" type="qcurve"/>
      <point x="1127.1224260340846" y="131.61246200607903"/>
      <point x="975.7229179835999" y="0.0"/>
      <point x="881.4699601671039" y="0.0" type="qcurve" smooth="yes"/>
      <point x="756.3150490624697" y="0.0"/>
      <point x="623.4870591664238" y="205.60638297872342"/>
    </contour>
    <contour>
      <point x="735.2752161663268" y="390.69649276207133" type="qcurve" smooth="yes"/>
      <point x="734.0332070339066" y="246.87886358274"/>
      <point x="824.8243284744015" y="98.62989978058472"/>
      <point x="914.1834074601197" y="98.55684041985413" type="qcurve" smooth="yes"/>
      <point x="1002.5816992004402" y="98.48378105912353"/>
      <point x="1137.315933536977" y="232.2244824057707"/>
      <point x="1164.8251631104736" y="363.92260343367894" type="qcurve" smooth="yes"/>
      <point x="1276.433233656463" y="893.525974025974" type="line"/>
      <point x="1240.5525866147843" y="924.7732799115778"/>
      <point x="1145.9209481667658" y="963.8912411789125"/>
      <point x="1092.3977228251201" y="963.8912411789125" type="qcurve" smooth="yes"/>
      <point x="955.0815206652863" y="963.9643005396431"/>
      <point x="737.5400563489751" y="625.9795820132456"/>
    </contour>
  </outline>
</glyph>
<glyph name="C" format="2">
  <advance width="1128.8698921597202"/>
  <unicode hex="0043"/>
  <anchor x="618.372340425532" y="0.0" name="bottom"/>
  <anchor x="628.3723404255319" y="1456.0" name="top"/>
  <outline>
    <contour>
      <point x="104.5" y="662.9315068493152" type="qcurve" smooth="yes"/>
      <point x="104.5" y="793.3607305936073" type="line" smooth="yes"/>
      <point x="104.5" y="1120.5336636549112"/>
      <point x="381.30350723792867" y="1486.0730593607304"/>
      <point x="602.1440299232488" y="1486.0730593607304" type="qcurve" smooth="yes"/>
      <point x="820.0044204799378" y="1486.0730593607304"/>
      <point x="1052.2698921597203" y="1208.7355484309726"/>
      <point x="1052.2698921597203" y="1010.2283105022831" type="qcurve" smooth="yes"/>
      <point x="1052.2698921597203" y="990.0" type="line"/>
      <point x="940.9613815214223" y="990.0" type="line"/>
      <point x="940.9613815214223" y="1011.689497716895" type="line" smooth="yes"/>
      <point x="940.9613815214223" y="1170.3335358414054"/>
      <point x="772.5778198775868" y="1383.1688311688313"/>
      <point x="601.2673175944817" y="1383.1688311688313" type="qcurve" smooth="yes"/>
      <point x="429.7684739723504" y="1383.1688311688313"/>
      <point x="217.37234042553195" y="1085.4348573800628"/>
      <point x="217.37234042553195" y="802.3470319634703" type="qcurve" smooth="yes"/>
      <point x="217.37234042553195" y="654.2374429223745" type="line" smooth="yes"/>
      <point x="217.37234042553195" y="382.75389086770605"/>
      <point x="431.49574669962317" y="72.83116883116884"/>
      <point x="601.4864956766735" y="72.83116883116884" type="qcurve" smooth="yes"/>
      <point x="763.0432603925753" y="72.83116883116884"/>
      <point x="923.0881086755469" y="281.1134947341593"/>
      <point x="940.0344408821529" y="444.67579908675805" type="qcurve" smooth="yes"/>
      <point x="940.9613815214223" y="466.0" type="line"/>
      <point x="1052.2698921597203" y="466.0" type="line"/>
      <point x="1051.3429515204507" y="444.74885844748866" type="line" smooth="yes"/>
      <point x="1032.8041387350627" y="247.24380647041679"/>
      <point x="817.9653162343341" y="-30.0"/>
      <point x="602.1440299232488" y="-30.0" type="qcurve" smooth="yes"/>
      <point x="382.53895851549595" y="-30.0"/>
      <point x="104.5" y="337.94598270669394"/>
    </contour>
  </outline>
</glyph>
<glyph name="D" format="2">
  <advance width="1134.0527057223353"/>
  <unicode hex="0044"/>
  <anchor x="547.7021276595744" y="0.0" name="bottom"/>
  <anchor x="241.44680851063833" y="728.0" name="center"/>
  <anchor x="546.3936170212767" y="1456.0" name="top"/>
  <outline>
    <contour>
      <point x="154.0" y="0.0" type="line"/>
      <point x="154.0" y="1456.0" type="line"/>
      <point x="488.2126202273389" y="1456.0" type="line" smooth="yes"/>
      <point x="732.9078014184397" y="1456.0"/>
      <point x="1033.8588361022055" y="1090.170791901191"/>
      <point x="1033.8588361022055" y="794.310502283105" type="qcurve" smooth="yes"/>
      <point x="1033.8588361022055" y="659.6438356164384" type="line" smooth="yes"/>
      <point x="1033.8588361022055" y="357.06849315068496"/>
      <point x="733.2508519848944" y="0.0"/>
      <point x="488.2126202273389" y="0.0" type="qcurve" smooth="yes"/>
    </contour>
    <contour>
      <point x="265.3085106382979" y="99.16883116883118" type="line"/>
      <point x="490.5505197707179" y="99.16883116883118" type="line" smooth="yes"/>
      <point x="691.9777865678477" y="99.16883116883118"/>
      <point x="921.4226658894395" y="396.8669868943841"/>
      <point x="921.4226658894395" y="649.8543556899722" type="qcurve" smooth="yes"/>
      <point x="921.4226658894395" y="805.7803475063748" type="line" smooth="yes"/>
      <point x="921.4226658894395" y="1051.834227901701"/>
      <point x="691.8846669215366" y="1356.831168831169"/>
      <point x="490.5505197707179" y="1356.831168831169" type="qcurve" smooth="yes"/>
      <point x="265.3085106382979" y="1356.831168831169" type="line"/>
    </contour>
  </outline>
</glyph>
<glyph name="E" format="2">
  <advance width="1021.4445836976587"/>
  <unicode hex="0045"/>
  <anchor x="571.6914893617021" y="0.0" name="bottom"/>
  <anchor x="996.436170212766" y="0.0" name="ogonek"/>
  <anchor x="580.1489361702128" y="1456.0" name="top"/>
  <anchor x="-89.69148936170214" y="1074.0" name="tonos"/>
  <outline>
    <contour>
      <point x="154.0" y="0.0" type="line"/>
      <point x="154.0" y="1456.0" type="line"/>
      <point x="949.6829398620422" y="1456.0" type="line"/>
      <point x="949.6829398620422" y="1356.831168831169" type="line"/>
      <point x="265.3085106382979" y="1356.831168831169" type="line"/>
      <point x="265.3085106382979" y="99.16883116883118" type="line"/>
      <point x="959.2445836976586" y="99.16883116883118" type="line"/>
      <point x="959.2445836976586" y="0.0" type="line"/>
    </contour>
    <contour>
      <point x="213.25531914893617" y="702.3896103896104" type="line"/>
      <point x="213.25531914893617" y="801.5584415584416" type="line"/>
      <point x="861.4820266200331" y="801.5584415584416" type="line"/>
      <point x="861.4820266200331" y="702.3896103896104" type="line"/>
    </contour>
  </outline>
</glyph>
<glyph name="F" format="2">
  <advance width="991.3943553871563"/>
  <unicode hex="0046"/>
  <anchor x="515.4148936170213" y="0.0" name="bottom"/>
  <anchor x="567.3297872340426" y="1457.0" name="top"/>
  <outline>
    <contour>
      <point x="154.0" y="0.0" type="line"/>
      <point x="154.0" y="1456.0" type="line"/>
      <point x="938.1943553871563" y="1456.0" type="line"/>
      <point x="938.1943553871563" y="1356.831168831169" type="line"/>
      <point x="265.3085106382979" y="1356.831168831169" type="line"/>
      <point x="265.3085106382979" y="0.0" type="line"/>
    </contour>
    <contour>
      <point x="213.25531914893617" y="673.3896103896104" type="line"/>
      <point x="213.25531914893617" y="772.5584415584416" type="line"/>
      <point x="844.3815699990287" y="772.5584415584416" type="line"/>
      <point x="844.3815699990287" y="673.3896103896104" type="line"/>
    </contour>
  </outline>
</glyph>
<glyph name="G" format="2">
  <advance width="1177.1078208491208"/>
  <unicode hex="0047"/>
  <anchor x="594.5716506363549" y="0.0" name="bottom"/>
  <anchor x="591.0822889342272" y="1456.0" name="top"/>
  <outline>
    <contour>
      <point x="104.5" y="663.1506849315069" type="qcurve" smooth="yes"/>
      <point x="104.5" y="792.9954337899543" type="line" smooth="yes"/>
      <point x="104.5" y="1120.5292917516758"/>
      <point x="383.5639755173419" y="1486.0"/>
      <point x="614.9270377926746" y="1485.9269406392693" type="qcurve" smooth="yes"/>
      <point x="819.207325366754" y="1486.0"/>
      <point x="1052.100893811328" y="1225.0978820557661"/>
      <point x="1059.9532206353833" y="1047.1391722529875" type="qcurve" smooth="yes"/>
      <point x="1060.0543806722762" y="1030.0" type="line"/>
      <point x="949.5007772272418" y="1030.0" type="line"/>
      <point x="949.5007772272418" y="1048.8401826484019" type="line" smooth="yes"/>
      <point x="949.5007772272418" y="1177.0145597625924"/>
      <point x="772.9141182823782" y="1383.1688311688313"/>
      <point x="612.6348003497524" y="1383.1688311688313" type="qcurve" smooth="yes"/>
      <point x="429.3529488581952" y="1383.1688311688313"/>
      <point x="216.93617021276594" y="1073.122236648031"/>
      <point x="216.93617021276594" y="802.1278538812785" type="qcurve" smooth="yes"/>
      <point x="216.93617021276594" y="654.4566210045663" type="line" smooth="yes"/>
      <point x="216.93617021276594" y="383.1700007948915"/>
      <point x="430.51534077503186" y="72.83116883116884"/>
      <point x="630.246672495871" y="72.83116883116884" type="qcurve" smooth="yes"/>
      <point x="734.5480423588847" y="72.83116883116884"/>
      <point x="885.1233848246382" y="144.204471327759"/>
      <point x="952.0822889342271" y="203.8961038961039" type="qcurve"/>
      <point x="952.0822889342271" y="628.8311688311688" type="line"/>
      <point x="612.6576313999806" y="628.8311688311688" type="line"/>
      <point x="612.6576313999806" y="728.0" type="line"/>
      <point x="1060.007820849121" y="728.0" type="line"/>
      <point x="1060.007820849121" y="160.73059360730593" type="line"/>
      <point x="996.099145050034" y="91.02283105022832"/>
      <point x="780.5311376663751" y="-30.0"/>
      <point x="631.7809190712135" y="-30.0" type="qcurve" smooth="yes"/>
      <point x="383.9957738268726" y="-30.0"/>
      <point x="104.5" y="334.16438356164383"/>
    </contour>
  </outline>
</glyph>
<glyph name="H" format="2">
  <advance width="1218.589624016322"/>
  <unicode hex="0048"/>
  <anchor x="632.308510638298" y="0.0" name="bottom"/>
  <anchor x="632.308510638298" y="1100.0" name="center"/>
  <anchor x="632.308510638298" y="1456.0" name="top"/>
  <anchor x="1056.3085106382978" y="0.0" name="cy_descender"/>
  <anchor x="-89.69148936170214" y="1074.0" name="tonos"/>
  <outline>
    <contour>
      <point x="154.0" y="0.0" type="line"/>
      <point x="154.0" y="1456.0" type="line"/>
      <point x="265.3085106382979" y="1456.0" type="line"/>
      <point x="265.3085106382979" y="0.0" type="line"/>
    </contour>
    <contour>
      <point x="213.69148936170214" y="704.7272727272727" type="line"/>
      <point x="213.69148936170214" y="803.896103896104" type="line"/>
      <point x="1010.1002623141942" y="803.896103896104" type="line"/>
      <point x="1010.1002623141942" y="704.7272727272727" type="line"/>
    </contour>
    <contour>
      <point x="953.281113378024" y="0.0" type="line"/>
      <point x="953.281113378024" y="1456.0" type="line"/>
      <point x="1064.5896240163217" y="1456.0" type="line"/>
      <point x="1064.5896240163217" y="0.0" type="line"/>
    </contour>
  </outline>
</glyph>
<glyph name="K" format="2">
  <advance width="1152.9027980180706"/>
  <unicode hex="004B"/>
  <anchor x="618.3085106382979" y="0.0" name="bottom"/>
  <anchor x="618.3085106382979" y="1456.0" name="top"/>
  <outline>
    <contour>
      <point x="154.0" y="0.0" type="line"/>
      <point x="154.0" y="1456.0" type="line"/>
      <point x="265.3085106382979" y="1456.0" type="line"/>
      <point x="265.3085106382979" y="0.0" type="line"/>
    </contour>
    <contour>
      <point x="1038.5836490819004" y="0.0" type="line"/>
      <point x="464.0627863344273" y="810.2843427824484" type="line"/>
      <point x="536.9356844457398" y="886.5106382978723" type="line"/>
      <point x="1175.5730107840282" y="0.0" type="line"/>
    </contour>
    <contour>
      <point x="211.43617021276594" y="440.8051948051948" type="line"/>
      <point x="211.43617021276594" y="594.993891952796" type="line"/>
      <point x="955.6234441260674" y="1456.0" type="line"/>
      <point x="1100.7403272429503" y="1456.0" type="line"/>
    </contour>
  </outline>
</glyph>
<glyph name="L" format="2">
  <advance width="968.5980083551929"/>
  <unicode hex="004C"/>
  <anchor x="576.0531914893618" y="0.0" name="bottom"/>
  <anchor x="752.8404255319149" y="728.0" name="center"/>
  <anchor x="276.8404255319149" y="1456.0" name="top"/>
  <anchor x="641.8404255319149" y="1052.0" name="topright"/>
  <outline>
    <contour>
      <point x="154.0" y="0.0" type="line"/>
      <point x="154.0" y="1456.0" type="line"/>
      <point x="265.3085106382979" y="1456.0" type="line"/>
      <point x="265.3085106382979" y="99.16883116883118" type="line"/>
      <point x="918.9980083551928" y="99.16883116883118" type="line"/>
      <point x="918.9980083551928" y="0.0" type="line"/>
    </contour>
  </outline>
</glyph>
<glyph name="M" format="2">
  <advance width="1549.9701739045954"/>
  <unicode hex="004D"/>
  <anchor x="801.7978723404256" y="0.0" name="bottom"/>
  <anchor x="801.7978723404256" y="1456.0" name="top"/>
  <outline>
    <contour>
      <point x="154.0" y="0.0" type="line"/>
      <point x="154.0" y="1456.0" type="line"/>
      <point x="296.8829787234043" y="1456.0" type="line"/>
      <point x="729.4115418245409" y="265.9148936170213" type="line" smooth="yes"/>
      <point x="740.244778004469" y="235.8418342562907"/>
      <point x="761.7474497231128" y="170.91489361702128"/>
      <point x="770.6197901486446" y="140.91489361702128" type="qcurve"/>
      <point x="778.6197901486447" y="140.91489361702128" type="line"/>
      <point x="787.419071213446" y="170.91489361702128"/>
      <point x="809.5770912270475" y="237.07728553385797"/>
      <point x="820.4833867677062" y="267.2234042553191" type="qcurve" smooth="yes"/>
      <point x="1253.0871951811912" y="1456.0" type="line"/>
      <point x="1395.9701739045954" y="1456.0" type="line"/>
      <point x="1395.9701739045954" y="0.0" type="line"/>
      <point x="1288.0446419897016" y="0.0" type="line"/>
      <point x="1288.0446419897016" y="1160.7872340425533" type="line" smooth="yes"/>
      <point x="1288.0446419897016" y="1190.7872340425533"/>
      <point x="1289.1723015641699" y="1254.4468085106382"/>
      <point x="1291.427620713106" y="1284.0106382978724" type="qcurve"/>
      <point x="1283.427620713106" y="1284.0106382978724" type="line"/>
      <point x="1276.1191100748083" y="1257.063829787234"/>
      <point x="1255.3249781404838" y="1192.1688040415818"/>
      <point x="1244.4917419605558" y="1162.095744680851" type="qcurve" smooth="yes"/>
      <point x="821.5985135529002" y="0.0" type="line"/>
      <point x="725.3857475954533" y="0.0" type="line"/>
      <point x="307.58481492276303" y="1150.3191489361702" type="line" smooth="yes"/>
      <point x="296.315408530069" y="1180.828378509667"/>
      <point x="272.468085106383" y="1254.8829787234042"/>
      <point x="264.2872340425532" y="1284.8829787234044" type="qcurve"/>
      <point x="256.2872340425532" y="1284.8829787234044" type="line"/>
      <point x="258.5425531914894" y="1254.4468085106382"/>
      <point x="259.67021276595744" y="1179.8829787234044"/>
      <point x="259.67021276595744" y="1149.8829787234042" type="qcurve" smooth="yes"/>
      <point x="259.67021276595744" y="0.0" type="line"/>
    </contour>
  </outline>
</glyph>
<glyph name="O" format="2">
  <advance width="1223.0504226173127"/>
  <unicode hex="004F"/>
  <anchor x="637.936170212766" y="0.0" name="bottom"/>
  <anchor x="637.936170212766" y="728.0" name="center"/>
  <anchor x="809.7659574468087" y="0.0" name="ogonek"/>
  <anchor x="637.936170212766" y="1456.0" name="top"/>
  <anchor x="806.5106382978724" y="1456.0" name="topright"/>
  <anchor x="2.287234042553191" y="1074.0" name="tonos"/>
  <anchor x="215.6276595744681" y="750.0000000000001" name="yu_dash"/>
  <outline>
    <contour>
      <point x="104.5" y="663.0045662100457" type="qcurve" smooth="yes"/>
      <point x="104.5" y="793.0684931506848" type="line" smooth="yes"/>
      <point x="104.5" y="1120.082191780822"/>
      <point x="386.39361702127655" y="1486.0"/>
      <point x="611.488681628291" y="1486.0" type="qcurve" smooth="yes"/>
      <point x="836.5837462353056" y="1486.0"/>
      <point x="1118.5504226173127" y="1120.082191780822"/>
      <point x="1118.5504226173127" y="793.0684931506848" type="qcurve" smooth="yes"/>
      <point x="1118.5504226173127" y="663.0045662100457" type="line" smooth="yes"/>
      <point x="1118.5504226173127" y="335.9908675799087"/>
      <point x="836.510686874575" y="-30.0"/>
      <point x="611.488681628291" y="-30.0" type="qcurve" smooth="yes"/>
      <point x="386.46667638200717" y="-30.0"/>
      <point x="104.5" y="335.9908675799087"/>
    </contour>
    <contour>
      <point x="216.93617021276594" y="654.310502283105" type="line" smooth="yes"/>
      <point x="216.93617021276594" y="382.22460100862895"/>
      <point x="433.2490527542991" y="72.83116883116884"/>
      <point x="611.5617409890217" y="72.83116883116884" type="qcurve" smooth="yes"/>
      <point x="789.8744292237443" y="72.83116883116884"/>
      <point x="1006.1142524045468" y="382.22460100862895"/>
      <point x="1006.1142524045468" y="654.310502283105" type="qcurve" smooth="yes"/>
      <point x="1006.1142524045468" y="802.2009132420092" type="line" smooth="yes"/>
      <point x="1006.1142524045468" y="1074.9399768598255"/>
      <point x="789.7283105022831" y="1383.1688311688313"/>
      <point x="611.5617409890217" y="1383.1688311688313" type="qcurve" smooth="yes"/>
      <point x="433.39517147576026" y="1383.1688311688313"/>
      <point x="216.93617021276594" y="1074.9399768598255"/>
      <point x="216.93617021276594" y="802.2009132420092" type="qcurve" smooth="yes"/>
    </contour>
  </outline>
</glyph>
<glyph name="Q" format="2">
  <advance width="1223.0504226173127"/>
  <unicode hex="0051"/>
  <anchor x="637.936170212766" y="0.0" name="bottom"/>
  <anchor x="637.936170212766" y="1456.0" name="top"/>
  <outline>
    <contour>
      <point x="104.5" y="663.0045662100457" type="qcurve" smooth="yes"/>
      <point x="104.5" y="793.0684931506848" type="line" smooth="yes"/>
      <point x="104.5" y="1120.082191780822"/>
      <point x="386.39361702127655" y="1486.0"/>
      <point x="611.488681628291" y="1486.0" type="qcurve" smooth="yes"/>
      <point x="836.5837462353056" y="1486.0"/>
      <point x="1118.5504226173127" y="1120.082191780822"/>
      <point x="1118.5504226173127" y="793.0684931506848" type="qcurve" smooth="yes"/>
      <point x="1118.5504226173127" y="663.0045662100457" type="line" smooth="yes"/>
      <point x="1118.5504226173127" y="335.9908675799087"/>
      <point x="836.510686874575" y="-30.0"/>
      <point x="611.488681628291" y="-30.0" type="qcurve" smooth="yes"/>
      <point x="386.46667638200717" y="-30.0"/>
      <point x="104.5" y="335.9908675799087"/>
    </contour>
    <contour>
      <point x="216.93617021276594" y="654.310502283105" type="line" smooth="yes"/>
      <point x="216.93617021276594" y="382.22460100862895"/>
      <point x="433.2490527542991" y="72.83116883116884"/>
      <point x="611.5617409890217" y="72.83116883116884" type="qcurve" smooth="yes"/>
      <point x="789.8744292237443" y="72.83116883116884"/>
      <point x="1006.1142524045468" y="382.22460100862895"/>
      <point x="1006.1142524045468" y="654.310502283105" type="qcurve" smooth="yes"/>
      <point x="1006.1142524045468" y="802.2009132420092" type="line" smooth="yes"/>
      <point x="1006.1142524045468" y="1074.9399768598255"/>
      <point x="789.7283105022831" y="1383.1688311688313"/>
      <point x="611.5617409890217" y="1383.1688311688313" type="qcurve" smooth="yes"/>
      <point x="433.39517147576026" y="1383.1688311688313"/>
      <point x="216.93617021276594" y="1074.9399768598255"/>
      <point x="216.93617021276594" y="802.2009132420092" type="qcurve" smooth="yes"/>
    </contour>
    <contour>
      <point x="1005.4127076654038" y="-212.01384436024483" type="line"/>
      <point x="717.0952033975934" y="15.491295938104448" type="line"/>
      <point x="789.3186076529125" y="88.15087040618955" type="line"/>
      <point x="1080.4552608568931" y="-136.5351209559895" type="line"/>
    </contour>
  </outline>
</glyph>
<glyph name="S" format="2">
  <advance width="1002.9185854464199"/>
  <unicode hex="0053"/>
  <anchor x="525.6702127659574" y="0.0" name="bottom"/>
  <anchor x="525.6702127659574" y="1456.0" name="top"/>
  <outline>
    <contour>
      <point x="82.0" y="394.56621004566216" type="qcurve" smooth="yes"/>
      <point x="82.0" y="410.0" type="line"/>
      <point x="193.3085106382979" y="410.0" type="line"/>
      <point x="193.3085106382979" y="393.1780821917809" type="line" smooth="yes"/>
      <point x="193.3085106382979" y="239.89574808752891"/>
      <point x="359.83819100359466" y="72.83116883116884"/>
      <point x="510.04823666569513" y="72.83116883116884" type="qcurve" smooth="yes"/>
      <point x="660.6944525405617" y="72.83116883116884"/>
      <point x="819.372437578937" y="236.25184496839995"/>
      <point x="819.372437578937" y="374.6132808704945" type="qcurve" smooth="yes"/>
      <point x="819.372437578937" y="501.2196638492179"/>
      <point x="652.3857961721559" y="648.5631982901001"/>
      <point x="457.9687651802196" y="710.4294180511029" type="qcurve" smooth="yes"/>
      <point x="256.0085494996599" y="774.7133488778782"/>
      <point x="110.10482852423976" y="949.8231808024871"/>
      <point x="110.10482852423976" y="1091.607305936073" type="qcurve" smooth="yes"/>
      <point x="110.10482852423976" y="1264.3726318857475"/>
      <point x="312.4048382395803" y="1486.0"/>
      <point x="500.41353346934807" y="1486.0" type="qcurve" smooth="yes"/>
      <point x="689.7307393374138" y="1486.0"/>
      <point x="901.411541824541" y="1251.1415525114155"/>
      <point x="901.411541824541" y="1069.5525114155253" type="qcurve" smooth="yes"/>
      <point x="901.411541824541" y="1052.0" type="line"/>
      <point x="790.0299718255125" y="1052.0" type="line"/>
      <point x="790.0299718255125" y="1067.6529680365297" type="line" smooth="yes"/>
      <point x="790.0299718255125" y="1209.7082369685108"/>
      <point x="645.0862488817894" y="1383.1688311688313"/>
      <point x="500.5596521908093" y="1383.1688311688313" type="qcurve" smooth="yes"/>
      <point x="356.4226658894395" y="1383.1688311688313"/>
      <point x="220.43179830953073" y="1226.883472691692"/>
      <point x="220.43179830953073" y="1097.1917808219177" type="qcurve" smooth="yes"/>
      <point x="220.43179830953073" y="992.224181482561"/>
      <point x="340.22364713883223" y="860.1234334013407"/>
      <point x="538.5469736714272" y="798.4055183134169" type="qcurve" smooth="yes"/>
      <point x="735.8540270086467" y="736.7584766346062"/>
      <point x="929.9185854464199" y="546.2464296123579"/>
      <point x="929.9185854464199" y="373.9557466239192" type="qcurve" smooth="yes"/>
      <point x="929.9185854464199" y="191.77489556008936"/>
      <point x="707.2576508306616" y="-29.926940639269407"/>
      <point x="510.41353346934807" y="-29.926940639269407" type="qcurve" smooth="yes"/>
      <point x="313.71334887787816" y="-29.926940639269407"/>
      <point x="82.0" y="198.6096861945011"/>
    </contour>
  </outline>
</glyph>
<glyph name="U" format="2">
  <advance width="1131.3156514135821"/>
  <unicode hex="0055"/>
  <anchor x="586.8085106382979" y="0.0" name="bottom"/>
  <anchor x="754.1489361702128" y="0.0" name="ogonek"/>
  <anchor x="586.8085106382979" y="1456.0" name="top"/>
  <anchor x="979.5" y="1456.0" name="topright"/>
  <outline>
    <contour>
      <point x="140.5" y="461.1598173515981" type="qcurve" smooth="yes"/>
      <point x="140.5" y="1456.0" type="line"/>
      <point x="251.8085106382979" y="1456.0" type="line"/>
      <point x="251.8085106382979" y="457.79908675799084" type="line" smooth="yes"/>
      <point x="251.8085106382979" y="265.47445433222174"/>
      <point x="423.75531725633743" y="72.83116883116884"/>
      <point x="565.6212960264257" y="72.83116883116884" type="qcurve" smooth="yes"/>
      <point x="706.7080540172933" y="72.83116883116884"/>
      <point x="879.5071407752841" y="263.9160127737802"/>
      <point x="879.5071407752841" y="457.79908675799084" type="qcurve" smooth="yes"/>
      <point x="879.5071407752841" y="1456.0" type="line"/>
      <point x="990.8156514135821" y="1456.0" type="line"/>
      <point x="990.8156514135821" y="461.1598173515981" type="line" smooth="yes"/>
      <point x="990.8156514135821" y="215.6164383561644"/>
      <point x="747.1945982706693" y="-30.0"/>
      <point x="565.6943553871563" y="-30.0" type="qcurve" smooth="yes"/>
      <point x="384.1210531429127" y="-30.0"/>
      <point x="140.5" y="215.6164383561644"/>
    </contour>
  </outline>
</glyph>
<glyph name="V" format="2">
  <advance width="1108.8370737394346"/>
  <unicode hex="0056"/>
  <anchor x="559.1308656368406" y="0.0" name="bottom"/>
  <anchor x="559.1308656368406" y="1456.0" name="top"/>
  <outline>
    <contour>
      <point x="1.0" y="1456.0" type="line"/>
      <point x="119.07446808510639" y="1456.0" type="line"/>
      <point x="511.9972797046537" y="286.873214806179" type="line" smooth="yes"/>
      <point x="523.1936267366171" y="253.873214806179"/>
      <point x="545.4417565335665" y="186.73491693383852"/>
      <point x="551.7494899446226" y="156.73491693383852" type="qcurve"/>
      <point x="559.8019042067424" y="156.73491693383852" type="line"/>
      <point x="565.6734674050325" y="186.73491693383852"/>
      <point x="587.9761974157195" y="252.12853395511516"/>
      <point x="599.6087146604489" y="286.873214806179" type="qcurve" smooth="yes"/>
      <point x="995.0038375595066" y="1456.0" type="line"/>
      <point x="1107.8370737394346" y="1456.0" type="line"/>
      <point x="603.0883610220538" y="-10.0" type="line"/>
      <point x="505.2372971922666" y="-10.0" type="line"/>
    </contour>
  </outline>
</glyph>
<glyph name="W" format="2">
  <advance width="1625.5466822112116"/>
  <unicode hex="0057"/>
  <anchor x="847.4787234042553" y="0.0" name="bottom"/>
  <anchor x="847.4787234042553" y="1456.0" name="top"/>
  <outline>
    <contour>
      <point x="380.2994267949092" y="-10.0" type="line"/>
      <point x="46.0" y="1456.0" type="line"/>
      <point x="157.30851063829786" y="1456.0" type="line"/>
      <point x="419.7804818808899" y="259.36170212765967" type="line" smooth="yes"/>
      <point x="427.3421257165064" y="225.36170212765958"/>
      <point x="434.99528805984653" y="184.36170212765956"/>
      <point x="440.08462061595253" y="151.3617021276596" type="qcurve"/>
      <point x="449.7193238122996" y="151.3617021276596" type="line"/>
      <point x="455.2448265811717" y="184.79787234042556"/>
      <point x="463.8433887107744" y="225.36170212765958"/>
      <point x="472.3319731856602" y="259.36170212765967" type="qcurve" smooth="yes"/>
      <point x="755.592490041776" y="1456.0" type="line"/>
      <point x="870.2095113183717" y="1456.0" type="line"/>
      <point x="1168.3584474885845" y="258.92553191489367" type="line" smooth="yes"/>
      <point x="1176.8470319634703" y="224.9255319148936"/>
      <point x="1185.445594093073" y="183.9255319148936"/>
      <point x="1191.0441562226756" y="150.92553191489367" type="qcurve"/>
      <point x="1199.605800058292" y="150.92553191489367" type="line"/>
      <point x="1204.7681919751285" y="183.9255319148936"/>
      <point x="1213.56747303993" y="224.9255319148936"/>
      <point x="1220.9829981540852" y="258.92553191489367" type="qcurve" smooth="yes"/>
      <point x="1469.3658311473819" y="1456.0" type="line"/>
      <point x="1579.5466822112114" y="1456.0" type="line"/>
      <point x="1253.113620907413" y="-10.0" type="line"/>
      <point x="1139.5178762265618" y="-10.0" type="line"/>
      <point x="844.64349557952" y="1175.8257553677256" type="line" smooth="yes"/>
      <point x="836.1549111046343" y="1209.8257553677256"/>
      <point x="822.3578159914505" y="1270.8257553677256"/>
      <point x="816.9216457786845" y="1303.8257553677258" type="qcurve"/>
      <point x="808.9216457786845" y="1303.8257553677258" type="line"/>
      <point x="803.4854755659186" y="1270.8257553677256"/>
      <point x="790.3437287476926" y="1209.8988147284563"/>
      <point x="781.9282036335374" y="1175.8257553677256" type="qcurve" smooth="yes"/>
      <point x="493.8951714757602" y="-10.0" type="line"/>
    </contour>
  </outline>
</glyph>
<glyph name="X" format="2">
  <advance width="1078.6202759156708"/>
  <unicode hex="0058"/>
  <anchor x="561.7404546779364" y="0.0" name="bottom"/>
  <anchor x="561.7404546779364" y="1456.0" name="top"/>
  <anchor x="985.2510929758088" y="0.0" name="cy_descender"/>
  <outline>
    <contour>
      <point x="23.5" y="0.0" type="line"/>
      <point x="519.5423103079763" y="806.0000000000001" type="line"/>
      <point x="526.4130962790246" y="806.0000000000001" type="line"/>
      <point x="912.2022248129797" y="1456.0" type="line"/>
      <point x="1032.6664237831537" y="1456.0" type="line"/>
      <point x="556.3856990187506" y="670.0" type="line"/>
      <point x="549.5149130477023" y="670.0" type="line"/>
      <point x="144.54867385601864" y="0.0" type="line"/>
    </contour>
    <contour>
      <point x="45.663800641212475" y="1456.0" type="line"/>
      <point x="168.67555620324492" y="1456.0" type="line"/>
      <point x="554.3916253764694" y="806.0000000000001" type="line"/>
      <point x="559.299329641504" y="806.0000000000001" type="line"/>
      <point x="1055.1202759156708" y="0.0" type="line"/>
      <point x="932.1085203536385" y="0.0" type="line"/>
      <point x="526.4138735062663" y="670.0" type="line"/>
      <point x="521.506169241232" y="670.0" type="line"/>
    </contour>
  </outline>
</glyph>
<glyph name="bracketleft" format="2">
  <advance width="586.041319343243"/>
  <unicode hex="005B"/>
  <outline>
    <contour>
      <point x="130.6" y="-310.0" type="line"/>
      <point x="130.6" y="1456.0" type="line"/>
      <point x="513.041319343243" y="1456.0" type="line"/>
      <point x="513.041319343243" y="1355.6103896103896" type="line"/>
      <point x="237.9617021276596" y="1355.6103896103896" type="line"/>
      <point x="237.9617021276596" y="-209.61038961038963" type="line"/>
      <point x="513.041319343243" y="-209.61038961038963" type="line"/>
      <point x="513.041319343243" y="-310.0" type="line"/>
    </contour>
  </outline>
</glyph>
<glyph name="asciicircum" format="2">
  <advance width="1050.7601282424948"/>
  <unicode hex="005E"/>
  <outline>
    <contour>
      <point x="23.5" y="720.0" type="line"/>
      <point x="476.5821917808219" y="1456.0" type="line"/>
      <point x="575.9226173127367" y="1456.0" type="line"/>
      <point x="1027.2601282424948" y="720.0" type="line"/>
      <point x="912.0320120470222" y="720.0" type="line"/>
      <point x="526.2524045467794" y="1358.4787234042553" type="line"/>
      <point x="138.2919459827067" y="720.0" type="line"/>
    </contour>
  </outline>
</glyph>
<glyph name="a" format="2">
  <advance width="901.759574468085"/>
  <unicode hex="0061"/>
  <anchor x="442.5" y="0.0" name="bottom"/>
  <anchor x="819.2446808510638" y="0.0" name="ogonek"/>
  <anchor x="469.97872340425533" y="916.0" name="top"/>
  <outline>
    <contour>
      <point x="363.65606622077036" y="-20.0" type="qcurve" smooth="yes"/>
      <point x="223.60837268046242" y="-20.0"/>
      <point x="82.0" y="133.0"/>
      <point x="82.0" y="276.0" type="qcurve" smooth="yes"/>
      <point x="82.0" y="413.55999999999995"/>
      <point x="250.7909705625182" y="573.2"/>
      <point x="434.5648013212864" y="573.2" type="qcurve" smooth="yes"/>
      <point x="707.887399203342" y="573.2" type="line"/>
      <point x="707.887399203342" y="489.90129870129874" type="line"/>
      <point x="448.81825562953514" y="489.90129870129874" type="line" smooth="yes"/>
      <point x="313.5620449908588" y="489.90129870129874"/>
      <point x="189.92553191489358" y="380.718961038961"/>
      <point x="189.92553191489358" y="281.63829787234044" type="qcurve" smooth="yes"/>
      <point x="189.92553191489358" y="182.12883116883117"/>
      <point x="293.10858831055276" y="73.06493506493507"/>
      <point x="390.92096570484796" y="73.06493506493507" type="qcurve" smooth="yes"/>
      <point x="492.73301101113987" y="73.06493506493507"/>
      <point x="661.3136597687749" y="196.70777441736345"/>
      <point x="661.3136597687749" y="286.1885904050288" type="qcurve"/>
      <point x="661.3136597687749" y="584.0" type="line" smooth="yes"/>
      <point x="661.8924997318819" y="721.2176015473889"/>
      <point x="570.0351209559894" y="852.9350649350649"/>
      <point x="457.3410570290489" y="852.9350649350649" type="qcurve" smooth="yes"/>
      <point x="357.38309699821207" y="852.9350649350649"/>
      <point x="248.95292917516758" y="766.7925398802113"/>
      <point x="248.95292917516758" y="668.0" type="qcurve" smooth="yes"/>
      <point x="248.95292917516758" y="663.0" type="line"/>
      <point x="141.59122704750803" y="663.0" type="line"/>
      <point x="141.59122704750803" y="668.0" type="line" smooth="yes"/>
      <point x="141.59122704750803" y="805.1476595744681"/>
      <point x="316.1730690760711" y="946.0"/>
      <point x="460.8291752937629" y="946.0" type="qcurve" smooth="yes"/>
      <point x="613.5643641309628" y="946.0"/>
      <point x="769.2391916836687" y="778.3936170212767"/>
      <point x="769.2391916836687" y="584.0" type="qcurve" smooth="yes"/>
      <point x="769.2391916836687" y="240.0" type="line" smooth="yes"/>
      <point x="769.2391916836687" y="164.968085106383"/>
      <point x="787.127028077334" y="60.87234042553192"/>
      <point x="805.8510638297873" y="13.819148936170214" type="qcurve"/>
      <point x="805.8510638297873" y="0.0" type="line"/>
      <point x="704.1447099970853" y="0.0" type="line"/>
      <point x="690.7291848829302" y="25.0"/>
      <point x="668.6789565724279" y="105.0"/>
      <point x="665.0458545146682" y="154.35064935064935" type="qcurve"/>
      <point x="638.5218222950663" y="85.3863633209305"/>
      <point x="475.59883024776644" y="-20.0"/>
    </contour>
  </outline>
</glyph>
<glyph name="f" format="2">
  <advance width="513.2266103176917"/>
  <unicode hex="0066"/>
  <anchor x="251.81885747595456" y="0.0" name="bottom"/>
  <anchor x="256.18055960361414" y="1536.0" name="top"/>
  <outline>
    <contour>
      <point x="192.3082191780822" y="0.0" type="line"/>
      <point x="192.3082191780822" y="1211.776595744681" type="line" smooth="yes"/>
      <point x="192.3082191780822" y="1391.4468085106382"/>
      <point x="342.53274069756145" y="1556.0"/>
      <point x="468.358010298261" y="1556.0" type="qcurve" smooth="yes"/>
      <point x="496.9395220052463" y="1556.0"/>
      <point x="561.6996988244439" y="1547.563829787234"/>
      <point x="589.2266103176917" y="1540.0" type="qcurve"/>
      <point x="583.0253412671075" y="1446.1970157502074" type="line"/>
      <point x="559.0529757330982" y="1451.3658469190386"/>
      <point x="506.88586430571274" y="1458.1450676982593"/>
      <point x="479.44922788277495" y="1458.1450676982593" type="qcurve" smooth="yes"/>
      <point x="397.41928696970956" y="1458.1450676982593"/>
      <point x="300.23375109297575" y="1345.126277977342"/>
      <point x="300.23375109297575" y="1211.776595744681" type="qcurve" smooth="yes"/>
      <point x="300.23375109297575" y="878.987012987013" type="line"/>
      <point x="300.23375109297575" y="864.7792207792206" type="line"/>
      <point x="300.23375109297575" y="0.0" type="line"/>
    </contour>
    <contour>
      <point x="23.5" y="826.5974025974026" type="line"/>
      <point x="23.5" y="916.0" type="line"/>
      <point x="232.21247449723114" y="916.0" type="line"/>
      <point x="259.02098513552903" y="916.0" type="line"/>
      <point x="522.614738171573" y="916.0" type="line"/>
      <point x="522.614738171573" y="826.5974025974026" type="line"/>
    </contour>
  </outline>
</glyph>
<glyph name="h" format="2">
  <advance width="925.4428446517051"/>
  <unicode hex="0068"/>
  <anchor x="477.1255319148936" y="0.0" name="bottom"/>
  <anchor x="232.4872340425532" y="1327.0" name="center"/>
  <anchor x="190.50851063829788" y="1536.0" name="top"/>
  <anchor x="775.8702127659575" y="0.0" name="engtail"/>
  <outline>
    <contour>
      <point x="242.12553191489363" y="0.0" type="line"/>
      <point x="134.2" y="0.0" type="line"/>
      <point x="134.2" y="1536.0" type="line"/>
      <point x="241.34631113567283" y="1536.0" type="line"/>
    </contour>
    <contour>
      <point x="198.52085106382975" y="705.8841392649904" type="line"/>
      <point x="254.89207806086853" y="828.7070185134014"/>
      <point x="438.8916331992112" y="936.0"/>
      <point x="545.8043080595689" y="936.0" type="qcurve" smooth="yes"/>
      <point x="660.9125949926882" y="936.0"/>
      <point x="800.242844651705" y="781.662139317983"/>
      <point x="800.242844651705" y="571.8779656076945" type="qcurve" smooth="yes"/>
      <point x="800.242844651705" y="0.0" type="line"/>
      <point x="692.3173127368115" y="0.0" type="line"/>
      <point x="692.3173127368115" y="564.5285533857963" type="line" smooth="yes"/>
      <point x="692.3173127368115" y="724.4931844993635"/>
      <point x="593.9992280720348" y="838.0519480519481"/>
      <point x="503.613938485492" y="838.0519480519481" type="qcurve" smooth="yes"/>
      <point x="409.7274622394996" y="838.0519480519481"/>
      <point x="258.4526256527889" y="725.4664081124356"/>
      <point x="198.52085106382975" y="577.0927604310584" type="qcurve"/>
    </contour>
  </outline>
</glyph>
<glyph name="l" format="2">
  <advance width="390.7255319148936"/>
  <unicode hex="006C"/>
  <anchor x="195.1446808510638" y="0.0" name="bottom"/>
  <anchor x="195.1446808510638" y="791.0" name="center"/>
  <anchor x="195.1446808510638" y="1536.0" name="top"/>
  <anchor x="388.14468085106387" y="1052.0" name="topright"/>
  <anchor x="195.1446808510638" y="471.96000000000004" name="yu_dash"/>
  <outline>
    <contour>
      <point x="141.4" y="0.0" type="line"/>
      <point x="141.4" y="1536.0" type="line"/>
      <point x="249.32553191489362" y="1536.0" type="line"/>
      <point x="249.32553191489362" y="0.0" type="line"/>
    </contour>
  </outline>
</glyph>
<glyph name="n" format="2">
  <advance width="925.4428446517051"/>
  <unicode hex="006E"/>
  <anchor x="485.84893617021277" y="0.0" name="bottom"/>
  <anchor x="485.84893617021277" y="916.0" name="top"/>
  <anchor x="776.3063829787234" y="0.0" name="engtail"/>
  <outline>
    <contour>
      <point x="134.2" y="0.0" type="line"/>
      <point x="134.2" y="916.0" type="line"/>
      <point x="231.97659574468085" y="916.0" type="line"/>
      <point x="242.12553191489363" y="684.7588046850653" type="line"/>
      <point x="242.12553191489363" y="0.0" type="line"/>
    </contour>
    <contour>
      <point x="188.3808510638298" y="570.9294003868472" type="qcurve"/>
      <point x="188.3808510638298" y="687.0713105994365" type="line"/>
      <point x="249.40669386962014" y="821.3000582920432"/>
      <point x="435.0310016516079" y="936.0"/>
      <point x="538.7497425434761" y="936.0" type="qcurve" smooth="yes"/>
      <point x="661.5900709219859" y="936.0"/>
      <point x="800.242844651705" y="776.8347420577091"/>
      <point x="800.242844651705" y="565.0779656076945" type="qcurve" smooth="yes"/>
      <point x="800.242844651705" y="0.0" type="line"/>
      <point x="692.3173127368115" y="0.0" type="line"/>
      <point x="692.3173127368115" y="562.8427086369378" type="line" smooth="yes"/>
      <point x="692.3173127368115" y="719.2761768494792"/>
      <point x="595.4115509090152" y="838.0519480519481"/>
      <point x="502.22592923446905" y="838.0519480519481" type="qcurve" smooth="yes"/>
      <point x="411.0537853868662" y="838.0519480519481"/>
      <point x="257.81548827156524" y="726.6640864236317"/>
    </contour>
  </outline>
</glyph>
<glyph name="o" format="2">
  <advance width="950.2475468765181"/>
  <unicode hex="006F"/>
  <anchor x="492.8085106382979" y="0.0" name="bottom"/>
  <anchor x="492.8085106382979" y="458.0" name="center"/>
  <anchor x="645.8936170212767" y="0.0" name="ogonek"/>
  <anchor x="492.8085106382979" y="916.0" name="top"/>
  <anchor x="644.3297872340426" y="916.0" name="topright"/>
  <anchor x="134.4008510638298" y="470.04" name="yu_dash"/>
  <outline>
    <contour>
      <point x="77.5" y="428.6301369863014" type="qcurve" smooth="yes"/>
      <point x="77.5" y="487.3698630136986" type="line" smooth="yes"/>
      <point x="77.5" y="705.225333721947"/>
      <point x="290.3114252404547" y="946.0"/>
      <point x="475.12377343825904" y="946.0" type="qcurve" smooth="yes"/>
      <point x="659.9361216360633" y="946.0"/>
      <point x="872.747546876518" y="705.225333721947"/>
      <point x="872.747546876518" y="487.3698630136986" type="qcurve" smooth="yes"/>
      <point x="872.747546876518" y="428.6301369863014" type="line" smooth="yes"/>
      <point x="872.747546876518" y="210.77466627805305"/>
      <point x="659.9361216360633" y="-30.0"/>
      <point x="475.12377343825904" y="-30.0" type="qcurve" smooth="yes"/>
      <point x="290.3114252404547" y="-30.0"/>
      <point x="77.5" y="210.77466627805305"/>
    </contour>
    <contour>
      <point x="187.68085106382978" y="489.7808219178082" type="qcurve" smooth="yes"/>
      <point x="187.68085106382978" y="426.2191780821918" type="line" smooth="yes"/>
      <point x="187.68085106382978" y="251.60420328529918"/>
      <point x="339.0597705917904" y="65.50649350649351"/>
      <point x="475.12377343825904" y="65.50649350649351" type="qcurve" smooth="yes"/>
      <point x="611.1877762847275" y="65.50649350649351"/>
      <point x="762.5666958126883" y="251.60420328529918"/>
      <point x="762.5666958126883" y="426.2191780821918" type="qcurve" smooth="yes"/>
      <point x="762.5666958126883" y="489.7808219178082" type="line" smooth="yes"/>
      <point x="762.5666958126883" y="664.3957967147007"/>
      <point x="611.0416575632664" y="850.4935064935064"/>
      <point x="475.12377343825904" y="850.4935064935064" type="qcurve" smooth="yes"/>
      <point x="339.20588931325165" y="850.4935064935064"/>
      <point x="187.68085106382978" y="664.3957967147007"/>
    </contour>
  </outline>
</glyph>
<glyph name="p" format="2">
  <advance width="957.4182551248421"/>
  <unicode hex="0070"/>
  <anchor x="505.63617021276605" y="0.0" name="bottom"/>
  <anchor x="505.63617021276605" y="916.0" name="top"/>
  <outline>
    <contour>
      <point x="134.2" y="-416.0" type="line"/>
      <point x="134.2" y="916.0" type="line"/>
      <point x="231.97659574468085" y="916.0" type="line"/>
      <point x="236.4872340425532" y="779.0" type="line"/>
      <point x="242.12553191489363" y="779.0" type="line"/>
      <point x="242.12553191489363" y="-416.0" type="line"/>
    </contour>
    <contour>
      <point x="502.686699446478" y="75.50649350649351" type="qcurve" smooth="yes"/>
      <point x="614.7527214435229" y="75.50649350649351"/>
      <point x="769.7374040610123" y="267.1902010318449"/>
      <point x="769.7374040610123" y="430.57854474292833" type="qcurve" smooth="yes"/>
      <point x="769.7374040610123" y="486.97989681551326" type="line" smooth="yes"/>
      <point x="769.7374040610123" y="650.2381769731289"/>
      <point x="618.2372475557086" y="840.4935064935064"/>
      <point x="502.77981909278907" y="840.4935064935064" type="qcurve" smooth="yes"/>
      <point x="371.4836260174295" y="840.4935064935064"/>
      <point x="217.8808510638298" y="635.8997580249343"/>
      <point x="217.8808510638298" y="492.664946925221" type="qcurve" smooth="yes"/>
      <point x="217.8808510638298" y="442.8447488584475" type="line" smooth="yes"/>
      <point x="217.8808510638298" y="276.42486857163044"/>
      <point x="371.732808856353" y="75.50649350649351"/>
    </contour>
    <contour>
      <point x="526.8166042739928" y="-20.0" type="qcurve" smooth="yes"/>
      <point x="368.60609532894" y="-20.0"/>
      <point x="177.05106382978727" y="240.83220779220778"/>
      <point x="177.05106382978727" y="452.0" type="qcurve" smooth="yes"/>
      <point x="177.05106382978727" y="486.00000000000006" type="line" smooth="yes"/>
      <point x="177.05106382978727" y="672.0459574468084"/>
      <point x="369.0804333041873" y="936.0"/>
      <point x="527.2062146636031" y="936.0" type="qcurve" smooth="yes"/>
      <point x="680.9043213834645" y="936.0"/>
      <point x="879.9182551248421" y="693.7919382104342"/>
      <point x="879.9182551248421" y="485.68949771689495" type="qcurve" smooth="yes"/>
      <point x="879.9182551248421" y="430.31050228310505" type="line" smooth="yes"/>
      <point x="879.9182551248421" y="224.13146604488486"/>
      <point x="679.0493890817238" y="-20.0"/>
    </contour>
  </outline>
</glyph>
<glyph name="s" format="2">
  <advance width="811.8627708151172"/>
  <unicode hex="0073"/>
  <anchor x="431.26595744680856" y="0.0" name="bottom"/>
  <anchor x="427.7765957446809" y="916.0" name="top"/>
  <outline>
    <contour>
      <point x="73.0" y="296.4" type="line"/>
      <point x="180.9255319148936" y="296.4" type="line"/>
      <point x="180.9255319148936" y="287.0164383561644" type="line" smooth="yes"/>
      <point x="180.9255319148936" y="175.19938800925104"/>
      <point x="301.0837054308754" y="65.50649350649351"/>
      <point x="410.02142232585254" y="65.50649350649351" type="qcurve" smooth="yes"/>
      <point x="516.2391392208297" y="65.50649350649351"/>
      <point x="632.6287282619255" y="158.27938800925102"/>
      <point x="632.6287282619255" y="251.19269406392695" type="qcurve" smooth="yes"/>
      <point x="632.6287282619255" y="317.6795744680851"/>
      <point x="525.8118643738462" y="412.50444573982315"/>
      <point x="396.45807830564456" y="436.04488487321476" type="qcurve" smooth="yes"/>
      <point x="223.09176139123676" y="465.1467910230254"/>
      <point x="96.90848149227631" y="586.0553444088215"/>
      <point x="96.90848149227631" y="678.9224327212669" type="qcurve" smooth="yes"/>
      <point x="96.90848149227631" y="806.3419935878752"/>
      <point x="250.18693286699698" y="946.0"/>
      <point x="401.190372097542" y="946.0" type="qcurve" smooth="yes"/>
      <point x="555.5423219663849" y="946.0"/>
      <point x="709.7438550471193" y="787.6831225104439"/>
      <point x="709.8899737685805" y="642.1474205770911" type="qcurve" smooth="yes"/>
      <point x="709.8899737685805" y="630.8" type="line"/>
      <point x="602.528271640921" y="630.8" type="line"/>
      <point x="602.528271640921" y="643.5990867579909" type="line" smooth="yes"/>
      <point x="602.528271640921" y="742.3932111723893"/>
      <point x="501.11513261439814" y="850.4935064935064"/>
      <point x="401.26343145827263" y="850.4935064935064" type="qcurve" smooth="yes"/>
      <point x="303.6906305508346" y="850.4935064935064"/>
      <point x="203.77941319343245" y="762.7236861768368"/>
      <point x="203.77941319343245" y="683.3187214611872" type="qcurve" smooth="yes"/>
      <point x="203.77941319343245" y="628.234981055086"/>
      <point x="315.67128728261923" y="548.1528689400564"/>
      <point x="458.3913824929564" y="522.9848440687846" type="qcurve" smooth="yes"/>
      <point x="619.4850947245702" y="494.4168191975129"/>
      <point x="738.8627708151171" y="360.9023219663849"/>
      <point x="738.8627708151171" y="256.2465170504226" type="qcurve" smooth="yes"/>
      <point x="738.8627708151171" y="114.41247449723113"/>
      <point x="565.0400349752258" y="-30.0"/>
      <point x="410.02142232585254" y="-30.0" type="qcurve" smooth="yes"/>
      <point x="252.1120392499757" y="-30.0"/>
      <point x="73.0" y="126.73794812008163"/>
      <point x="73.0" y="286.5780821917808" type="qcurve" smooth="yes"/>
    </contour>
  </outline>
</glyph>
<glyph name="v" format="2">
  <advance width="842.418828329933"/>
  <unicode hex="0076"/>
  <anchor x="437.97872340425533" y="0.0" name="bottom"/>
  <anchor x="437.97872340425533" y="916.0" name="top"/>
  <outline>
    <contour>
      <point x="1.0" y="916.0" type="line"/>
      <point x="105.54255319148936" y="916.0" type="line"/>
      <point x="380.40440104925676" y="225.2875255027689" type="line" smooth="yes"/>
      <point x="396.07691829398624" y="186.64752550276887"/>
      <point x="414.55804915962307" y="115.28752550276889"/>
      <point x="419.6473817157292" y="95.28752550276884" type="qcurve"/>
      <point x="425.2820849120762" y="95.28752550276884" type="line"/>
      <point x="430.3714174681823" y="115.28752550276889"/>
      <point x="448.8525483338192" y="186.64752550276887"/>
      <point x="464.52506557854855" y="225.2875255027689" type="qcurve" smooth="yes"/>
      <point x="739.1315942873798" y="916.0" type="line"/>
      <point x="841.418828329933" y="916.0" type="line"/>
      <point x="463.82182065481396" y="0.0" type="line"/>
      <point x="377.2884970368211" y="0.0" type="line"/>
    </contour>
  </outline>
</glyph>
<glyph name="w" format="2">
  <advance width="1415.7412804818807"/>
  <unicode hex="0077"/>
  <anchor x="732.2446808510638" y="0.0" name="bottom"/>
  <anchor x="732.2446808510638" y="916.0" name="top"/>
  <outline>
    <contour>
      <point x="23.5" y="916.0" type="line"/>
      <point x="127.89643447002817" y="916.0" type="line"/>
      <point x="346.913922082969" y="240.931691440785" type="line" smooth="yes"/>
      <point x="359.65949868842904" y="202.29169144078497"/>
      <point x="371.41659380161275" y="147.27872340425535"/>
      <point x="380.8690372097542" y="107.2787234042553" type="qcurve"/>
      <point x="386.6498591275624" y="107.2787234042553" type="line"/>
      <point x="396.5384727484698" y="147.27872340425535"/>
      <point x="408.51693189546296" y="202.72786165355095"/>
      <point x="422.53628679685227" y="240.931691440785" type="qcurve" smooth="yes"/>
      <point x="662.0205965219081" y="916.0" type="line"/>
      <point x="755.5043233265326" y="916.0" type="line"/>
      <point x="1010.0566890119499" y="240.931691440785" type="line" smooth="yes"/>
      <point x="1025.0029845526085" y="202.29169144078497"/>
      <point x="1037.7076654036725" y="147.27872340425535"/>
      <point x="1047.742397746041" y="107.2787234042553" type="qcurve"/>
      <point x="1053.5232196638492" y="107.2787234042553" type="line"/>
      <point x="1062.3933741377637" y="147.27872340425535"/>
      <point x="1072.369647333139" y="201.61169144078497"/>
      <point x="1085.115223938599" y="240.931691440785" type="qcurve" smooth="yes"/>
      <point x="1293.4100845234625" y="915.563829787234" type="line"/>
      <point x="1392.2412804818807" y="915.563829787234" type="line"/>
      <point x="1090.9374817837365" y="0.0" type="line"/>
      <point x="1003.2905858350335" y="0.0" type="line"/>
      <point x="756.4622559020693" y="655.9478383367336" type="line" smooth="yes"/>
      <point x="741.3267307879141" y="694.5878383367337"/>
      <point x="719.9595841834257" y="778.8702127659575"/>
      <point x="709.0163703487808" y="818.8702127659575" type="qcurve"/>
      <point x="703.2355484309725" y="818.8702127659575" type="line"/>
      <point x="692.655445448363" y="778.8702127659575"/>
      <point x="672.669868842903" y="694.5878383367337"/>
      <point x="657.9705139415137" y="655.9478383367336" type="qcurve" smooth="yes"/>
      <point x="421.97337996696785" y="0.0" type="line"/>
      <point x="333.454143592733" y="0.0" type="line"/>
    </contour>
  </outline>
</glyph>
<glyph name="x" format="2">
  <advance width="854.213251724473"/>
  <unicode hex="0078"/>
  <anchor x="442.2021276595745" y="0.0" name="bottom"/>
  <anchor x="442.2021276595745" y="916.0" name="top"/>
  <anchor x="757.4574468085107" y="0.0" name="cy_descender"/>
  <outline>
    <contour>
      <point x="19.43617021276596" y="0.0" type="line"/>
      <point x="400.5269114932479" y="514.872340425532" type="line"/>
      <point x="406.2176236277082" y="514.872340425532" type="line"/>
      <point x="699.2308850675215" y="916.0" type="line"/>
      <point x="817.4737200038862" y="916.0" type="line"/>
      <point x="451.36374234916934" y="416.0" type="line"/>
      <point x="445.59997085397845" y="416.0" type="line"/>
      <point x="137.24283493636455" y="0.0" type="line"/>
    </contour>
    <contour>
      <point x="40.308510638297875" y="916.0" type="line"/>
      <point x="161.6287768386282" y="916.0" type="line"/>
      <point x="450.6390750995822" y="514.436170212766" type="line"/>
      <point x="454.78441659380167" y="514.436170212766" type="line"/>
      <point x="834.777081511707" y="0.0" type="line"/>
      <point x="713.8221121150297" y="0.0" type="line"/>
      <point x="406.0516370348781" y="416.0" type="line"/>
      <point x="401.8332361799281" y="416.0" type="line"/>
    </contour>
  </outline>
</glyph>
<glyph name="y" format="2">
  <advance width="822.0855921500049"/>
  <unicode hex="0079"/>
  <anchor x="734.3829787234043" y="0.0" name="bottom"/>
  <anchor x="440.1489361702128" y="916.0" name="top"/>
  <outline>
    <contour>
      <point x="6.38297872340425" y="-416.0" type="qcurve"/>
      <point x="6.38297872340425" y="-316.44155844155847" type="line"/>
      <point x="37.3747358247504" y="-326.3896103896104"/>
      <point x="91.69223378389802" y="-335.22077922077926"/>
      <point x="118.43980589506674" y="-335.22077922077926" type="qcurve" smooth="yes"/>
      <point x="190.30535378349424" y="-335.22077922077926"/>
      <point x="292.74101993411233" y="-215.69231831997791"/>
      <point x="372.6935295832119" y="20.574468085106382" type="qcurve"/>
      <point x="372.2573593704459" y="21.065238511609834" type="line"/>
      <point x="10.0" y="916.0" type="line"/>
      <point x="114.54255319148936" y="916.0" type="line"/>
      <point x="372.9931021082289" y="264.3212765957447" type="line" smooth="yes"/>
      <point x="388.90944914019246" y="225.6812765957447"/>
      <point x="409.49140192363734" y="152.57659574468087"/>
      <point x="417.9253861847858" y="122.57659574468084" type="qcurve"/>
      <point x="423.56008938113285" y="122.57659574468084" type="line"/>
      <point x="432.4848440687846" y="152.57659574468087"/>
      <point x="454.2375672787331" y="225.6812765957447"/>
      <point x="468.98314388419317" y="264.3212765957447" type="qcurve" smooth="yes"/>
      <point x="718.7983581074517" y="916.0" type="line"/>
      <point x="821.0855921500049" y="916.0" type="line"/>
      <point x="440.0439619158652" y="-60.61702127659575" type="line" smooth="yes"/>
      <point x="357.6185601865345" y="-277.28"/>
      <point x="226.4583211891577" y="-436.0"/>
      <point x="124.47501454146749" y="-436.0" type="qcurve" smooth="yes"/>
      <point x="92.16996798984557" y="-436.0"/>
      <point x="37.64586195889024" y="-426.77922077922074"/>
    </contour>
  </outline>
</glyph>
<glyph name="braceleft" format="2">
  <advance width="595.3883513067134"/>
  <unicode hex="007B"/>
  <outline>
    <contour>
      <point x="567.3883513067133" y="-312.0" type="line"/>
      <point x="370.58241523365393" y="-312.0"/>
      <point x="172.08722432721268" y="-62.99213057417663"/>
      <point x="214.31689497716897" y="123.0" type="qcurve" smooth="yes"/>
      <point x="262.4173515981735" y="334.0" type="line" smooth="yes"/>
      <point x="286.0314096959098" y="439.2553191489361"/>
      <point x="173.70439133391625" y="532.5454545454545"/>
      <point x="58.6" y="532.5454545454545" type="qcurve"/>
      <point x="58.6" y="615.8441558441559" type="line"/>
      <point x="173.70439133391625" y="615.8441558441559"/>
      <point x="286.0314096959098" y="708.7446808510639"/>
      <point x="262.4173515981735" y="814.0" type="qcurve" smooth="yes"/>
      <point x="214.31689497716897" y="1025.0" type="line" smooth="yes"/>
      <point x="170.9978917711066" y="1214.4705625182164"/>
      <point x="371.01858544641993" y="1460.0"/>
      <point x="567.3883513067133" y="1460.0" type="qcurve"/>
      <point x="567.3883513067133" y="1368.155844155844" type="line"/>
      <point x="413.74655591178475" y="1368.155844155844"/>
      <point x="283.6354073692751" y="1186.6704348308838"/>
      <point x="321.21959584183423" y="1025.0" type="qcurve" smooth="yes"/>
      <point x="369.75840862722237" y="814.0" type="line" smooth="yes"/>
      <point x="389.6101039541436" y="728.5453706402409"/>
      <point x="311.4109880501311" y="596.9468085106383"/>
      <point x="213.72071310599438" y="574.0" type="qcurve"/>
      <point x="311.4109880501311" y="551.0531914893617"/>
      <point x="389.6101039541436" y="419.45462935975905"/>
      <point x="369.75840862722237" y="334.0" type="qcurve" smooth="yes"/>
      <point x="321.21959584183423" y="123.0" type="line" smooth="yes"/>
      <point x="284.52487959917283" y="-35.1591057344482"/>
      <point x="413.74655591178475" y="-220.1558441558442"/>
      <point x="567.3883513067133" y="-220.1558441558442" type="qcurve"/>
    </contour>
  </outline>
</glyph>
<glyph name="exclamdown" format="2">
  <advance width="498.4382978723404"/>
  <unicode hex="00A1"/>
  <outline>
    <contour>
      <point x="330.0382978723404" y="1088.7659574468084" type="qcurve" smooth="yes"/>
      <point x="330.0382978723404" y="1056.776595744681"/>
      <point x="288.7191489361702" y="1011.2021276595744"/>
      <point x="249.2191489361702" y="1011.2021276595744" type="qcurve" smooth="yes"/>
      <point x="209.71914893617023" y="1011.2021276595744"/>
      <point x="168.39999999999998" y="1056.776595744681"/>
      <point x="168.39999999999998" y="1088.7659574468084" type="qcurve" smooth="yes"/>
      <point x="168.39999999999998" y="1120.755319148936"/>
      <point x="209.71914893617023" y="1166.3297872340427"/>
      <point x="249.2191489361702" y="1166.3297872340427" type="qcurve" smooth="yes"/>
      <point x="288.7191489361702" y="1166.3297872340427"/>
      <point x="330.0382978723404" y="1120.755319148936"/>
    </contour>
    <contour>
      <point x="296.76170212765953" y="740.0" type="line"/>
      <point x="305.2191489361702" y="-306.0" type="line"/>
      <point x="192.78297872340426" y="-306.0" type="line"/>
      <point x="201.24042553191492" y="740.0" type="line"/>
    </contour>
  </outline>
</glyph>
<glyph name="currency" format="2">
  <advance width="1102.6425531914895"/>
  <unicode hex="00A4"/>
  <guideline y="901.0" identifier="bRYxxRaQQf"/>
  <guideline y="555.0" identifier="917FhrihjR"/>
  <outline>
    <contour>
      <point x="233.3212765957447" y="712.436170212766" type="qcurve"/>
      <point x="233.3212765957447" y="530.3766233766233"/>
      <point x="409.1394584139265" y="311.83116883116884"/>
      <point x="548.3212765957446" y="311.83116883116884" type="qcurve" smooth="yes"/>
      <point x="686.5030947775629" y="311.83116883116884"/>
      <point x="861.3212765957447" y="530.3766233766233"/>
      <point x="861.3212765957447" y="712.0" type="qcurve" smooth="yes"/>
      <point x="861.3212765957447" y="894.3506493506494"/>
      <point x="686.5030947775629" y="1114.844155844156"/>
      <point x="548.3212765957446" y="1114.844155844156" type="qcurve" smooth="yes"/>
      <point x="409.1394584139265" y="1114.844155844156"/>
      <point x="233.3212765957447" y="894.3506493506494"/>
    </contour>
    <contour>
      <point x="127.08723404255319" y="716.2553191489362" type="qcurve"/>
      <point x="127.08723404255319" y="900.2872340425533"/>
      <point x="378.16170212765957" y="1151.2872340425533"/>
      <point x="547.7574468085106" y="1151.2872340425533" type="qcurve" smooth="yes"/>
      <point x="717.3531914893617" y="1151.2872340425533"/>
      <point x="967.5553191489362" y="900.2872340425533"/>
      <point x="967.5553191489362" y="715.8191489361702" type="qcurve" smooth="yes"/>
      <point x="967.5553191489362" y="531.9148936170213"/>
      <point x="717.3531914893617" y="277.47872340425533"/>
      <point x="547.7574468085106" y="277.47872340425533" type="qcurve" smooth="yes"/>
      <point x="378.16170212765957" y="277.47872340425533"/>
      <point x="127.08723404255319" y="531.9148936170213"/>
    </contour>
    <contour>
      <point x="1062.0978723404255" y="1145.031914893617" type="line"/>
      <point x="860.5340425531915" y="939.031914893617" type="line"/>
      <point x="738.5340425531915" y="1066.0319148936169" type="line"/>
      <point x="940.0978723404255" y="1272.031914893617" type="line"/>
    </contour>
    <contour>
      <point x="334.8" y="383.22340425531917" type="line"/>
      <point x="132.8" y="177.22340425531917" type="line"/>
      <point x="11.8" y="303.22340425531917" type="line"/>
      <point x="213.8" y="508.22340425531917" type="line"/>
    </contour>
    <contour>
      <point x="967.8425531914895" y="183.7872340425532" type="line"/>
      <point x="765.8425531914894" y="389.7872340425532" type="line"/>
      <point x="888.8425531914895" y="515.7872340425532" type="line"/>
      <point x="1090.8425531914895" y="310.7872340425532" type="line"/>
    </contour>
    <contour>
      <point x="236.47021276595746" y="950.4148936170213" type="line"/>
      <point x="34.47021276595745" y="1156.4148936170213" type="line"/>
      <point x="155.47021276595746" y="1282.4148936170213" type="line"/>
      <point x="357.4702127659574" y="1076.4148936170213" type="line"/>
    </contour>
  </outline>
</glyph>
<glyph name="guillemotleft" format="2">
  <advance width="991.6276595744681"/>
  <unicode hex="00AB"/>
  <guideline y="901.0" identifier="ZftBQarVKw"/>
  <guideline y="555.0" identifier="MVJpdoVRVd"/>
  <outline>
    <contour>
      <point x="98.20000000000002" y="530.7234042553191" type="line"/>
      <point x="98.20000000000002" y="572.2765957446809" type="line"/>
      <point x="310.32765957446816" y="949.0" type="line"/>
      <point x="472.3276595744681" y="949.0" type="line"/>
      <point x="214.3276595744681" y="551.0" type="line"/>
      <point x="472.3276595744681" y="153.0" type="line"/>
      <point x="310.32765957446816" y="153.0" type="line"/>
    </contour>
    <contour>
      <point x="538.2" y="530.7234042553191" type="line"/>
      <point x="538.2" y="572.2765957446809" type="line"/>
      <point x="750.327659574468" y="949.0" type="line"/>
      <point x="912.3276595744682" y="949.0" type="line"/>
      <point x="654.327659574468" y="551.0" type="line"/>
      <point x="912.3276595744682" y="153.0" type="line"/>
      <point x="750.327659574468" y="153.0" type="line"/>
    </contour>
  </outline>
</glyph>
<glyph name="logicalnot" format="2">
  <advance width="934.7063829787235"/>
  <unicode hex="00AC"/>
  <outline>
    <contour>
      <point x="847.3063829787235" y="801.0" type="line"/>
      <point x="847.3063829787235" y="376.0" type="line"/>
      <point x="743.8914893617023" y="376.0" type="line"/>
      <point x="743.8914893617023" y="637.0" type="line"/>
      <point x="53.2" y="637.0" type="line"/>
      <point x="53.2" y="801.0" type="line"/>
    </contour>
  </outline>
</glyph>
<glyph name="registered" format="2">
  <advance width="1648.4"/>
  <unicode hex="00AE"/>
  <outline>
    <contour>
      <point x="35.2" y="687.0" type="qcurve" smooth="yes"/>
      <point x="35.2" y="1039.0000000000002"/>
      <point x="498.20000000000005" y="1519.0"/>
      <point x="824.2" y="1519.0" type="qcurve" smooth="yes"/>
      <point x="1149.1999999999998" y="1519.0"/>
      <point x="1613.2" y="1039.0000000000002"/>
      <point x="1613.2" y="687.0" type="qcurve" smooth="yes"/>
      <point x="1613.2" y="337.0"/>
      <point x="1149.1999999999998" y="-147.0"/>
      <point x="824.2" y="-147.0" type="qcurve" smooth="yes"/>
      <point x="498.20000000000005" y="-147.0"/>
      <point x="35.2" y="337.0"/>
    </contour>
    <contour>
      <point x="183.2" y="687.0" type="qcurve" smooth="yes"/>
      <point x="183.2" y="356.75324675324674"/>
      <point x="543.0571428571428" y="-52.103896103896105"/>
      <point x="825.2" y="-52.103896103896105" type="qcurve" smooth="yes"/>
      <point x="1106.7324675324676" y="-52.103896103896105"/>
      <point x="1466.2" y="356.75324675324674"/>
      <point x="1466.2" y="687.0" type="qcurve" smooth="yes"/>
      <point x="1466.2" y="1017.8571428571429"/>
      <point x="1106.7324675324676" y="1423.4935064935066"/>
      <point x="825.2" y="1423.4935064935066" type="qcurve" smooth="yes"/>
      <point x="543.0571428571428" y="1423.4935064935066"/>
      <point x="183.2" y="1017.8571428571429"/>
    </contour>
    <contour>
      <point x="531.0936170212766" y="225.0" type="line"/>
      <point x="531.0936170212766" y="1158.0" type="line"/>
      <point x="797.263829787234" y="1158.0" type="line" smooth="yes"/>
      <point x="953.9978723404255" y="1158.0"/>
      <point x="1140.1148936170212" y="1018.0"/>
      <point x="1140.1148936170212" y="873.0744680851064" type="qcurve" smooth="yes"/>
      <point x="1140.1148936170212" y="763.9999999999999"/>
      <point x="984.3808510638298" y="597.0"/>
      <point x="855.5936170212767" y="597.0" type="qcurve" smooth="yes"/>
      <point x="585.5297872340425" y="597.0" type="line"/>
      <point x="585.5297872340425" y="685.7922077922078" type="line"/>
      <point x="867.3170212765958" y="685.7922077922078" type="line" smooth="yes"/>
      <point x="943.4339043934788" y="685.7922077922078"/>
      <point x="1035.0085106382978" y="772.012987012987"/>
      <point x="1035.0085106382978" y="862.9255319148936" type="qcurve" smooth="yes"/>
      <point x="1035.0085106382978" y="963.3766233766233"/>
      <point x="950.576761536336" y="1062.9296767062724"/>
      <point x="842.3170212765957" y="1063.1038961038962" type="qcurve" smooth="yes"/>
      <point x="627.1787234042554" y="1063.1038961038962" type="line"/>
      <point x="627.1787234042554" y="225.0" type="line"/>
    </contour>
    <contour>
      <point x="1072.785106382979" y="225.0" type="line"/>
      <point x="859.0876761536335" y="643.5584415584417" type="line"/>
      <point x="919.1563415308096" y="654.9037026802985" type="line"/>
      <point x="949.9692732799117" y="622.7120751588836"/>
      <point x="995.1255319148936" y="556.8191489361702"/>
      <point x="1011.2531914893617" y="528.2553191489362" type="qcurve" smooth="yes"/>
      <point x="1176.763829787234" y="235.14893617021278" type="line"/>
      <point x="1176.763829787234" y="225.0" type="line"/>
    </contour>
  </outline>
</glyph>
<glyph name="degree" format="2">
  <advance width="636.4191489361701"/>
  <unicode hex="00B0"/>
  <outline>
    <contour>
      <point x="117.37148936170215" y="1269.776595744681" type="qcurve"/>
      <point x="117.37148936170215" y="1356.148936170213"/>
      <point x="236.53106382978723" y="1477.0"/>
      <point x="321.3395744680851" y="1477.0" type="qcurve" smooth="yes"/>
      <point x="404.71191489361706" y="1477.0"/>
      <point x="521.3076595744681" y="1356.1286376627288"/>
      <point x="521.3076595744681" y="1269.776595744681" type="qcurve" smooth="yes"/>
      <point x="521.3076595744681" y="1183.9056017783748"/>
      <point x="404.701765639909" y="1065.9893617021276"/>
      <point x="321.3395744680851" y="1065.9893617021276" type="qcurve" smooth="yes"/>
      <point x="236.71375039693925" y="1065.9893617021276"/>
      <point x="117.37148936170215" y="1183.7127659574467"/>
    </contour>
    <contour>
      <point x="190.33957446808512" y="1269.776595744681" type="qcurve"/>
      <point x="190.33957446808512" y="1188.8635114012795"/>
      <point x="262.7072568904458" y="1094.0699088145898"/>
      <point x="321.3395744680851" y="1094.0699088145898" type="qcurve" smooth="yes"/>
      <point x="378.3203308409718" y="1094.0699088145898"/>
      <point x="448.3395744680851" y="1188.8635114012795"/>
      <point x="448.3395744680851" y="1269.776595744681" type="qcurve" smooth="yes"/>
      <point x="448.3395744680851" y="1352.3429233770146"/>
      <point x="378.3203308409718" y="1448.9194528875378"/>
      <point x="321.3395744680851" y="1448.9194528875378" type="qcurve" smooth="yes"/>
      <point x="262.7072568904458" y="1448.9194528875378"/>
      <point x="190.33957446808512" y="1352.3429233770146"/>
    </contour>
  </outline>
</glyph>
<glyph name="plusminus" format="2">
  <advance width="937.8340425531915"/>
  <unicode hex="00B1"/>
  <outline>
    <contour>
      <point x="52.30000000000001" y="611.0" type="line"/>
      <point x="52.30000000000001" y="775.0" type="line"/>
      <point x="885.5340425531915" y="775.0" type="line"/>
      <point x="885.5340425531915" y="611.0" type="line"/>
    </contour>
    <contour>
      <point x="417.30000000000007" y="248.0" type="line"/>
      <point x="417.30000000000007" y="1160.0" type="line"/>
      <point x="521.8425531914893" y="1160.0" type="line"/>
      <point x="521.8425531914893" y="248.0" type="line"/>
    </contour>
    <contour>
      <point x="52.30000000000001" y="1.0" type="line"/>
      <point x="52.30000000000001" y="165.0" type="line"/>
      <point x="885.5340425531915" y="165.0" type="line"/>
      <point x="885.5340425531915" y="1.0" type="line"/>
    </contour>
  </outline>
</glyph>
<glyph name="twosuperior" format="2">
  <advance width="594.1276595744681"/>
  <unicode hex="00B2"/>
  <outline>
    <contour>
      <point x="74.81063829787233" y="697.0" type="line"/>
      <point x="74.81063829787233" y="805.0000000000001" type="line"/>
      <point x="312.65106382978723" y="1040.521276595745" type="line" smooth="yes"/>
      <point x="367.8744680851064" y="1095.5425531914893"/>
      <point x="399.38510638297873" y="1198.5531914893618"/>
      <point x="399.38510638297873" y="1249.0" type="qcurve" smooth="yes"/>
      <point x="399.38510638297873" y="1321.935064935065"/>
      <point x="345.0474440453164" y="1399.2077922077922"/>
      <point x="288.38510638297873" y="1399.2077922077922" type="qcurve" smooth="yes"/>
      <point x="225.3331583310307" y="1399.2077922077922"/>
      <point x="163.38510638297873" y="1305.2077922077924"/>
      <point x="163.38510638297873" y="1208.0" type="qcurve" smooth="yes"/>
      <point x="163.38510638297873" y="1198.0" type="line"/>
      <point x="68.99148936170212" y="1198.0" type="line"/>
      <point x="68.99148936170212" y="1208.0" type="line" smooth="yes"/>
      <point x="68.99148936170212" y="1339.0"/>
      <point x="176.73617021276598" y="1487.0"/>
      <point x="290.38510638297873" y="1487.0" type="qcurve" smooth="yes"/>
      <point x="396.47021276595746" y="1487.0"/>
      <point x="502.23617021276596" y="1359.0"/>
      <point x="502.23617021276596" y="1250.127659574468" type="qcurve" smooth="yes"/>
      <point x="502.23617021276596" y="1171.872340425532"/>
      <point x="435.89574468085107" y="1048.0"/>
      <point x="368.831914893617" y="984.5212765957449" type="qcurve" smooth="yes"/>
      <point x="227.32127659574468" y="845.0" type="line"/>
      <point x="531.9276595744681" y="845.0" type="line"/>
      <point x="531.9276595744681" y="697.0" type="line"/>
    </contour>
  </outline>
</glyph>
<glyph name="threesuperior" format="2">
  <advance width="602.6510638297873"/>
  <unicode hex="00B3"/>
  <outline>
    <contour>
      <point x="57.7" y="920.0" type="qcurve" smooth="yes"/>
      <point x="57.7" y="923.0000000000001" type="line"/>
      <point x="149.2744680851064" y="923.0000000000001" type="line"/>
      <point x="149.2744680851064" y="920.0" type="line" smooth="yes"/>
      <point x="149.2744680851064" y="850.0649350649351"/>
      <point x="227.71602652666485" y="772.9610389610389"/>
      <point x="295.2744680851064" y="772.9610389610389" type="qcurve" smooth="yes"/>
      <point x="362.3264161370544" y="772.9610389610389"/>
      <point x="428.2744680851064" y="851.4545454545455"/>
      <point x="428.2744680851064" y="923.2553191489362" type="qcurve" smooth="yes"/>
      <point x="428.2744680851064" y="988.5194805194806"/>
      <point x="351.88485769549607" y="1052.935064935065"/>
      <point x="279.27446808510643" y="1053.5454545454545" type="qcurve" smooth="yes"/>
      <point x="195.2744680851064" y="1053.5454545454545" type="line"/>
      <point x="195.2744680851064" y="1130.7402597402597" type="line"/>
      <point x="279.27446808510643" y="1130.7402597402597" type="line" smooth="yes"/>
      <point x="348.93680574744417" y="1130.7402597402597"/>
      <point x="415.27446808510643" y="1196.4805194805197"/>
      <point x="415.27446808510643" y="1256.3085106382978" type="qcurve" smooth="yes"/>
      <point x="415.27446808510643" y="1323.935064935065"/>
      <point x="357.3783641890026" y="1400.0389610389611"/>
      <point x="292.27446808510643" y="1400.0389610389611" type="qcurve" smooth="yes"/>
      <point x="232.54719535783366" y="1400.0389610389611"/>
      <point x="160.27446808510638" y="1324.3246753246754"/>
      <point x="160.27446808510638" y="1256.0" type="qcurve" smooth="yes"/>
      <point x="160.27446808510638" y="1252.0" type="line"/>
      <point x="68.69999999999999" y="1252.0" type="line"/>
      <point x="68.69999999999999" y="1256.0" type="line" smooth="yes"/>
      <point x="68.69999999999999" y="1357.0"/>
      <point x="197.7531914893617" y="1487.0"/>
      <point x="287.9659574468085" y="1487.0" type="qcurve" smooth="yes"/>
      <point x="386.9978723404255" y="1487.0"/>
      <point x="514.1787234042554" y="1372.0"/>
      <point x="514.1787234042554" y="1260.8191489361702" type="qcurve" smooth="yes"/>
      <point x="514.1787234042554" y="1212.0"/>
      <point x="460.7744680851064" y="1119.563829787234"/>
      <point x="411.2425531914893" y="1098.0" type="qcurve"/>
      <point x="411.2425531914893" y="1097.0" type="line"/>
      <point x="469.95531914893616" y="1073.0"/>
      <point x="526.0510638297873" y="981.0000000000001"/>
      <point x="526.0510638297873" y="918.7446808510639" type="qcurve" smooth="yes"/>
      <point x="526.0510638297873" y="807.0"/>
      <point x="389.30638297872343" y="686.0"/>
      <point x="288.9659574468085" y="686.0" type="qcurve" smooth="yes"/>
      <point x="186.0617021276596" y="686.0"/>
      <point x="57.7" y="802.0"/>
    </contour>
  </outline>
</glyph>
<glyph name="micro" format="2">
  <advance width="1037.6510638297873"/>
  <unicode hex="00B5"/>
  <outline>
    <contour>
      <point x="247.2" y="1052.0" type="line"/>
      <point x="355.1255319148936" y="1052.0" type="line"/>
      <point x="223.1255319148936" y="371.0" type="line" smooth="yes"/>
      <point x="198.1255319148936" y="245.0"/>
      <point x="258.1774799668417" y="77.94805194805195"/>
      <point x="362.1774799668417" y="77.94805194805195" type="qcurve" smooth="yes"/>
      <point x="455.0735838629456" y="77.94805194805195"/>
      <point x="626.8268306161923" y="173.5584415584416"/>
      <point x="679.8268306161922" y="251.50649350649348" type="qcurve"/>
      <point x="835.1255319148936" y="1052.0" type="line"/>
      <point x="943.0510638297872" y="1052.0" type="line"/>
      <point x="739.4872340425532" y="0.0" type="line"/>
      <point x="641.7106382978724" y="0.0" type="line"/>
      <point x="663.2" y="135.0" type="line"/>
      <point x="659.8170212765958" y="135.0" type="line"/>
      <point x="589.6893617021276" y="62.56382978723404"/>
      <point x="409.12553191489366" y="-20.0"/>
      <point x="309.1255319148936" y="-20.0" type="qcurve" smooth="yes"/>
      <point x="263.1255319148936" y="-20.0"/>
      <point x="188.12553191489366" y="15.0"/>
      <point x="159.12553191489363" y="42.0" type="qcurve"/>
      <point x="71.1255319148936" y="-416.0" type="line"/>
      <point x="-36.800000000000004" y="-416.0" type="line"/>
    </contour>
  </outline>
</glyph>
<glyph name="paragraph" format="2">
  <advance width="1106.5489361702128"/>
  <unicode hex="00B6"/>
  <guideline y="901.0" identifier="27539Lsr1A"/>
  <guideline y="555.0" identifier="e34wUdCmXR"/>
  <outline>
    <contour>
      <point x="597.5489361702128" y="-146.0" type="line"/>
      <point x="411.54893617021276" y="-146.0" type="line"/>
      <point x="411.54893617021276" y="898.3829787234042" type="line"/>
      <point x="347.66595744680853" y="898.3829787234042" type="line" smooth="yes"/>
      <point x="204.57021276595748" y="898.3829787234042"/>
      <point x="51.400000000000006" y="1056.808510638298"/>
      <point x="51.400000000000006" y="1177.1914893617022" type="qcurve" smooth="yes"/>
      <point x="51.400000000000006" y="1296.0106382978724"/>
      <point x="204.57021276595748" y="1456.0"/>
      <point x="347.66595744680853" y="1456.0" type="qcurve" smooth="yes"/>
      <point x="597.5489361702128" y="1456.0" type="line"/>
    </contour>
    <contour>
      <point x="739.5489361702128" y="1459.0" type="line"/>
      <point x="925.5489361702128" y="1459.0" type="line"/>
      <point x="925.5489361702128" y="-146.0" type="line"/>
      <point x="739.5489361702128" y="-146.0" type="line"/>
    </contour>
  </outline>
</glyph>
<glyph name="periodcentered" format="2">
  <advance width="566.8000000000001"/>
  <unicode hex="00B7"/>
  <outline>
    <contour>
      <point x="202.58085106382978" y="749.0" type="qcurve" smooth="yes"/>
      <point x="202.58085106382978" y="780.9893617021277"/>
      <point x="244.33617021276598" y="826.563829787234"/>
      <point x="283.40000000000003" y="826.563829787234" type="qcurve" smooth="yes"/>
      <point x="322.46382978723403" y="826.563829787234"/>
      <point x="364.2191489361702" y="780.9893617021277"/>
      <point x="364.2191489361702" y="749.0" type="qcurve" smooth="yes"/>
      <point x="364.2191489361702" y="717.0106382978724"/>
      <point x="322.46382978723403" y="671.436170212766"/>
      <point x="283.40000000000003" y="671.436170212766" type="qcurve" smooth="yes"/>
      <point x="244.33617021276598" y="671.436170212766"/>
      <point x="202.58085106382978" y="717.0106382978724"/>
    </contour>
  </outline>
</glyph>
<glyph name="ordmasculine" format="2">
  <advance width="773.5510638297873"/>
  <unicode hex="00BA"/>
  <guideline y="1975.0" identifier="Jnt0R9CyOf"/>
  <outline>
    <contour>
      <point x="112.60000000000001" y="1043.0" type="qcurve"/>
      <point x="112.60000000000001" y="1124.0" type="line"/>
      <point x="112.60000000000001" y="1278.0"/>
      <point x="261.3978723404255" y="1477.0"/>
      <point x="386.55744680851063" y="1477.0" type="qcurve" smooth="yes"/>
      <point x="512.7170212765957" y="1477.0"/>
      <point x="660.9510638297874" y="1278.0"/>
      <point x="660.9510638297874" y="1124.0" type="qcurve"/>
      <point x="660.9510638297874" y="1043.0" type="line"/>
      <point x="660.9510638297874" y="889.0"/>
      <point x="513.7170212765958" y="691.0"/>
      <point x="388.55744680851063" y="691.0" type="qcurve" smooth="yes"/>
      <point x="262.3978723404255" y="691.0"/>
      <point x="112.60000000000001" y="889.0"/>
    </contour>
    <contour>
      <point x="207.5574468085107" y="1124.0" type="qcurve"/>
      <point x="207.5574468085107" y="1043.0" type="line"/>
      <point x="207.5574468085107" y="928.6233766233767"/>
      <point x="301.6223818734457" y="778.5714285714287"/>
      <point x="388.55744680851063" y="778.5714285714287" type="qcurve" smooth="yes"/>
      <point x="473.27173252279636" y="778.5714285714287"/>
      <point x="566.5574468085106" y="928.6233766233767"/>
      <point x="566.5574468085106" y="1043.0" type="qcurve"/>
      <point x="566.5574468085106" y="1124.0" type="line"/>
      <point x="566.5574468085106" y="1237.155844155844"/>
      <point x="472.2717325227964" y="1388.2077922077922"/>
      <point x="386.55744680851063" y="1388.2077922077922" type="qcurve" smooth="yes"/>
      <point x="301.23277148383534" y="1388.2077922077922"/>
      <point x="207.5574468085107" y="1237.155844155844"/>
    </contour>
  </outline>
</glyph>
<glyph name="questiondown" format="2">
  <advance width="798.0148936170212"/>
  <unicode hex="00BF"/>
  <guideline y="-181.0" identifier="apukwP5ffL"/>
  <guideline y="921.0" identifier="5ZPZZL8Rim"/>
  <outline>
    <contour>
      <point x="518.7808510638298" y="1047.5106382978724" type="qcurve" smooth="yes"/>
      <point x="518.7808510638298" y="1015.5212765957447"/>
      <point x="477.0255319148936" y="969.9468085106383"/>
      <point x="437.9617021276596" y="969.9468085106383" type="qcurve" smooth="yes"/>
      <point x="398.8978723404256" y="969.9468085106383"/>
      <point x="357.14255319148936" y="1015.5212765957447"/>
      <point x="357.14255319148936" y="1047.5106382978724" type="qcurve" smooth="yes"/>
      <point x="357.14255319148936" y="1079.5"/>
      <point x="398.8978723404256" y="1125.0744680851064"/>
      <point x="437.9617021276596" y="1125.0744680851064" type="qcurve" smooth="yes"/>
      <point x="477.0255319148936" y="1125.0744680851064"/>
      <point x="518.7808510638298" y="1079.5"/>
    </contour>
    <contour>
      <point x="743.0148936170212" y="53.0" type="line"/>
      <point x="743.0148936170212" y="33.0" type="line" smooth="yes"/>
      <point x="743.0148936170212" y="-132.0"/>
      <point x="564.8872340425532" y="-328.00000000000006"/>
      <point x="411.52553191489363" y="-328.00000000000006" type="qcurve" smooth="yes"/>
      <point x="258.6" y="-328.00000000000006"/>
      <point x="85.6" y="-122.0"/>
      <point x="85.6" y="48.0" type="qcurve" smooth="yes"/>
      <point x="85.6" y="181.12765957446808"/>
      <point x="196.96170212765955" y="355.97872340425533"/>
      <point x="272.8872340425532" y="427.3936170212766" type="qcurve" smooth="yes"/>
      <point x="350.90851063829786" y="500.904255319149"/>
      <point x="391.9085106382979" y="620.9255319148937"/>
      <point x="391.9085106382979" y="701.8297872340426" type="qcurve" smooth="yes"/>
      <point x="391.9085106382979" y="738.0" type="line"/>
      <point x="499.83404255319147" y="738.0" type="line"/>
      <point x="499.83404255319147" y="701.8297872340426" type="line" smooth="yes"/>
      <point x="499.83404255319147" y="589.9148936170213"/>
      <point x="447.17446808510635" y="461.1808510638298"/>
      <point x="361.64255319148936" y="375.468085106383" type="qcurve" smooth="yes"/>
      <point x="279.2063829787234" y="293.59574468085106"/>
      <point x="193.5255319148936" y="161.52127659574467"/>
      <point x="193.5255319148936" y="48.0" type="qcurve" smooth="yes"/>
      <point x="193.5255319148936" y="-82.3896103896104"/>
      <point x="302.6012434374137" y="-226.38961038961043"/>
      <point x="410.6531914893617" y="-226.38961038961043" type="qcurve" smooth="yes"/>
      <point x="519.873970710141" y="-226.38961038961043"/>
      <point x="635.6531914893617" y="-91.6103896103896"/>
      <point x="635.6531914893617" y="33.0" type="qcurve" smooth="yes"/>
      <point x="635.6531914893617" y="53.0" type="line"/>
    </contour>
  </outline>
</glyph>
<glyph name="multiply" format="2">
  <advance width="1008.5"/>
  <unicode hex="00D7"/>
  <outline>
    <contour>
      <point x="184.12" y="237.0" type="line"/>
      <point x="76.12" y="349.0" type="line"/>
      <point x="814.1200000000001" y="1104.0" type="line"/>
      <point x="922.1200000000001" y="991.0" type="line"/>
    </contour>
    <contour>
      <point x="830.5455319148937" y="262.29787234042556" type="line"/>
      <point x="103.54553191489362" y="1005.2978723404256" type="line"/>
      <point x="172.82212765957445" y="1077.3936170212764" type="line"/>
      <point x="899.8221276595744" y="333.39361702127655" type="line"/>
    </contour>
  </outline>
</glyph>
<glyph name="Thorn" format="2">
  <advance width="994.7234042553191"/>
  <unicode hex="00DE"/>
  <guideline y="901.0" identifier="i9jYwjBDP4"/>
  <guideline y="555.0" identifier="T8KKW8oxop"/>
  <outline>
    <contour>
      <point x="154.0" y="0.0" type="line"/>
      <point x="154.0" y="1456.0" type="line"/>
      <point x="261.36170212765956" y="1456.0" type="line"/>
      <point x="261.36170212765956" y="0.0" type="line"/>
    </contour>
    <contour>
      <point x="215.38297872340428" y="314.436170212766" type="line"/>
      <point x="215.38297872340428" y="408.8961038961039" type="line"/>
      <point x="539.3617021276596" y="408.8961038961039" type="line" smooth="yes"/>
      <point x="693.9071566731141" y="408.8961038961039"/>
      <point x="841.3617021276596" y="577.5064935064936"/>
      <point x="841.3617021276596" y="736.8723404255319" type="qcurve" smooth="yes"/>
      <point x="841.3617021276596" y="895.2727272727273"/>
      <point x="693.9071566731141" y="1068.1038961038962"/>
      <point x="539.3617021276596" y="1068.1038961038962" type="qcurve" smooth="yes"/>
      <point x="215.38297872340428" y="1068.1038961038962" type="line"/>
      <point x="215.38297872340428" y="1163.0" type="line"/>
      <point x="524.968085106383" y="1163.0" type="line" smooth="yes"/>
      <point x="729.0" y="1163.0"/>
      <point x="948.7234042553191" y="935.436170212766"/>
      <point x="948.7234042553191" y="738.0" type="qcurve" smooth="yes"/>
      <point x="948.7234042553191" y="541.436170212766"/>
      <point x="729.0" y="314.436170212766"/>
      <point x="524.968085106383" y="314.436170212766" type="qcurve" smooth="yes"/>
    </contour>
  </outline>
</glyph>
<glyph name="germandbls" format="2">
  <advance width="1016.6127659574468"/>
  <unicode hex="00DF"/>
  <outline>
    <contour>
      <point x="240.99787234042552" y="1092.0" type="qcurve" name="hr00"/>
      <point x="240.99787234042552" y="0.0" type="line"/>
      <point x="134.2" y="0.0" type="line"/>
      <point x="134.2" y="1092.0" type="line" smooth="yes"/>
      <point x="134.2" y="1301.9787234042553"/>
      <point x="305.1255319148936" y="1534.0"/>
      <point x="460.6947499309201" y="1534.0" type="qcurve" smooth="yes"/>
      <point x="597.0297872340425" y="1534.0"/>
      <point x="752.7212765957447" y="1352.352340425532"/>
      <point x="752.7212765957447" y="1181.68" type="qcurve" smooth="yes"/>
      <point x="752.7212765957447" y="1077.9612765957447"/>
      <point x="701.1931914893617" y="926.1340425531915"/>
      <point x="663.3208510638298" y="865.172340425532" type="qcurve" smooth="yes"/>
      <point x="635.1191489361702" y="821.6051063829788"/>
      <point x="597.851914893617" y="743.231914893617"/>
      <point x="597.851914893617" y="707.356170212766" type="qcurve" smooth="yes"/>
      <point x="597.851914893617" y="656.7527659574469"/>
      <point x="657.2604255319148" y="585.7378723404256"/>
      <point x="772.8995744680851" y="525.035744680851" type="qcurve" smooth="yes"/>
      <point x="880.936170212766" y="479.1859574468085"/>
      <point x="973.7212765957447" y="365.8140425531915"/>
      <point x="973.7212765957447" y="275.7634042553192" type="qcurve" smooth="yes"/>
      <point x="973.7212765957447" y="150.8936170212766"/>
      <point x="800.6468085106383" y="-20.0"/>
      <point x="662.8702127659575" y="-20.0" type="qcurve" smooth="yes"/>
      <point x="527.2212765957447" y="-20.0"/>
      <point x="369.0404255319149" y="136.85106382978725"/>
      <point x="369.0404255319149" y="285.4148936170213" type="qcurve" smooth="yes"/>
      <point x="369.0404255319149" y="304.0" type="line"/>
      <point x="463.99787234042554" y="304.0" type="line"/>
      <point x="463.99787234042554" y="295.0" type="line" smooth="yes"/>
      <point x="463.99787234042554" y="186.0649350649351"/>
      <point x="568.6082619508151" y="74.8961038961039"/>
      <point x="663.9978723404256" y="74.8961038961039" type="qcurve" smooth="yes"/>
      <point x="764.6082619508152" y="74.8961038961039"/>
      <point x="871.9978723404256" y="176.54649350649348"/>
      <point x="871.9978723404256" y="272.76" type="qcurve" smooth="yes"/>
      <point x="871.9978723404256" y="331.2646808510639"/>
      <point x="779.3995744680851" y="415.1651063829787"/>
      <point x="716.2795744680852" y="444.8451063829787" type="qcurve" smooth="yes"/>
      <point x="600.2748936170212" y="503.65191489361706"/>
      <point x="489.4446808510638" y="607.8331914893618"/>
      <point x="489.4446808510638" y="674.4697872340425" type="qcurve" smooth="yes"/>
      <point x="489.4446808510638" y="725.9540425531915"/>
      <point x="537.28" y="837.1736170212766"/>
      <point x="567.9578723404256" y="883.88" type="qcurve" smooth="yes"/>
      <point x="603.1672340425532" y="939.5578723404254"/>
      <point x="650.9978723404256" y="1090.6093617021277"/>
      <point x="650.9978723404256" y="1172.0778723404255" type="qcurve" smooth="yes"/>
      <point x="650.9978723404256" y="1312.303896103896"/>
      <point x="555.4139762365295" y="1439.1038961038962"/>
      <point x="459.9978723404255" y="1439.1038961038962" type="qcurve" smooth="yes"/>
      <point x="356.7013815971263" y="1439.1038961038962"/>
      <point x="240.99787234042552" y="1264.3300635534679"/>
    </contour>
  </outline>
</glyph>
<glyph name="ae" format="2">
  <advance width="1521.4680851063831"/>
  <unicode hex="00E6"/>
  <anchor x="774.2340425531914" y="1052.0" name="top"/>
  <outline>
    <contour>
      <point x="386.17021276595744" y="-20.43617021276596" type="qcurve" smooth="yes"/>
      <point x="244.08340425531915" y="-20.43617021276596"/>
      <point x="80.69148936170212" y="132.56382978723406"/>
      <point x="80.69148936170212" y="281.0872340425532" type="qcurve" smooth="yes"/>
      <point x="80.69148936170212" y="413.12382978723406"/>
      <point x="282.4646808510638" y="573.2"/>
      <point x="462.2127659574469" y="573.2" type="qcurve" smooth="yes"/>
      <point x="741.7978723404256" y="573.2" type="line"/>
      <point x="741.7978723404256" y="489.90129870129874" type="line"/>
      <point x="472.6170212765957" y="489.90129870129874" type="line" smooth="yes"/>
      <point x="335.82585244542696" y="489.90129870129874"/>
      <point x="188.61702127659572" y="384.56850511190936"/>
      <point x="188.61702127659572" y="285.56382978723406" type="qcurve" smooth="yes"/>
      <point x="188.61702127659572" y="183.64071290411715"/>
      <point x="300.1042940038685" y="73.40798563138989"/>
      <point x="402.6170212765957" y="73.40798563138989" type="qcurve" smooth="yes"/>
      <point x="514.6570212765957" y="73.40798563138989"/>
      <point x="690.6170212765958" y="211.8079856313899"/>
      <point x="690.6170212765958" y="296.8079856313899" type="qcurve"/>
      <point x="690.6170212765958" y="583.563829787234" type="line" smooth="yes"/>
      <point x="690.6170212765958" y="708.1742193976238"/>
      <point x="586.7728654324399" y="852.4988947222992"/>
      <point x="472.6170212765957" y="852.4988947222992" type="qcurve" smooth="yes"/>
      <point x="366.5219563415308" y="852.4988947222992"/>
      <point x="249.61702127659572" y="757.711881735286"/>
      <point x="249.61702127659572" y="667.563829787234" type="qcurve" smooth="yes"/>
      <point x="249.61702127659572" y="662.563829787234" type="line"/>
      <point x="142.25531914893617" y="662.563829787234" type="line"/>
      <point x="142.25531914893617" y="667.563829787234" type="line" smooth="yes"/>
      <point x="142.25531914893617" y="785.0838297872341"/>
      <point x="337.59787234042557" y="945.563829787234"/>
      <point x="486.34042553191495" y="945.563829787234" type="qcurve" smooth="yes"/>
      <point x="602.0634042553193" y="945.563829787234"/>
      <point x="741.9276595744682" y="847.68"/>
      <point x="770.7753191489361" y="767.9599999999999" type="qcurve"/>
      <point x="804.2344680851063" y="843.9200000000001"/>
      <point x="962.8446808510639" y="946.0"/>
      <point x="1081.0948936170214" y="946.0" type="qcurve" smooth="yes"/>
      <point x="1257.711914893617" y="946.0"/>
      <point x="1451.7651063829787" y="700.72"/>
      <point x="1450.456595744681" y="492.0" type="qcurve" smooth="yes"/>
      <point x="1450.456595744681" y="442.8831168831169" type="line"/>
      <point x="751.3714893617022" y="442.8831168831169" type="line"/>
      <point x="751.3714893617022" y="535.948051948052" type="line"/>
      <point x="1340.7748936170215" y="535.948051948052" type="line"/>
      <point x="1340.6587234042554" y="574.4000000000001" type="line"/>
      <point x="1340.385283227411" y="700.2457142857143"/>
      <point x="1214.7780105001382" y="850.4935064935064"/>
      <point x="1085.5748936170212" y="850.4935064935064" type="qcurve" smooth="yes"/>
      <point x="948.2845040066318" y="850.4935064935064"/>
      <point x="796.4034042553191" y="648.4633766233767"/>
      <point x="796.4034042553191" y="474.0" type="qcurve" smooth="yes"/>
      <point x="796.4034042553191" y="442.0" type="line" smooth="yes"/>
      <point x="796.4034042553191" y="267.53662337662337"/>
      <point x="949.6046145344017" y="65.50649350649351"/>
      <point x="1087.9778723404256" y="65.50649350649351" type="qcurve" smooth="yes"/>
      <point x="1189.536313898867" y="65.50649350649351"/>
      <point x="1328.459082619508" y="169.28198397347333"/>
      <point x="1369.99914893617" y="253.42553191489364" type="qcurve"/>
      <point x="1440.711914893617" y="197.24468085106383" type="line"/>
      <point x="1401.1800000000003" y="111.34042553191489"/>
      <point x="1221.8395744680852" y="-30.0"/>
      <point x="1088.4140425531914" y="-30.0" type="qcurve" smooth="yes"/>
      <point x="941.3085106382979" y="-30.0"/>
      <point x="776.9042553191489" y="96.17148936170213"/>
      <point x="736.4906382978724" y="191.24" type="qcurve"/>
      <point x="680.1838297872339" y="80.64"/>
      <point x="499.65702127659574" y="-20.43617021276596"/>
    </contour>
  </outline>
</glyph>
<glyph name="divide" format="2">
  <advance width="1014.6"/>
  <unicode hex="00F7"/>
  <outline>
    <contour>
      <point x="425.3531914893617" y="1023.127659574468" type="qcurve" smooth="yes"/>
      <point x="425.3531914893617" y="1057.8085106382978"/>
      <point x="466.10851063829796" y="1103.3829787234042"/>
      <point x="506.73617021276596" y="1103.3829787234042" type="qcurve" smooth="yes"/>
      <point x="546.3638297872341" y="1103.3829787234042"/>
      <point x="588.6829787234043" y="1057.8085106382978"/>
      <point x="588.6829787234043" y="1023.127659574468" type="qcurve" smooth="yes"/>
      <point x="588.6829787234043" y="990.0106382978724"/>
      <point x="546.3638297872341" y="945.0"/>
      <point x="506.73617021276596" y="945.0" type="qcurve" smooth="yes"/>
      <point x="466.10851063829796" y="945.0"/>
      <point x="425.3531914893617" y="990.0106382978724"/>
    </contour>
    <contour>
      <point x="425.3531914893617" y="330.74468085106383" type="qcurve" smooth="yes"/>
      <point x="425.3531914893617" y="364.86170212765956"/>
      <point x="466.10851063829796" y="411.0"/>
      <point x="506.73617021276596" y="411.0" type="qcurve" smooth="yes"/>
      <point x="546.3638297872341" y="411.0"/>
      <point x="588.6829787234043" y="364.86170212765956"/>
      <point x="588.6829787234043" y="330.74468085106383" type="qcurve" smooth="yes"/>
      <point x="588.6829787234043" y="297.6276595744681"/>
      <point x="546.3638297872341" y="252.05319148936172"/>
      <point x="506.73617021276596" y="252.05319148936172" type="qcurve" smooth="yes"/>
      <point x="466.10851063829796" y="252.05319148936172"/>
      <point x="425.3531914893617" y="297.6276595744681"/>
    </contour>
    <contour>
      <point x="52.30000000000001" y="588.0" type="line"/>
      <point x="52.30000000000001" y="760.0" type="line"/>
      <point x="962.3000000000001" y="760.0" type="line"/>
      <point x="962.3000000000001" y="588.0" type="line"/>
    </contour>
  </outline>
</glyph>
<glyph name="kgreenlandic" format="2">
  <advance width="951.4936170212766"/>
  <unicode hex="0138"/>
  <outline>
    <contour>
      <point x="243.49999999999997" y="916.0" type="line"/>
      <point x="243.49999999999997" y="0.0" type="line"/>
      <point x="136.13829787234042" y="0.0" type="line"/>
      <point x="136.13829787234042" y="916.0" type="line"/>
    </contour>
    <contour>
      <point x="891.5389610389609" y="916.0" type="line"/>
      <point x="384.65584415584414" y="404.1298701298702" type="line"/>
      <point x="191.4468085106383" y="404.1298701298702" type="line"/>
      <point x="191.4468085106383" y="505.7402597402598" type="line"/>
      <point x="352.7831168831169" y="505.7402597402598" type="line"/>
      <point x="753.6355844155844" y="916.0" type="line"/>
    </contour>
    <contour>
      <point x="808.9680851063831" y="0.0" type="line"/>
      <point x="360.77872340425535" y="440.06170212765954" type="line"/>
      <point x="425.7314893617021" y="510.80340425531915" type="line"/>
      <point x="944.8297872340427" y="0.0" type="line"/>
    </contour>
  </outline>
</glyph>
<glyph name="OE" format="2">
  <advance width="1698.263829787234"/>
  <unicode hex="0152"/>
  <outline>
    <contour>
      <point x="607.8510638297872" y="-21.0" type="qcurve" smooth="yes"/>
      <point x="415.2234042553191" y="-21.0"/>
      <point x="104.5" y="351.3404255319149"/>
      <point x="104.5" y="703.808510638298" type="qcurve" smooth="yes"/>
      <point x="104.5" y="759.3510638297872" type="line" smooth="yes"/>
      <point x="104.5" y="1098.4574468085107"/>
      <point x="412.6595744680851" y="1477.0"/>
      <point x="644.9255319148937" y="1477.0" type="qcurve" smooth="yes"/>
      <point x="674.8723404255319" y="1477.0"/>
      <point x="811.0425531914893" y="1464.0"/>
      <point x="871.5000000000001" y="1456.0" type="qcurve"/>
      <point x="1626.0638297872342" y="1456.0" type="line"/>
      <point x="1626.0638297872342" y="1356.831168831169" type="line"/>
      <point x="905.372340425532" y="1356.831168831169" type="line"/>
      <point x="905.372340425532" y="98.55844155844156" type="line"/>
      <point x="1636.063829787234" y="98.55844155844156" type="line"/>
      <point x="1636.063829787234" y="0.0" type="line"/>
      <point x="871.5000000000001" y="0.0" type="line"/>
      <point x="811.0425531914893" y="-7.000000000000001"/>
      <point x="676.436170212766" y="-21.0"/>
    </contour>
    <contour>
      <point x="622.5" y="73.45454545454545" type="qcurve" smooth="yes"/>
      <point x="675.5" y="73.45454545454545"/>
      <point x="755.8896103896104" y="82.45454545454545"/>
      <point x="793.8896103896104" y="88.45454545454545" type="qcurve"/>
      <point x="793.8896103896104" y="1366.4935064935066" type="line"/>
      <point x="741.8896103896104" y="1373.4935064935066"/>
      <point x="646.5" y="1381.4935064935066"/>
      <point x="624.5" y="1381.4935064935066" type="qcurve" smooth="yes"/>
      <point x="447.5" y="1381.4935064935066"/>
      <point x="217.5" y="1024.7659574468087"/>
      <point x="217.5" y="764.4042553191489" type="qcurve" smooth="yes"/>
      <point x="217.5" y="696.3936170212767" type="line" smooth="yes"/>
      <point x="217.5" y="425.4148936170213"/>
      <point x="450.5" y="73.45454545454545"/>
    </contour>
    <contour>
      <point x="852.8829787234042" y="703.0" type="line"/>
      <point x="852.8829787234042" y="801.5584415584416" type="line"/>
      <point x="1534.0638297872342" y="801.5584415584416" type="line"/>
      <point x="1534.0638297872342" y="703.0" type="line"/>
    </contour>
  </outline>
</glyph>
<glyph name="oe" format="2">
  <advance width="1637.6595744680849"/>
  <unicode hex="0153"/>
  <outline>
    <contour>
      <point x="506.7617021276596" y="-30.0" type="qcurve" smooth="yes"/>
      <point x="307.8085106382979" y="-30.0"/>
      <point x="77.5" y="228.48000000000002"/>
      <point x="77.5" y="442.0" type="qcurve" smooth="yes"/>
      <point x="77.5" y="474.0" type="line" smooth="yes"/>
      <point x="77.5" y="687.52"/>
      <point x="298.76510638297873" y="945.68"/>
      <point x="493.3302127659575" y="945.68" type="qcurve" smooth="yes"/>
      <point x="625.7025531914894" y="945.68"/>
      <point x="806.9723404255319" y="834.64"/>
      <point x="847.2829787234043" y="762.6400000000001" type="qcurve"/>
      <point x="886.6697872340426" y="839.2417021276597"/>
      <point x="1053.715319148936" y="946.0"/>
      <point x="1168.0557446808511" y="946.0" type="qcurve" smooth="yes"/>
      <point x="1357.0851063829787" y="946.0"/>
      <point x="1565.968085106383" y="700.72"/>
      <point x="1564.6595744680849" y="492.0" type="qcurve" smooth="yes"/>
      <point x="1564.6595744680849" y="442.8831168831169" type="line"/>
      <point x="864.2659574468084" y="442.8831168831169" type="line"/>
      <point x="864.2659574468084" y="535.948051948052" type="line"/>
      <point x="1453.6228018789723" y="535.948051948052" type="line"/>
      <point x="1453.1170212765958" y="574.4000000000001" type="line"/>
      <point x="1452.8435810997514" y="699.8561038961038"/>
      <point x="1320.850566454822" y="850.1038961038961"/>
      <point x="1182.3617021276596" y="850.1038961038961" type="qcurve" smooth="yes"/>
      <point x="1053.967449571705" y="850.1038961038961"/>
      <point x="908.8617021276596" y="648.0041558441558"/>
      <point x="908.8617021276596" y="474.0" type="qcurve" smooth="yes"/>
      <point x="908.8617021276596" y="442.0" type="line" smooth="yes"/>
      <point x="908.8617021276596" y="267.9958441558441"/>
      <point x="1062.555645205858" y="65.8961038961039"/>
      <point x="1208.1404255319148" y="65.8961038961039" type="qcurve" smooth="yes"/>
      <point x="1306.412876485217" y="65.8961038961039"/>
      <point x="1445.2790826195082" y="174.95219673943078"/>
      <point x="1484.6382978723404" y="266.51063829787233" type="qcurve"/>
      <point x="1555.7872340425533" y="212.51063829787236" type="line"/>
      <point x="1517.127659574468" y="116.13829787234043"/>
      <point x="1345.6382978723407" y="-30.0"/>
      <point x="1206.2838297872343" y="-30.0" type="qcurve" smooth="yes"/>
      <point x="1079.6919148936172" y="-30.0"/>
      <point x="894.6927659574468" y="73.28"/>
      <point x="847.0506382978723" y="148.28" type="qcurve"/>
      <point x="800.7685106382979" y="72.92"/>
      <point x="629.0697872340426" y="-30.0"/>
    </contour>
    <contour>
      <point x="493.6808510638298" y="65.8961038961039" type="qcurve" smooth="yes"/>
      <point x="638.2927991157778" y="65.8961038961039"/>
      <point x="799.6808510638298" y="261.19584415584416"/>
      <point x="799.6808510638298" y="442.0" type="qcurve" smooth="yes"/>
      <point x="799.6808510638298" y="474.0" type="line" smooth="yes"/>
      <point x="799.6808510638298" y="654.8041558441558"/>
      <point x="638.2927991157778" y="850.1038961038961"/>
      <point x="493.6808510638298" y="850.1038961038961" type="qcurve" smooth="yes"/>
      <point x="349.06890301188173" y="850.1038961038961"/>
      <point x="187.68085106382978" y="654.8737662337662"/>
      <point x="187.68085106382978" y="474.0" type="qcurve" smooth="yes"/>
      <point x="187.68085106382978" y="442.0" type="line" smooth="yes"/>
      <point x="187.68085106382978" y="261.1262337662338"/>
      <point x="349.06890301188173" y="65.8961038961039"/>
    </contour>
  </outline>
</glyph>
<glyph name="Schwa" format="2">
  <advance width="1261.736170212766"/>
  <unicode hex="018F"/>
  <outline>
    <contour>
      <point x="623.236170212766" y="-30.0" type="qcurve" smooth="yes"/>
      <point x="377.1829787234043" y="-30.0"/>
      <point x="92.80000000000001" y="311.0"/>
      <point x="92.80000000000001" y="726.0" type="qcurve" smooth="yes"/>
      <point x="92.80000000000001" y="763.3506493506493" type="line"/>
      <point x="1097.544680851064" y="763.3506493506493" type="line"/>
      <point x="1096.672340425532" y="659.7922077922078" type="line"/>
      <point x="646.7468085106383" y="664.7922077922078" type="line"/>
      <point x="214.87446808510637" y="661.7922077922078" type="line"/>
      <point x="215.7468085106383" y="567.0" type="line" smooth="yes"/>
      <point x="219.23617021276596" y="320.9294003868472"/>
      <point x="436.07148383531364" y="69.7792207792208"/>
      <point x="627.7468085106383" y="69.7792207792208" type="qcurve" smooth="yes"/>
      <point x="823.5909643547942" y="69.7792207792208"/>
      <point x="1051.1364189002486" y="428.88311688311694"/>
      <point x="1048.7468085106384" y="749.0" type="qcurve" smooth="yes"/>
      <point x="1046.7468085106384" y="1073.922077922078"/>
      <point x="804.7078474716773" y="1380.6753246753246"/>
      <point x="609.7468085106383" y="1380.6753246753246" type="qcurve" smooth="yes"/>
      <point x="446.9935617573915" y="1380.6753246753246"/>
      <point x="248.47256148107215" y="1164.4437689969604"/>
      <point x="222.87446808510634" y="984.0" type="qcurve" smooth="yes"/>
      <point x="220.7468085106383" y="968.0" type="line"/>
      <point x="105.49148936170214" y="968.0" type="line"/>
      <point x="107.05531914893618" y="982.0000000000001" type="line" smooth="yes"/>
      <point x="132.6404255319149" y="1212.0"/>
      <point x="394.5659574468085" y="1489.0"/>
      <point x="612.9808510638297" y="1489.0" type="qcurve" smooth="yes"/>
      <point x="856.0340425531915" y="1489.0"/>
      <point x="1157.236170212766" y="1128.0"/>
      <point x="1157.236170212766" y="754.6382978723404" type="qcurve" smooth="yes"/>
      <point x="1157.236170212766" y="384.0"/>
      <point x="878.672340425532" y="-30.0"/>
    </contour>
  </outline>
</glyph>
<glyph name="schwa" format="2">
  <advance width="916.0425531914893"/>
  <unicode hex="0259"/>
  <outline>
    <contour>
      <point x="841.9945469916867" y="474.0" type="qcurve" smooth="yes"/>
      <point x="841.9945469916867" y="442.0" type="line" smooth="yes"/>
      <point x="841.9945469916867" y="235.28000000000003"/>
      <point x="627.0877384810484" y="-30.0"/>
      <point x="447.1222065661547" y="-30.0" type="qcurve" smooth="yes"/>
      <point x="269.1966746512611" y="-30.0"/>
      <point x="75.14348316189938" y="215.28"/>
      <point x="76.45199380019727" y="424.0" type="qcurve" smooth="yes"/>
      <point x="76.45199380019727" y="473.11688311688306" type="line"/>
      <point x="775.537100183176" y="473.11688311688306" type="line"/>
      <point x="775.537100183176" y="380.05194805194805" type="line"/>
      <point x="185.69752571509088" y="380.05194805194805" type="line"/>
      <point x="185.81369592785688" y="341.6" type="line"/>
      <point x="186.0871361047013" y="215.75428571428574"/>
      <point x="309.7929167070776" y="65.50649350649351"/>
      <point x="437.8136959278569" y="65.50649350649351" type="qcurve" smooth="yes"/>
      <point x="576.6760335901945" y="65.50649350649351"/>
      <point x="731.8136959278568" y="267.53662337662337"/>
      <point x="731.8136959278568" y="442.0" type="qcurve" smooth="yes"/>
      <point x="731.8136959278568" y="474.0" type="line" smooth="yes"/>
      <point x="731.8136959278568" y="648.4633766233767"/>
      <point x="576.4316345849444" y="850.4935064935064"/>
      <point x="426.2817810342398" y="850.4935064935064" type="qcurve" smooth="yes"/>
      <point x="327.7765309651599" y="850.4935064935064"/>
      <point x="195.83248564877425" y="758.0584415584415"/>
      <point x="159.0902916725377" y="680.8936170212767" type="qcurve"/>
      <point x="84.0158235874313" y="741.0" type="line"/>
      <point x="123.11156826828237" y="816.872340425532"/>
      <point x="298.0902916725377" y="946.0"/>
      <point x="422.3562491193462" y="946.0" type="qcurve" smooth="yes"/>
      <point x="622.3277384810483" y="946.0"/>
      <point x="841.9945469916867" y="680.72"/>
    </contour>
  </outline>
</glyph>
<glyph name="doubleprimemod" format="2">
  <advance width="765.2"/>
  <unicode hex="02BA"/>
  <outline>
    <contour>
      <point x="247.8276595744681" y="1502.0" type="line"/>
      <point x="356.136170212766" y="1502.0" type="line"/>
      <point x="278.70000000000005" y="1004.0" type="line"/>
      <point x="156.70000000000002" y="1008.9999999999999" type="line"/>
    </contour>
    <contour>
      <point x="547.827659574468" y="1502.0" type="line"/>
      <point x="656.1361702127659" y="1502.0" type="line"/>
      <point x="578.7" y="1004.0" type="line"/>
      <point x="456.70000000000005" y="1008.9999999999999" type="line"/>
    </contour>
  </outline>
</glyph>
<glyph name="apostrophemod" format="2">
  <advance width="553.0723404255319"/>
  <unicode hex="02BC"/>
  <outline>
    <contour>
      <point x="154.91558441558442" y="1045.6363636363637" type="line"/>
      <point x="207.51796076264162" y="1087.366399557889"/>
      <point x="319.76609560652116" y="1234.8862945565074"/>
      <point x="332.2127659574468" y="1372.0851063829787" type="qcurve"/>
      <point x="285.63829787234044" y="1372.0851063829787"/>
      <point x="234.42553191489364" y="1420.4787234042553"/>
      <point x="234.42553191489364" y="1458.1063829787236" type="qcurve" smooth="yes"/>
      <point x="234.42553191489364" y="1496.4787234042556"/>
      <point x="286.20212765957444" y="1545.9999999999998"/>
      <point x="327.3936170212766" y="1545.9999999999998" type="qcurve" smooth="yes"/>
      <point x="365.8936170212766" y="1545.9999999999998"/>
      <point x="427.87234042553195" y="1484.021276595745"/>
      <point x="427.87234042553195" y="1434.0638297872342" type="qcurve" smooth="yes"/>
      <point x="427.87234042553195" y="1267.5744680851064"/>
      <point x="288.93617021276594" y="1064.744680851064"/>
      <point x="183.5" y="1013.0" type="qcurve"/>
    </contour>
  </outline>
</glyph>
<glyph name="gravecomb" format="2">
  <unicode hex="0300"/>
  <anchor x="0.0" y="1052.0" name="_top"/>
  <anchor x="0.0" y="1599.0" name="top"/>
  <outline>
    <contour>
      <point x="58.401826484018265" y="1215.1461187214613" type="line"/>
      <point x="-199.89351986787136" y="1520.854755659186" type="line"/>
      <point x="-118.49101331001654" y="1579.373749149908" type="line"/>
      <point x="125.95072051236434" y="1260.0038627941572" type="line"/>
    </contour>
  </outline>
</glyph>
<glyph name="acutecomb" format="2">
  <unicode hex="0301"/>
  <anchor x="0.0" y="1052.0" name="_top"/>
  <anchor x="0.0" y="1600.0" name="top"/>
  <outline>
    <contour>
      <point x="-135.54545454545456" y="1268.6623376623377" type="line"/>
      <point x="127.91489361702128" y="1583.9574468085107" type="line"/>
      <point x="204.2127659574468" y="1510.4787234042553" type="line"/>
      <point x="-76.0" y="1215.0" type="line"/>
    </contour>
  </outline>
</glyph>
<glyph name="circumflexcomb" format="2">
  <unicode hex="0302"/>
  <anchor x="0.0" y="1052.0" name="_top"/>
  <anchor x="0.0" y="1533.0" name="top"/>
  <outline>
    <contour>
      <point x="32.446808510638306" y="1533.0" type="line"/>
      <point x="303.0" y="1220.0" type="line"/>
      <point x="150.0" y="1220.0" type="line"/>
      <point x="0.0" y="1444.8617021276596" type="line"/>
      <point x="-150.0" y="1220.0" type="line"/>
      <point x="-303.0" y="1220.0" type="line"/>
      <point x="-32.446808510638306" y="1533.0" type="line"/>
    </contour>
  </outline>
</glyph>
<glyph name="tildecomb" format="2">
  <unicode hex="0303"/>
  <anchor x="0.0" y="1052.0" name="_top"/>
  <anchor x="0.0" y="1487.0" name="top"/>
  <outline>
    <contour>
      <point x="-378.0" y="1321.0" type="line"/>
      <point x="-345.0" y="1370.9148936170213"/>
      <point x="-206.56382978723406" y="1458.0106382978724"/>
      <point x="-149.97872340425533" y="1458.0106382978724" type="qcurve" smooth="yes"/>
      <point x="-100.15957446808511" y="1458.0106382978724"/>
      <point x="-20.46808510638298" y="1420.1808510638298"/>
      <point x="11.606382978723406" y="1397.2340425531916" type="qcurve" smooth="yes"/>
      <point x="43.42553191489361" y="1374.5425531914893"/>
      <point x="124.25531914893617" y="1326.872340425532"/>
      <point x="164.00000000000003" y="1326.872340425532" type="qcurve" smooth="yes"/>
      <point x="204.0" y="1326.872340425532"/>
      <point x="274.0" y="1406.9148936170213"/>
      <point x="297.0" y="1456.0" type="qcurve"/>
      <point x="378.0" y="1358.0" type="line"/>
      <point x="341.0" y="1302.7021276595747"/>
      <point x="215.63829787234044" y="1238.5531914893618"/>
      <point x="156.10638297872342" y="1238.5531914893618" type="qcurve" smooth="yes"/>
      <point x="108.41489361702128" y="1238.5531914893618"/>
      <point x="10.97872340425532" y="1283.968085106383"/>
      <point x="-18.02127659574468" y="1305.531914893617" type="qcurve" smooth="yes"/>
      <point x="-47.02127659574469" y="1327.095744680851"/>
      <point x="-117.94680851063829" y="1368.127659574468"/>
      <point x="-159.0" y="1368.127659574468" type="qcurve" smooth="yes"/>
      <point x="-203.0" y="1368.127659574468"/>
      <point x="-277.0" y="1275.3404255319151"/>
      <point x="-302.0" y="1229.0" type="qcurve"/>
    </contour>
  </outline>
</glyph>
<glyph name="brevecomb" format="2">
  <unicode hex="0306"/>
  <anchor x="0.0" y="1052.0" name="_top"/>
  <anchor x="0.0" y="1518.0" name="top"/>
  <outline>
    <contour>
      <point x="236.00000000000003" y="1517.0" type="qcurve"/>
      <point x="337.0" y="1463.0" type="line"/>
      <point x="302.0" y="1364.0"/>
      <point x="126.0" y="1197.0"/>
      <point x="0.0" y="1197.0" type="qcurve" smooth="yes"/>
      <point x="-113.0" y="1197.0"/>
      <point x="-294.0" y="1351.0"/>
      <point x="-336.0" y="1465.0" type="qcurve"/>
      <point x="-236.00000000000003" y="1517.0" type="line"/>
      <point x="-209.72340425531914" y="1458.2553191489362"/>
      <point x="-87.72340425531917" y="1292.5212765957447"/>
      <point x="0.0" y="1292.5212765957447" type="qcurve" smooth="yes"/>
      <point x="95.34042553191489" y="1292.5212765957447"/>
      <point x="205.67021276595744" y="1452.5106382978724"/>
    </contour>
  </outline>
</glyph>
<glyph name="dieresiscomb" format="2">
  <unicode hex="0308"/>
  <anchor x="0.0" y="1052.0" name="_GRK_top"/>
  <anchor x="0.0" y="1052.0" name="_top"/>
  <anchor x="0.0" y="1431.0" name="top"/>
  <outline>
    <contour>
      <point x="-288.36170212765956" y="1284.5425531914893" type="qcurve" smooth="yes"/>
      <point x="-288.36170212765956" y="1314.276595744681"/>
      <point x="-251.11702127659575" y="1355.776595744681"/>
      <point x="-216.00000000000003" y="1355.776595744681" type="qcurve" smooth="yes"/>
      <point x="-179.88297872340428" y="1355.776595744681"/>
      <point x="-142.63829787234044" y="1314.276595744681"/>
      <point x="-142.63829787234044" y="1284.5425531914893" type="qcurve" smooth="yes"/>
      <point x="-142.63829787234044" y="1255.936170212766"/>
      <point x="-179.88297872340428" y="1215.436170212766"/>
      <point x="-216.00000000000003" y="1215.436170212766" type="qcurve" smooth="yes"/>
      <point x="-251.11702127659575" y="1215.436170212766"/>
      <point x="-288.36170212765956" y="1255.936170212766"/>
    </contour>
    <contour>
      <point x="143.0744680851064" y="1284.5425531914893" type="qcurve" smooth="yes"/>
      <point x="143.0744680851064" y="1314.276595744681"/>
      <point x="179.31914893617022" y="1355.340425531915"/>
      <point x="215.43617021276594" y="1355.340425531915" type="qcurve" smooth="yes"/>
      <point x="250.55319148936172" y="1355.340425531915"/>
      <point x="288.36170212765956" y="1314.276595744681"/>
      <point x="288.36170212765956" y="1284.5425531914893" type="qcurve" smooth="yes"/>
      <point x="288.36170212765956" y="1255.936170212766"/>
      <point x="250.55319148936172" y="1215.436170212766"/>
      <point x="215.43617021276594" y="1215.436170212766" type="qcurve" smooth="yes"/>
      <point x="179.31914893617022" y="1215.436170212766"/>
      <point x="143.0744680851064" y="1255.936170212766"/>
    </contour>
  </outline>
</glyph>
<glyph name="hookabovecomb" format="2">
  <unicode hex="0309"/>
  <anchor x="0.0" y="1052.0" name="_top"/>
  <anchor x="0.0" y="1692.0000000000002" name="top"/>
  <outline>
    <contour>
      <point x="-70.0" y="1220.0" type="line"/>
      <point x="-70.0" y="1259.0" type="line" smooth="yes"/>
      <point x="-70.0" y="1311.0"/>
      <point x="-11.0" y="1381.0"/>
      <point x="47.0" y="1392.0" type="qcurve" smooth="yes"/>
      <point x="111.2872340425532" y="1403.872340425532"/>
      <point x="176.58510638297872" y="1443.3404255319151"/>
      <point x="176.58510638297872" y="1490.4468085106384" type="qcurve" smooth="yes"/>
      <point x="176.58510638297872" y="1542.531914893617"/>
      <point x="82.03191489361703" y="1608.1914893617022"/>
      <point x="14.074468085106382" y="1608.1914893617022" type="qcurve" smooth="yes"/>
      <point x="-52.54255319148936" y="1608.1914893617022"/>
      <point x="-157.2127659574468" y="1572.8829787234042"/>
      <point x="-190.24468085106383" y="1553.9574468085107" type="qcurve"/>
      <point x="-222.0" y="1632.0" type="line"/>
      <point x="-171.0" y="1657.0"/>
      <point x="-56.23404255319149" y="1692.4361702127662"/>
      <point x="31.5531914893617" y="1692.4361702127662" type="qcurve" smooth="yes"/>
      <point x="138.03191489361703" y="1692.4361702127662"/>
      <point x="271.5425531914894" y="1580.6170212765958"/>
      <point x="271.5425531914894" y="1495.521276595745" type="qcurve" smooth="yes"/>
      <point x="271.5425531914894" y="1381.0"/>
      <point x="160.44680851063828" y="1256.6382978723404"/>
      <point x="70.0" y="1251.0" type="qcurve"/>
      <point x="70.0" y="1220.0" type="line"/>
    </contour>
  </outline>
</glyph>
<glyph name="ringcomb" format="2">
  <unicode hex="030A"/>
  <anchor x="0.0" y="1052.0" name="_top"/>
  <anchor x="0.0" y="1647.0" name="top"/>
  <outline>
    <contour>
      <point x="-226.0" y="1429.0" type="qcurve"/>
      <point x="-226.0" y="1519.0"/>
      <point x="-96.0" y="1647.0"/>
      <point x="0.0" y="1647.0" type="qcurve" smooth="yes"/>
      <point x="95.30851063829786" y="1647.0"/>
      <point x="226.0" y="1519.0"/>
      <point x="226.0" y="1429.0" type="qcurve" smooth="yes"/>
      <point x="226.0" y="1338.0"/>
      <point x="95.30851063829786" y="1215.0"/>
      <point x="0.0" y="1215.0" type="qcurve" smooth="yes"/>
      <point x="-96.43617021276597" y="1215.0"/>
      <point x="-226.0" y="1338.0"/>
    </contour>
    <contour>
      <point x="-160.9255319148936" y="1429.0" type="qcurve"/>
      <point x="-160.9255319148936" y="1365.808510638298"/>
      <point x="-70.62765957446808" y="1273.872340425532"/>
      <point x="0.0" y="1273.872340425532" type="qcurve" smooth="yes"/>
      <point x="69.75531914893617" y="1273.872340425532"/>
      <point x="160.9255319148936" y="1364.6808510638298"/>
      <point x="160.9255319148936" y="1429.0" type="qcurve" smooth="yes"/>
      <point x="160.9255319148936" y="1491.5744680851064"/>
      <point x="70.19148936170214" y="1587.5638297872342"/>
      <point x="0.0" y="1587.5638297872342" type="qcurve" smooth="yes"/>
      <point x="-70.62765957446808" y="1587.5638297872342"/>
      <point x="-160.9255319148936" y="1491.5744680851064"/>
    </contour>
  </outline>
</glyph>
<glyph name="hungarumlautcomb" format="2">
  <unicode hex="030B"/>
  <anchor x="0.0" y="1052.0" name="_top"/>
  <anchor x="0.0" y="1581.0000000000002" name="top"/>
  <outline>
    <contour>
      <point x="-219.3766233766234" y="1266.1688311688313" type="line"/>
      <point x="13.659574468085106" y="1557.8829787234044" type="line"/>
      <point x="91.77659574468085" y="1496.5531914893618" type="line"/>
      <point x="-158.0" y="1218.0" type="line"/>
    </contour>
    <contour>
      <point x="90.62337662337663" y="1266.1688311688313" type="line"/>
      <point x="323.6595744680851" y="1557.8829787234044" type="line"/>
      <point x="401.7765957446809" y="1496.5531914893618" type="line"/>
      <point x="152.0" y="1218.0" type="line"/>
    </contour>
  </outline>
</glyph>
<glyph name="breveinvertedcomb" format="2">
  <unicode hex="030F"/>
  <anchor x="0.0" y="1052.0" name="_top"/>
  <anchor x="0.0" y="1540.0" name="top"/>
  <outline>
    <contour>
      <point x="-233.8723404255319" y="1220.436170212766" type="qcurve"/>
      <point x="-336.0" y="1274.436170212766" type="line"/>
      <point x="-298.1808510638298" y="1375.127659574468"/>
      <point x="-125.56382978723404" y="1540.436170212766"/>
      <point x="0.43617021276595747" y="1540.436170212766" type="qcurve" smooth="yes"/>
      <point x="120.76595744680851" y="1540.436170212766"/>
      <point x="295.563829787234" y="1380.7978723404256"/>
      <point x="336.436170212766" y="1273.0000000000002" type="qcurve"/>
      <point x="234.74468085106383" y="1220.436170212766" type="line"/>
      <point x="207.90425531914894" y="1279.1808510638298"/>
      <point x="88.15957446808511" y="1444.9148936170213"/>
      <point x="0.43617021276595747" y="1444.9148936170213" type="qcurve" smooth="yes"/>
      <point x="-92.08510638297872" y="1444.9148936170213"/>
      <point x="-203.5425531914894" y="1284.9255319148936"/>
    </contour>
  </outline>
</glyph>
<glyph name="commaaccentturnedcomb" format="2">
  <unicode hex="0312"/>
  <anchor x="0.0" y="1052.0" name="_top"/>
  <outline>
    <contour>
      <point x="163.0" y="1652.0000000000002" type="line"/>
      <point x="37.00000000000001" y="1295.7978723404258" type="line"/>
      <point x="-73.56382978723404" y="1309.7659574468084" type="line"/>
      <point x="6.0" y="1676.0" type="line"/>
    </contour>
  </outline>
</glyph>
<glyph name="dotbelowcomb" format="2">
  <unicode hex="0323"/>
  <anchor x="0.0" y="0.0" name="_bottom"/>
  <anchor x="0.0" y="-418.0" name="bottom"/>
  <outline>
    <contour>
      <point x="-81.94680851063828" y="-254.69148936170214" type="qcurve" smooth="yes"/>
      <point x="-81.94680851063828" y="-221.5744680851064"/>
      <point x="-39.62765957446808" y="-176.0"/>
      <point x="0.0" y="-176.0" type="qcurve" smooth="yes"/>
      <point x="39.62765957446808" y="-176.0"/>
      <point x="81.94680851063828" y="-221.5744680851064"/>
      <point x="81.94680851063828" y="-254.69148936170214" type="qcurve" smooth="yes"/>
      <point x="81.94680851063828" y="-287.8085106382979"/>
      <point x="39.62765957446808" y="-333.3829787234043"/>
      <point x="0.0" y="-333.3829787234043" type="qcurve" smooth="yes"/>
      <point x="-39.62765957446808" y="-333.3829787234043"/>
      <point x="-81.94680851063828" y="-287.8085106382979"/>
    </contour>
  </outline>
</glyph>
<glyph name="dieresisbelowcomb" format="2">
  <unicode hex="0324"/>
  <anchor x="0.0" y="0.0" name="_bottom"/>
  <anchor x="0.0" y="-421.0" name="bottom"/>
  <outline>
    <contour>
      <point x="-305.436170212766" y="-268.3085106382979" type="qcurve" smooth="yes"/>
      <point x="-305.436170212766" y="-232.5"/>
      <point x="-266.3723404255319" y="-194.00000000000003"/>
      <point x="-230.0" y="-194.00000000000003" type="qcurve" smooth="yes"/>
      <point x="-195.31914893617022" y="-194.00000000000003"/>
      <point x="-154.56382978723406" y="-235.19148936170214"/>
      <point x="-154.56382978723406" y="-268.3085106382979" type="qcurve" smooth="yes"/>
      <point x="-154.56382978723406" y="-303.5531914893617"/>
      <point x="-193.06382978723406" y="-341.6170212765957"/>
      <point x="-230.0" y="-341.6170212765957" type="qcurve" smooth="yes"/>
      <point x="-264.6808510638298" y="-341.6170212765957"/>
      <point x="-305.436170212766" y="-301.42553191489367"/>
    </contour>
    <contour>
      <point x="154.56382978723406" y="-268.3085106382979" type="qcurve" smooth="yes"/>
      <point x="154.56382978723406" y="-232.5"/>
      <point x="193.62765957446808" y="-194.00000000000003"/>
      <point x="230.0" y="-194.00000000000003" type="qcurve" smooth="yes"/>
      <point x="264.6808510638298" y="-194.00000000000003"/>
      <point x="305.436170212766" y="-235.19148936170214"/>
      <point x="305.436170212766" y="-268.3085106382979" type="qcurve" smooth="yes"/>
      <point x="305.436170212766" y="-303.5531914893617"/>
      <point x="266.936170212766" y="-341.6170212765957"/>
      <point x="230.0" y="-341.6170212765957" type="qcurve" smooth="yes"/>
      <point x="195.31914893617022" y="-341.6170212765957"/>
      <point x="154.56382978723406" y="-301.42553191489367"/>
    </contour>
  </outline>
</glyph>
<glyph name="cedillacomb" format="2">
  <unicode hex="0327"/>
  <anchor x="0.0" y="0.0" name="_bottom"/>
  <anchor x="0.0" y="-457.00000000000006" name="bottom"/>
  <outline>
    <contour>
      <point x="-72.0" y="20.0" type="line"/>
      <point x="57.00000000000001" y="20.0" type="line"/>
      <point x="29.000000000000004" y="-75.0" type="line"/>
      <point x="70.29787234042553" y="-86.74468085106383"/>
      <point x="165.32978723404256" y="-161.0"/>
      <point x="165.32978723404256" y="-248.0" type="qcurve" smooth="yes"/>
      <point x="165.32978723404256" y="-341.0"/>
      <point x="27.09574468085107" y="-456.5638297872341"/>
      <point x="-164.00000000000003" y="-457.00000000000006" type="qcurve"/>
      <point x="-171.0" y="-350.0" type="line"/>
      <point x="-41.58510638297872" y="-351.3085106382979"/>
      <point x="60.09574468085107" y="-303.0"/>
      <point x="60.09574468085107" y="-250.0" type="qcurve" smooth="yes"/>
      <point x="60.09574468085107" y="-200.99999999999997"/>
      <point x="-11.98936170212766" y="-163.56382978723406"/>
      <point x="-113.0" y="-157.0" type="qcurve"/>
    </contour>
  </outline>
</glyph>
<glyph name="ogonekcomb" format="2">
  <unicode hex="0328"/>
  <anchor x="88.0" y="0.0" name="_ogonek"/>
  <anchor x="21.0" y="-434.0" name="bottom"/>
  <outline>
    <contour>
      <point x="4.0" y="57.00000000000001" type="qcurve"/>
      <point x="88.0" y="0.0" type="line"/>
      <point x="26.0" y="-42.0"/>
      <point x="-49.0" y="-140.94680851063828"/>
      <point x="-49.0" y="-203.0" type="qcurve" smooth="yes"/>
      <point x="-49.0" y="-252.0"/>
      <point x="8.0" y="-296.0"/>
      <point x="45.0" y="-295.0" type="qcurve" smooth="yes"/>
      <point x="78.0" y="-294.0"/>
      <point x="126.0" y="-276.0"/>
      <point x="140.0" y="-268.0" type="qcurve"/>
      <point x="175.0" y="-390.00000000000006" type="line"/>
      <point x="152.0" y="-405.0"/>
      <point x="82.18085106382978" y="-434.0"/>
      <point x="34.52127659574468" y="-434.0" type="qcurve" smooth="yes"/>
      <point x="-45.48936170212766" y="-434.0"/>
      <point x="-141.70212765957444" y="-325.2659574468085"/>
      <point x="-141.70212765957444" y="-218.22340425531914" type="qcurve" smooth="yes"/>
      <point x="-141.70212765957444" y="-132.17021276595744"/>
      <point x="-73.79787234042553" y="-0.2553191489361699"/>
    </contour>
  </outline>
</glyph>
<glyph name="brevebelowcomb" format="2">
  <unicode hex="032E"/>
  <anchor x="0.0" y="0.0" name="_bottom"/>
  <anchor x="0.0" y="-463.0" name="bottom"/>
  <outline>
    <contour>
      <point x="291.0" y="-127.0" type="qcurve"/>
      <point x="384.0" y="-197.0" type="line"/>
      <point x="345.0" y="-296.0"/>
      <point x="144.0" y="-463.0"/>
      <point x="0.0" y="-463.0" type="qcurve" smooth="yes"/>
      <point x="-128.0" y="-463.0"/>
      <point x="-345.0" y="-296.0"/>
      <point x="-384.0" y="-197.0" type="qcurve"/>
      <point x="-291.0" y="-127.0" type="line"/>
      <point x="-248.0" y="-217.91489361702128"/>
      <point x="-95.0" y="-364.6595744680851"/>
      <point x="0.0" y="-364.6595744680851" type="qcurve" smooth="yes"/>
      <point x="102.0" y="-364.6595744680851"/>
      <point x="248.0" y="-225.09574468085108"/>
    </contour>
  </outline>
</glyph>
<glyph name="numeralsign" format="2">
  <advance width="546.0"/>
  <unicode hex="0374"/>
  <outline>
    <contour>
      <point x="223.0" y="1073.0" type="line"/>
      <point x="100.0" y="1103.0" type="line"/>
      <point x="189.00000000000003" y="1556.0" type="line"/>
      <point x="374.0" y="1537.0" type="line"/>
    </contour>
  </outline>
</glyph>
<glyph name="Delta" format="2">
  <advance width="1220.9489361702128"/>
  <unicode hex="0394"/>
  <outline>
    <contour>
      <point x="27.1" y="0.0" type="line"/>
      <point x="27.1" y="107.00000000000001" type="line"/>
      <point x="559.1" y="1466.0" type="line"/>
      <point x="661.7489361702128" y="1466.0" type="line"/>
      <point x="1194.7489361702128" y="107.00000000000001" type="line"/>
      <point x="1194.7489361702128" y="0.0" type="line"/>
    </contour>
    <contour>
      <point x="135.24727825366122" y="99.16883116883118" type="line"/>
      <point x="1081.6548494059132" y="99.16883116883118" type="line"/>
      <point x="655.8765957446808" y="1203.372340425532" type="line" smooth="yes"/>
      <point x="642.8765957446808" y="1235.936170212766"/>
      <point x="621.0787234042554" y="1300.9893617021278"/>
      <point x="613.6425531914894" y="1330.0638297872342" type="qcurve"/>
      <point x="604.9510638297872" y="1330.0638297872342" type="line"/>
      <point x="596.2063829787235" y="1298.372340425532"/>
      <point x="575.1066316662061" y="1235.0638297872342"/>
      <point x="562.2808510638298" y="1202.063829787234" type="qcurve" smooth="yes"/>
    </contour>
  </outline>
</glyph>
<glyph name="Theta" format="2">
  <advance width="1275.872340425532"/>
  <unicode hex="0398"/>
  <outline>
    <contour>
      <point x="637.936170212766" y="-30.0" type="qcurve" smooth="yes"/>
      <point x="405.8829787234042" y="-30.0"/>
      <point x="104.5" y="346.0"/>
      <point x="104.5" y="682.0" type="qcurve" smooth="yes"/>
      <point x="104.5" y="774.0" type="line" smooth="yes"/>
      <point x="104.5" y="1110.0"/>
      <point x="405.8829787234042" y="1486.0"/>
      <point x="637.936170212766" y="1486.0" type="qcurve" smooth="yes"/>
      <point x="869.9893617021277" y="1486.0"/>
      <point x="1171.372340425532" y="1110.0"/>
      <point x="1171.372340425532" y="774.0" type="qcurve" smooth="yes"/>
      <point x="1171.372340425532" y="682.0" type="line" smooth="yes"/>
      <point x="1171.372340425532" y="346.0"/>
      <point x="869.9893617021277" y="-30.0"/>
    </contour>
    <contour>
      <point x="637.936170212766" y="72.83116883116884" type="qcurve" smooth="yes"/>
      <point x="827.936170212766" y="72.83116883116884"/>
      <point x="1058.936170212766" y="393.27272727272725"/>
      <point x="1058.936170212766" y="676.9350649350649" type="qcurve" smooth="yes"/>
      <point x="1058.936170212766" y="778.6753246753246" type="line" smooth="yes"/>
      <point x="1058.936170212766" y="1061.9480519480521"/>
      <point x="827.936170212766" y="1383.1688311688313"/>
      <point x="637.936170212766" y="1383.1688311688313" type="qcurve" smooth="yes"/>
      <point x="447.936170212766" y="1383.1688311688313"/>
      <point x="216.93617021276594" y="1061.9480519480521"/>
      <point x="216.93617021276594" y="778.6753246753246" type="qcurve" smooth="yes"/>
      <point x="216.93617021276594" y="676.9350649350649" type="line" smooth="yes"/>
      <point x="216.93617021276594" y="394.051948051948"/>
      <point x="447.936170212766" y="72.83116883116884"/>
    </contour>
    <contour>
      <point x="375.936170212766" y="691.3376623376623" type="line"/>
      <point x="375.936170212766" y="796.6103896103896" type="line"/>
      <point x="899.936170212766" y="796.6103896103896" type="line"/>
      <point x="899.936170212766" y="691.3376623376623" type="line"/>
    </contour>
  </outline>
</glyph>
<glyph name="Lambda" format="2">
  <advance width="1171.340425531915"/>
  <unicode hex="039B"/>
  <outline>
    <contour>
      <point x="1.0" y="0.0" type="line"/>
      <point x="535.0" y="1466.0" type="line"/>
      <point x="638.0851063829788" y="1466.0" type="line"/>
      <point x="1170.340425531915" y="0.0" type="line"/>
      <point x="1054.5212765957447" y="0.0" type="line"/>
      <point x="630.4680851063829" y="1202.063829787234" type="line" smooth="yes"/>
      <point x="619.0319148936171" y="1235.0638297872342"/>
      <point x="598.2872340425532" y="1297.936170212766"/>
      <point x="589.9787234042553" y="1329.6276595744682" type="qcurve"/>
      <point x="580.8510638297873" y="1329.6276595744682" type="line"/>
      <point x="571.6702127659574" y="1296.627659574468"/>
      <point x="551.9255319148937" y="1234.627659574468"/>
      <point x="539.9255319148936" y="1202.063829787234" type="qcurve" smooth="yes"/>
      <point x="112.30851063829789" y="0.0" type="line"/>
    </contour>
  </outline>
</glyph>
<glyph name="Xi" format="2">
  <advance width="1128.4"/>
  <unicode hex="039E"/>
  <outline>
    <contour>
      <point x="62.2" y="0.0" type="line"/>
      <point x="62.2" y="111.37662337662337" type="line"/>
      <point x="1066.2" y="111.37662337662337" type="line"/>
      <point x="1066.2" y="0.0" type="line"/>
    </contour>
    <contour>
      <point x="164.2" y="694.3376623376623" type="line"/>
      <point x="164.2" y="805.7142857142857" type="line"/>
      <point x="964.1999999999999" y="805.7142857142857" type="line"/>
      <point x="964.1999999999999" y="694.3376623376623" type="line"/>
    </contour>
    <contour>
      <point x="62.2" y="1344.6233766233768" type="line"/>
      <point x="62.2" y="1456.0" type="line"/>
      <point x="1066.2" y="1456.0" type="line"/>
      <point x="1066.2" y="1344.6233766233768" type="line"/>
    </contour>
  </outline>
</glyph>
<glyph name="Sigma" format="2">
  <advance width="1100.3893617021276"/>
  <unicode hex="03A3"/>
  <outline>
    <contour>
      <point x="59.5" y="0.0" type="line"/>
      <point x="59.5" y="121.0" type="line"/>
      <point x="557.5212765957447" y="737.5319148936171" type="line"/>
      <point x="557.5212765957447" y="711.5957446808511" type="line"/>
      <point x="71.5" y="1304.0" type="line"/>
      <point x="71.5" y="1456.0" type="line"/>
      <point x="1007.9893617021278" y="1456.0" type="line"/>
      <point x="1007.9893617021278" y="1357.4415584415585" type="line"/>
      <point x="161.1120475269411" y="1357.4415584415585" type="line"/>
      <point x="164.7265819287096" y="1362.2278253661234" type="line"/>
      <point x="675.8510638297873" y="743.3510638297873" type="line"/>
      <point x="675.8510638297873" y="717.7446808510639" type="line"/>
      <point x="172.35023487151147" y="93.992953854656" type="line"/>
      <point x="168.34609008013263" y="99.16883116883118" type="line"/>
      <point x="1039.9893617021276" y="99.16883116883118" type="line"/>
      <point x="1039.9893617021276" y="0.0" type="line"/>
    </contour>
  </outline>
</glyph>
<glyph name="Phi" format="2">
  <advance width="1491.776595744681"/>
  <unicode hex="03A6"/>
  <outline>
    <contour>
      <point x="692.8617021276597" y="-20.0" type="line"/>
      <point x="692.8617021276597" y="242.0" type="line"/>
      <point x="692.8617021276597" y="285.0" type="line"/>
      <point x="692.8617021276597" y="1192.0" type="line"/>
      <point x="692.8617021276597" y="1228.0" type="line"/>
      <point x="692.8617021276597" y="1476.0" type="line"/>
      <point x="800.2234042553191" y="1476.0" type="line"/>
      <point x="800.2234042553191" y="1229.1276595744682" type="line"/>
      <point x="800.2234042553191" y="1192.563829787234" type="line"/>
      <point x="800.2234042553191" y="283.87234042553195" type="line"/>
      <point x="800.2234042553191" y="240.87234042553192" type="line"/>
      <point x="800.2234042553191" y="-20.0" type="line"/>
    </contour>
    <contour>
      <point x="664.8617021276596" y="194.00000000000003" type="line" smooth="yes"/>
      <point x="386.24468085106383" y="194.00000000000003"/>
      <point x="95.5" y="492.10638297872345"/>
      <point x="95.5" y="739.872340425532" type="qcurve" smooth="yes"/>
      <point x="95.5" y="992.0"/>
      <point x="386.24468085106383" y="1283.0"/>
      <point x="664.8617021276596" y="1283.0" type="qcurve" smooth="yes"/>
      <point x="826.9148936170213" y="1283.0" type="line" smooth="yes"/>
      <point x="1105.531914893617" y="1283.0"/>
      <point x="1396.276595744681" y="991.0"/>
      <point x="1396.276595744681" y="738.0" type="qcurve" smooth="yes"/>
      <point x="1396.276595744681" y="485.0"/>
      <point x="1105.531914893617" y="194.00000000000003"/>
      <point x="826.9148936170213" y="194.00000000000003" type="qcurve" smooth="yes"/>
    </contour>
    <contour>
      <point x="664.8617021276596" y="288.8961038961039" type="qcurve" smooth="yes"/>
      <point x="826.9148936170213" y="288.8961038961039" type="line" smooth="yes"/>
      <point x="1067.0058027079303" y="288.8961038961039"/>
      <point x="1288.9148936170213" y="518.8961038961039"/>
      <point x="1288.9148936170213" y="736.8723404255319" type="qcurve" smooth="yes"/>
      <point x="1288.9148936170213" y="952.6623376623377"/>
      <point x="1067.0058027079303" y="1188.1038961038962"/>
      <point x="826.9148936170213" y="1188.1038961038962" type="qcurve" smooth="yes"/>
      <point x="664.8617021276596" y="1188.1038961038962" type="line" smooth="yes"/>
      <point x="424.7707930367505" y="1188.1038961038962"/>
      <point x="202.8617021276596" y="958.1038961038961"/>
      <point x="202.8617021276596" y="741.0" type="qcurve" smooth="yes"/>
      <point x="202.8617021276596" y="524.3376623376623"/>
      <point x="424.7707930367505" y="288.8961038961039"/>
    </contour>
  </outline>
</glyph>
<glyph name="beta" format="2">
  <advance width="1011.2425531914894"/>
  <unicode hex="03B2"/>
  <outline>
    <contour>
      <point x="134.2" y="-416.0" type="line"/>
      <point x="134.2" y="1058.0" type="line" smooth="yes"/>
      <point x="134.2" y="1311.0"/>
      <point x="316.02978723404254" y="1556.0"/>
      <point x="503.1255319148936" y="1556.0" type="qcurve" smooth="yes"/>
      <point x="679.9553191489362" y="1556.0"/>
      <point x="849.2851063829788" y="1350.436170212766"/>
      <point x="849.2851063829788" y="1155.436170212766" type="qcurve"/>
      <point x="849.2851063829788" y="1026.436170212766"/>
      <point x="734.1468085106383" y="825.2817021276596"/>
      <point x="630.1468085106383" y="795.9200000000001" type="qcurve"/>
      <point x="630.1468085106383" y="811.92" type="line"/>
      <point x="765.7" y="791.9200000000001"/>
      <point x="933.7425531914894" y="591.9200000000001"/>
      <point x="933.7425531914894" y="424.4838297872341" type="qcurve" smooth="yes"/>
      <point x="933.7425531914894" y="204.92000000000002"/>
      <point x="716.5191489361703" y="-21.0"/>
      <point x="554.1255319148936" y="-21.0" type="qcurve" smooth="yes"/>
      <point x="406.1255319148936" y="-21.0"/>
      <point x="230.168085106383" y="136.53191489361703"/>
      <point x="187.1255319148936" y="219.1063829787234" type="qcurve"/>
      <point x="187.1255319148936" y="409.0" type="line"/>
      <point x="254.95490466979828" y="253.8295109146173"/>
      <point x="424.7190660403426" y="75.11688311688312"/>
      <point x="541.1255319148936" y="75.11688311688312" type="qcurve" smooth="yes"/>
      <point x="676.515142304504" y="75.11688311688312"/>
      <point x="824.1255319148936" y="245.58233766233766"/>
      <point x="824.1255319148936" y="423.9200000000001" type="qcurve" smooth="yes"/>
      <point x="824.1255319148936" y="583.9979220779221"/>
      <point x="660.9956617850235" y="754.7735064935064"/>
      <point x="478.1255319148936" y="753.4135064935065" type="qcurve" smooth="yes"/>
      <point x="380.1255319148937" y="753.4135064935065" type="line"/>
      <point x="380.1255319148937" y="842.816103896104" type="line"/>
      <point x="479.1255319148936" y="842.816103896104" type="line" smooth="yes"/>
      <point x="616.0605968499585" y="842.816103896104"/>
      <point x="747.1255319148937" y="1024.142857142857"/>
      <point x="747.1255319148937" y="1156.0" type="qcurve" smooth="yes"/>
      <point x="747.1255319148937" y="1298.6103896103896"/>
      <point x="630.8917656811275" y="1460.4935064935066"/>
      <point x="503.1255319148936" y="1460.4935064935066" type="qcurve" smooth="yes"/>
      <point x="372.85280464216635" y="1460.4935064935066"/>
      <point x="242.12553191489363" y="1260.155844155844"/>
      <point x="242.12553191489363" y="1065.0" type="qcurve" smooth="yes"/>
      <point x="242.12553191489363" y="-416.0" type="line"/>
    </contour>
  </outline>
</glyph>
<glyph name="gamma" format="2">
  <advance width="863.3085106382979"/>
  <unicode hex="03B3"/>
  <outline>
    <contour>
      <point x="374.63829787234044" y="-366.0" type="line"/>
      <point x="374.63829787234044" y="51.2" type="line"/>
      <point x="1.0" y="916.0" type="line"/>
      <point x="105.97872340425532" y="916.0" type="line"/>
      <point x="385.7127659574468" y="245.08297872340427" type="line" smooth="yes"/>
      <point x="402.1889361702128" y="206.44297872340428"/>
      <point x="421.32978723404256" y="137.26382978723404"/>
      <point x="427.51063829787233" y="115.08297872340425" type="qcurve"/>
      <point x="433.0744680851064" y="115.08297872340425" type="line"/>
      <point x="440.1276595744681" y="138.13617021276593"/>
      <point x="459.2685106382979" y="206.87914893617022"/>
      <point x="475.7446808510639" y="245.08297872340427" type="qcurve" smooth="yes"/>
      <point x="759.5851063829788" y="916.0" type="line"/>
      <point x="862.3085106382979" y="916.0" type="line"/>
      <point x="482.5638297872341" y="51.2" type="line"/>
      <point x="482.5638297872341" y="-366.0" type="line"/>
    </contour>
  </outline>
</glyph>
<glyph name="epsilon" format="2">
  <advance width="908.4234042553192"/>
  <unicode hex="03B5"/>
  <anchor x="484.28085106382986" y="916.0" name="top"/>
  <outline>
    <contour>
      <point x="458.6425531914893" y="-30.0" type="qcurve"/>
      <point x="281.5131914893617" y="-30.0"/>
      <point x="90.10000000000001" y="118.61702127659575"/>
      <point x="90.10000000000001" y="253.74468085106383" type="qcurve" smooth="yes"/>
      <point x="90.10000000000001" y="345.32"/>
      <point x="211.70808510638298" y="456.0"/>
      <point x="344.85531914893613" y="468.0" type="qcurve"/>
      <point x="344.85531914893613" y="446.436170212766" type="line"/>
      <point x="234.2795744680851" y="464.36"/>
      <point x="128.66382978723402" y="566.2"/>
      <point x="128.66382978723402" y="653.5638297872341" type="qcurve" smooth="yes"/>
      <point x="128.66382978723402" y="791.76"/>
      <point x="313.97234042553197" y="945.0"/>
      <point x="486.46170212765963" y="945.0" type="qcurve" smooth="yes"/>
      <point x="669.3340425531917" y="945.0"/>
      <point x="849.8234042553192" y="749.2"/>
      <point x="849.8234042553192" y="601.2" type="qcurve"/>
      <point x="745.2808510638298" y="601.2" type="line"/>
      <point x="745.2808510638298" y="724.9272727272728"/>
      <point x="620.6574744404531" y="850.1038961038961"/>
      <point x="484.28085106382986" y="850.1038961038961" type="qcurve" smooth="yes"/>
      <point x="365.4200718430506" y="850.1038961038961"/>
      <point x="238.2808510638298" y="747.5350649350651"/>
      <point x="238.2808510638298" y="653.0" type="qcurve" smooth="yes"/>
      <point x="238.2808510638298" y="577.8005194805195"/>
      <point x="326.6320198949986" y="503.2857142857143"/>
      <point x="420.2808510638298" y="503.2857142857143" type="qcurve" smooth="yes"/>
      <point x="630.2808510638297" y="503.2857142857143" type="line"/>
      <point x="630.2808510638297" y="413.8831168831168" type="line"/>
      <point x="420.2808510638298" y="413.8831168831168" type="line" smooth="yes"/>
      <point x="308.38578612876483" y="413.8831168831168"/>
      <point x="200.2808510638298" y="338.814025974026"/>
      <point x="200.2808510638298" y="259.3829787234042" type="qcurve" smooth="yes"/>
      <point x="200.2808510638298" y="167.04727272727274"/>
      <point x="338.39461729759597" y="65.50649350649351"/>
      <point x="464.2808510638298" y="65.50649350649351" type="qcurve"/>
      <point x="598.6704614534401" y="65.50649350649351"/>
      <point x="744.2808510638298" y="187.02077922077922"/>
      <point x="744.2808510638298" y="314.8" type="qcurve"/>
      <point x="848.8234042553191" y="314.8" type="line"/>
      <point x="848.8234042553191" y="163.79999999999998"/>
      <point x="638.131914893617" y="-30.0"/>
    </contour>
  </outline>
</glyph>
<glyph name="zeta" format="2">
  <advance width="789.3297872340427"/>
  <unicode hex="03B6"/>
  <guideline x="809.0" y="291.0" angle="89.99999999999996" identifier="Hhem4nGbLg"/>
  <guideline x="856.0000000000001" y="822.9999999999999" angle="89.99999999999996" identifier="UwRnHAo0ZQ"/>
  <outline>
    <contour>
      <point x="587.3297872340426" y="-348.0" type="line"/>
      <point x="610.3297872340427" y="-295.0"/>
      <point x="641.3297872340427" y="-195.00000000000003"/>
      <point x="641.3297872340427" y="-143.0" type="qcurve" smooth="yes"/>
      <point x="641.3297872340427" y="-84.0"/>
      <point x="581.6382978723404" y="2.840425531914896"/>
      <point x="497.63829787234044" y="23.27659574468085" type="qcurve" smooth="yes"/>
      <point x="370.56382978723406" y="54.40425531914894" type="line" smooth="yes"/>
      <point x="213.46808510638297" y="92.7872340425532"/>
      <point x="59.5" y="239.08510638297872"/>
      <point x="59.5" y="359.32978723404256" type="qcurve"/>
      <point x="59.5" y="457.32978723404256"/>
      <point x="154.21677258911302" y="689.1635810997514"/>
      <point x="372.4148936170212" y="998.872340425532" type="qcurve" smooth="yes"/>
      <point x="732.3668140370269" y="1509.4778944459795" type="line"/>
      <point x="735.0171318043659" y="1503.7381873445706" type="line"/>
      <point x="101.13829787234043" y="1503.7381873445706" type="line"/>
      <point x="101.13829787234043" y="1536.0" type="line"/>
      <point x="824.3297872340427" y="1536.0" type="line"/>
      <point x="824.3297872340427" y="1379.0" type="line"/>
      <point x="476.8829787234043" y="907.2765957446809" type="line" smooth="yes"/>
      <point x="284.3936170212766" y="644.7659574468086"/>
      <point x="169.68085106382978" y="455.3723404255319"/>
      <point x="169.68085106382978" y="372.29787234042556" type="qcurve"/>
      <point x="169.68085106382978" y="288.3191489361702"/>
      <point x="279.7446808510639" y="178.72340425531917"/>
      <point x="414.3404255319149" y="145.54255319148933" type="qcurve" smooth="yes"/>
      <point x="531.8510638297872" y="116.41489361702129" type="line" smooth="yes"/>
      <point x="699.6276595744681" y="74.79787234042553"/>
      <point x="819.3297872340426" y="-25.404255319148938"/>
      <point x="819.3297872340426" y="-109.7340425531915" type="qcurve" smooth="yes"/>
      <point x="819.3297872340426" y="-170.11702127659578"/>
      <point x="787.1489361702128" y="-286.2872340425532"/>
      <point x="757.3297872340426" y="-348.0" type="qcurve"/>
    </contour>
  </outline>
</glyph>
<glyph name="eta" format="2">
  <advance width="955.2510638297872"/>
  <unicode hex="03B7"/>
  <anchor x="484.9765957446808" y="0.0" name="bottom"/>
  <anchor x="500.50851063829793" y="916.0" name="top"/>
  <outline>
    <contour>
      <point x="134.2" y="0.0" type="line"/>
      <point x="134.2" y="916.0" type="line"/>
      <point x="231.97659574468085" y="916.0" type="line"/>
      <point x="242.12553191489363" y="676.8679193147279" type="line"/>
      <point x="242.12553191489363" y="0.0" type="line"/>
    </contour>
    <contour>
      <point x="188.3808510638298" y="503.91641337386017" type="qcurve"/>
      <point x="188.3808510638298" y="684.1489361702128" type="line"/>
      <point x="244.08063000828957" y="813.3194252555954"/>
      <point x="433.37988394584136" y="942.8"/>
      <point x="546.6042553191489" y="942.8" type="qcurve" smooth="yes"/>
      <point x="682.9234042553192" y="942.8"/>
      <point x="830.0510638297872" y="774.627659574468"/>
      <point x="830.0510638297872" y="604.063829787234" type="qcurve" smooth="yes"/>
      <point x="830.0510638297872" y="-416.0" type="line"/>
      <point x="722.1255319148936" y="-416.0" type="line"/>
      <point x="722.1255319148936" y="598.0287372202267" type="line" smooth="yes"/>
      <point x="722.1255319148936" y="723.9698811826472"/>
      <point x="616.9814313346228" y="844.851948051948"/>
      <point x="518.4359767891683" y="844.851948051948" type="qcurve" smooth="yes"/>
      <point x="418.8939762365295" y="844.851948051948"/>
      <point x="238.40862116606797" y="699.513401492125"/>
    </contour>
  </outline>
</glyph>
<glyph name="theta" format="2">
  <advance width="965.4893617021277"/>
  <unicode hex="03B8"/>
  <outline>
    <contour>
      <point x="483.80851063829795" y="-30.0" type="qcurve" smooth="yes"/>
      <point x="302.3191489361702" y="-30.0"/>
      <point x="86.5" y="284.0"/>
      <point x="86.5" y="654.0" type="qcurve"/>
      <point x="86.5" y="881.9999999999999" type="line"/>
      <point x="86.5" y="1242.0"/>
      <point x="300.75531914893617" y="1556.0"/>
      <point x="482.6808510638298" y="1556.0" type="qcurve" smooth="yes"/>
      <point x="665.2978723404256" y="1556.0"/>
      <point x="878.9893617021277" y="1242.0"/>
      <point x="878.9893617021277" y="881.9999999999999" type="qcurve"/>
      <point x="878.9893617021277" y="654.0" type="line"/>
      <point x="878.9893617021277" y="284.0"/>
      <point x="666.8617021276596" y="-30.0"/>
    </contour>
    <contour>
      <point x="484.85507046145347" y="65.50649350649351" type="qcurve" smooth="yes"/>
      <point x="620.6342912406742" y="65.50649350649351"/>
      <point x="768.2446808510638" y="334.46753246753246"/>
      <point x="768.2446808510638" y="614.0" type="qcurve"/>
      <point x="768.2446808510638" y="916.0" type="line" smooth="yes"/>
      <point x="768.2446808510638" y="1194.753246753247"/>
      <point x="618.413512019895" y="1460.4935064935066"/>
      <point x="483.2446808510638" y="1460.4935064935066" type="qcurve" smooth="yes"/>
      <point x="348.9070185134015" y="1460.4935064935066"/>
      <point x="197.24468085106383" y="1194.753246753247"/>
      <point x="197.24468085106383" y="916.0" type="qcurve" smooth="yes"/>
      <point x="197.24468085106383" y="614.0" type="line" smooth="yes"/>
      <point x="197.24468085106383" y="334.46753246753246"/>
      <point x="350.5174081237911" y="65.50649350649351"/>
    </contour>
    <contour>
      <point x="142.24468085106383" y="641.4935064935065" type="line"/>
      <point x="142.24468085106383" y="730.896103896104" type="line"/>
      <point x="823.2446808510639" y="730.896103896104" type="line"/>
      <point x="823.2446808510639" y="641.4935064935065" type="line"/>
    </contour>
  </outline>
</glyph>
<glyph name="mu" format="2">
  <advance width="1031.5425531914893"/>
  <unicode hex="03BC"/>
  <outline>
    <contour>
      <point x="134.2" y="-416.0" type="line"/>
      <point x="134.2" y="916.0" type="line"/>
      <point x="242.12553191489363" y="916.0" type="line"/>
      <point x="242.12553191489363" y="-416.0" type="line"/>
    </contour>
    <contour>
      <point x="197.27446808510638" y="335.2978723404255" type="line"/>
      <point x="265.4978723404255" y="202.42870958828408"/>
      <point x="404.505885603758" y="75.8961038961039"/>
      <point x="487.34631113567286" y="75.8961038961039" type="qcurve" smooth="yes"/>
      <point x="579.3463111356729" y="75.8961038961039"/>
      <point x="722.1255319148936" y="268.0"/>
      <point x="722.1255319148936" y="357.0" type="qcurve" smooth="yes"/>
      <point x="722.1255319148936" y="916.0" type="line"/>
      <point x="830.0510638297872" y="916.0" type="line"/>
      <point x="830.0510638297872" y="275.0" type="line" smooth="yes"/>
      <point x="830.0510638297872" y="177.4025974025974"/>
      <point x="875.1321635810998" y="86.50649350649351"/>
      <point x="919.7425531914894" y="86.50649350649351" type="qcurve" smooth="yes"/>
      <point x="939.7425531914894" y="86.50649350649351"/>
      <point x="975.7425531914894" y="93.50649350649351"/>
      <point x="992.7425531914894" y="100.50649350649351" type="qcurve"/>
      <point x="992.7425531914894" y="5.0" type="line"/>
      <point x="978.1042553191489" y="-4.0"/>
      <point x="936.6255319148936" y="-17.0"/>
      <point x="907.6042553191489" y="-17.0" type="qcurve" smooth="yes"/>
      <point x="829.104255319149" y="-17.0"/>
      <point x="742.2212765957447" y="59.00000000000001"/>
      <point x="730.2744680851065" y="130.0" type="qcurve"/>
      <point x="724.2744680851064" y="130.0" type="line"/>
      <point x="689.1468085106383" y="68.0"/>
      <point x="558.2" y="-20.0"/>
      <point x="472.3808510638298" y="-20.0" type="qcurve" smooth="yes"/>
      <point x="381.9765957446808" y="-20.0"/>
      <point x="242.24255319148938" y="72.68085106382978"/>
      <point x="197.27446808510638" y="147.3297872340426" type="qcurve"/>
    </contour>
  </outline>
</glyph>
<glyph name="tau" format="2">
  <advance width="737.6170212765958"/>
  <unicode hex="03C4"/>
  <outline>
    <contour>
      <point x="1.0" y="820.4935064935065" type="line"/>
      <point x="1.0" y="916.0" type="line"/>
      <point x="691.6170212765958" y="916.0" type="line"/>
      <point x="691.6170212765958" y="820.4935064935065" type="line"/>
    </contour>
    <contour>
      <point x="479.0957446808511" y="-30.0" type="qcurve" smooth="yes"/>
      <point x="383.72340425531917" y="-30.0"/>
      <point x="279.0" y="110.0"/>
      <point x="279.0" y="260.0" type="qcurve" smooth="yes"/>
      <point x="279.0" y="865.3896103896105" type="line"/>
      <point x="386.92553191489367" y="865.3896103896105" type="line"/>
      <point x="386.92553191489367" y="260.0" type="line" smooth="yes"/>
      <point x="386.92553191489367" y="160.7792207792208"/>
      <point x="441.22741088698535" y="73.50649350649351"/>
      <point x="501.6170212765958" y="73.50649350649351" type="qcurve" smooth="yes"/>
      <point x="529.6170212765958" y="73.50649350649351"/>
      <point x="583.6170212765958" y="85.5064935064935"/>
      <point x="611.6170212765958" y="95.50649350649351" type="qcurve"/>
      <point x="611.6170212765958" y="0.0" type="line"/>
      <point x="589.9787234042553" y="-12.0"/>
      <point x="520.3723404255319" y="-30.0"/>
    </contour>
  </outline>
</glyph>
<glyph name="Kaisymbol" format="2">
  <advance width="1171.508510638298"/>
  <unicode hex="03CF"/>
  <outline>
    <contour>
      <point x="154.0" y="0.0" type="line"/>
      <point x="154.0" y="1456.0" type="line"/>
      <point x="265.3085106382979" y="1456.0" type="line"/>
      <point x="265.3085106382979" y="0.0" type="line"/>
    </contour>
    <contour>
      <point x="210.3085106382979" y="479.37468914064664" type="line"/>
      <point x="210.3085106382979" y="630.2707930367505" type="line"/>
      <point x="963.5682508980382" y="1456.0" type="line"/>
      <point x="1111.412406742194" y="1456.0" type="line"/>
      <point x="463.412406742194" y="752.0" type="line"/>
    </contour>
    <contour>
      <point x="994.707101409229" y="3.03150041447914" type="line"/>
      <point x="422.47872340425533" y="769.5531914893618" type="line"/>
      <point x="494.57446808510645" y="847.4148936170212" type="line"/>
      <point x="1145.5425531914893" y="-14.351063829787238" type="line"/>
      <point x="430.3085106382979" y="-590.0" type="line"/>
      <point x="358.7760431058304" y="-505.8701298701299" type="line"/>
    </contour>
  </outline>
</glyph>
<glyph name="kaisymbol" format="2">
  <advance width="994.4978723404255"/>
  <unicode hex="03D7"/>
  <outline>
    <contour>
      <point x="142.44067421939764" y="0.0" type="line"/>
      <point x="142.44067421939764" y="916.0" type="line"/>
      <point x="249.97659574468085" y="916.0" type="line"/>
      <point x="249.97659574468085" y="0.0" type="line"/>
    </contour>
    <contour>
      <point x="196.5952749378281" y="400.5064935064935" type="line"/>
      <point x="196.5952749378281" y="491.7402597402597" type="line"/>
      <point x="380.48098922354245" y="491.7402597402597" type="line"/>
      <point x="798.2446255871789" y="916.0" type="line"/>
      <point x="935.2056645482178" y="916.0" type="line"/>
      <point x="479.82323846366404" y="466.9311964631114" type="line"/>
      <point x="966.5936170212766" y="-14.914893617021274" type="line"/>
      <point x="298.9978723404255" y="-590.0" type="line"/>
      <point x="223.8550151975684" y="-504.2597402597403" type="line"/>
      <point x="818.9774247029567" y="0.48480243161094805" type="line"/>
      <point x="420.4743575573363" y="400.5064935064935" type="line"/>
    </contour>
  </outline>
</glyph>
<glyph name="Dje" format="2">
  <advance width="1442.4085106382981"/>
  <unicode hex="0402"/>
  <guideline x="568.0" y="625.0" angle="89.99999999999996" identifier="YDADns81zF"/>
  <outline>
    <contour>
      <point x="469.2914893617022" y="0.0" type="line"/>
      <point x="469.2914893617022" y="1407.2207792207791" type="line"/>
      <point x="580.6" y="1407.2207792207791" type="line"/>
      <point x="580.6" y="0.0" type="line"/>
    </contour>
    <contour>
      <point x="1023.6000000000001" y="0.0" type="line"/>
      <point x="1023.6000000000001" y="113.81818181818181" type="line"/>
      <point x="1031.6" y="113.81818181818181" type="line" smooth="yes"/>
      <point x="1132.651948051948" y="113.81818181818181"/>
      <point x="1235.6" y="269.54545454545456"/>
      <point x="1235.6" y="407.0" type="qcurve" smooth="yes"/>
      <point x="1235.6" y="423.00000000000006" type="line" smooth="yes"/>
      <point x="1235.6" y="594.6609560652114"/>
      <point x="1039.1073224647694" y="750.831168831169"/>
      <point x="858.6000000000001" y="750.831168831169" type="qcurve" smooth="yes"/>
      <point x="750.1954523731347" y="750.831168831169"/>
      <point x="605.5148936170212" y="729.831168831169"/>
      <point x="525.5999999999999" y="707.831168831169" type="qcurve"/>
      <point x="525.5999999999999" y="807.0" type="line"/>
      <point x="604.5148936170212" y="829.0"/>
      <point x="754.637835058183" y="849.9999999999999"/>
      <point x="871.6000000000001" y="849.9999999999999" type="qcurve" smooth="yes"/>
      <point x="1110.5361702127661" y="849.9999999999999"/>
      <point x="1346.9085106382977" y="624.0"/>
      <point x="1346.9085106382977" y="425.0212765957448" type="qcurve" smooth="yes"/>
      <point x="1346.9085106382977" y="409.0" type="line" smooth="yes"/>
      <point x="1346.9085106382977" y="235.0"/>
      <point x="1198.068085106383" y="0.0"/>
      <point x="1031.6" y="0.0" type="qcurve" smooth="yes"/>
    </contour>
    <contour>
      <point x="22.6" y="1356.831168831169" type="line"/>
      <point x="22.6" y="1456.0" type="line"/>
      <point x="1068.6" y="1456.0" type="line"/>
      <point x="1068.6" y="1356.831168831169" type="line"/>
    </contour>
  </outline>
</glyph>
<glyph name="Ieukran" format="2">
  <advance width="1178.844680851064"/>
  <unicode hex="0404"/>
  <guideline x="211.00000000000003" y="787.0000000000001" angle="89.99999999999996" identifier="mFTeE97JTj"/>
  <outline>
    <contour>
      <point x="624.4468085106382" y="-30.0" type="qcurve" smooth="yes"/>
      <point x="401.52127659574467" y="-30.0"/>
      <point x="104.5" y="346.0"/>
      <point x="104.5" y="682.0" type="qcurve" smooth="yes"/>
      <point x="104.5" y="774.0" type="line" smooth="yes"/>
      <point x="104.5" y="1110.0"/>
      <point x="401.52127659574467" y="1486.0"/>
      <point x="624.4468085106382" y="1486.0" type="qcurve" smooth="yes"/>
      <point x="847.3723404255319" y="1486.0"/>
      <point x="1102.244680851064" y="1201.0"/>
      <point x="1102.244680851064" y="1000.0" type="qcurve" smooth="yes"/>
      <point x="1102.244680851064" y="990.0" type="line"/>
      <point x="990.936170212766" y="990.0" type="line"/>
      <point x="990.936170212766" y="1000.0" type="line" smooth="yes"/>
      <point x="990.936170212766" y="1174.844155844156"/>
      <point x="807.8192870958829" y="1383.1688311688313"/>
      <point x="627.936170212766" y="1383.1688311688313" type="qcurve" smooth="yes"/>
      <point x="441.5335728101686" y="1383.1688311688313"/>
      <point x="216.93617021276594" y="1080.8311688311687"/>
      <point x="216.93617021276594" y="797.0" type="qcurve" smooth="yes"/>
      <point x="216.93617021276594" y="674.0" type="line" smooth="yes"/>
      <point x="216.93617021276594" y="391.71428571428567"/>
      <point x="440.923183199779" y="72.83116883116884"/>
      <point x="627.936170212766" y="72.83116883116884" type="qcurve" smooth="yes"/>
      <point x="791.7543520309478" y="72.83116883116884"/>
      <point x="970.7315556783642" y="279.4976512848853"/>
      <point x="989.936170212766" y="456.00000000000006" type="qcurve" smooth="yes"/>
      <point x="990.936170212766" y="466.0" type="line"/>
      <point x="1102.244680851064" y="466.0" type="line"/>
      <point x="1101.244680851064" y="456.00000000000006" type="line" smooth="yes"/>
      <point x="1081.244680851064" y="256.0"/>
      <point x="847.3723404255319" y="-30.0"/>
    </contour>
    <contour>
      <point x="161.3723404255319" y="702.0" type="line"/>
      <point x="161.3723404255319" y="801.1688311688313" type="line"/>
      <point x="843.936170212766" y="801.1688311688313" type="line"/>
      <point x="843.936170212766" y="702.0" type="line"/>
    </contour>
  </outline>
</glyph>
<glyph name="Tshe" format="2">
  <advance width="1472.908510638298"/>
  <unicode hex="040B"/>
  <guideline x="568.0" y="683.0" angle="89.99999999999996" identifier="juO2xYoEN4"/>
  <outline>
    <contour>
      <point x="469.2914893617022" y="0.0" type="line"/>
      <point x="469.2914893617022" y="1412.935064935065" type="line"/>
      <point x="580.6" y="1412.935064935065" type="line"/>
      <point x="580.6" y="0.0" type="line"/>
    </contour>
    <contour>
      <point x="1234.6" y="0.0" type="line"/>
      <point x="1234.6" y="394.0" type="line" smooth="yes"/>
      <point x="1234.6" y="586.8051948051948"/>
      <point x="1059.1974025974025" y="750.4415584415585"/>
      <point x="873.5999999999999" y="750.4415584415585" type="qcurve" smooth="yes"/>
      <point x="792.6" y="750.4415584415585"/>
      <point x="650.5999999999999" y="734.4415584415584"/>
      <point x="525.5999999999999" y="708.4415584415585" type="qcurve"/>
      <point x="525.5999999999999" y="808.0" type="line"/>
      <point x="648.6" y="833.0"/>
      <point x="800.6" y="849.9999999999999"/>
      <point x="904.6" y="849.9999999999999" type="qcurve" smooth="yes"/>
      <point x="1146.6212765957448" y="849.9999999999999"/>
      <point x="1346.344680851064" y="627.0"/>
      <point x="1345.908510638298" y="391.0" type="qcurve" smooth="yes"/>
      <point x="1345.908510638298" y="0.0" type="line"/>
    </contour>
    <contour>
      <point x="22.6" y="1356.831168831169" type="line"/>
      <point x="22.6" y="1456.0" type="line"/>
      <point x="1068.6" y="1456.0" type="line"/>
      <point x="1068.6" y="1356.831168831169" type="line"/>
    </contour>
  </outline>
</glyph>
